<?xml version="1.0" encoding="utf-8"?>
<!-- Generator: Adobe Illustrator 16.0.0, SVG Export Plug-In . SVG Version: 6.00 Build 0)  -->
<!DOCTYPE svg PUBLIC "-//W3C//DTD SVG 1.1//EN" "http://www.w3.org/Graphics/SVG/1.1/DTD/svg11.dtd">
<svg version="1.1" id="Layer_1" xmlns="http://www.w3.org/2000/svg" xmlns:xlink="http://www.w3.org/1999/xlink" x="0px" y="0px"
	 width="1000px" height="1000px" viewBox="0 0 1000 1000" enable-background="new 0 0 1000 1000" xml:space="preserve">
<path fill="#FFFFFF" d="M914.546,636.51c0.091-11.616,0.558-23.171,0.709-34.787c0.061-10.016,0.061-20.011,0-29.945
	c-0.071-6.765-0.618-13.529-0.618-20.314c-0.151-11.535-0.091-23.16-0.091-34.705c0-7.99,0.77-16.092-0.061-23.941
	c-1.469-13.458-4.771-26.766-5.763-40.234c-2.076-25.925-3.321-51.952-4.628-77.948c-0.921-19.322-5.083-38.108-9.712-56.722
	c-3.059-12.618-5.063-13.925-18.441-14.461c-16.801-0.77-33.642-1.235-50.422-0.932c-45.016,0.851-89.877-0.77-133.879-11.474
	c-4.314-1.063-8.699-1.448-13.095-2.147c-13.398-2.076-26.928-3.768-40.255-6.238c-5.226-0.922-9.985-4.071-15.15-5.145
	c-6.542-1.316-13.388-1.388-20.072-2.157c-20.314-2.157-40.801-3.919-61.025-6.927c-14.157-2.147-28.248-5.307-41.479-11.849
	c-5.008-2.461-11.626-2.623-17.398-2.38c-13.93,0.77-27.865,3.919-41.637,3.301c-24.609-1.002-49.01,0.233-73.254,3.615
	c-11.772,1.621-22.183-0.851-32.482-6.147c-4.385-2.309-9.61-3.322-14.618-4.162c-4.77-0.78-9.626-0.537-14.477-0.851
	c-11.677-0.78-23.383-1.924-35.085-2.147c-9.935-0.233-19.844,0.84-29.778,0.84c-17.92-0.071-35.87-3.544-53.937-0.466
	c-28.092,4.699-56.489,3.615-85.968,3.008c-12.547,22.776-12.457,22.776-12.846,47.02c0,1.529-0.688,3.068-1.008,4.598
	c-6.066,27.95-7.696,55.506,5.236,82.211c1.235,2.451,1.534,5.377,2.613,8c3.008,6.927,6.243,13.844,9.312,20.76
	c6.092,13.854,14.841,26.563,15.474,42.574c0.299,6.694,3.079,13.226,4.471,19.93c3.226,15.302,7.226,30.472,2.998,46.322
	c-0.998,3.767-0.851,8.07,0,11.939c2.775,12.841,5.99,25.611,9.312,38.391c3.544,13.764,4.157,27.627,2.84,41.785
	c-0.83,9.914-0.612,20.152,1.079,29.936c4.694,26.158,8.628,52.234,6.927,78.939c-0.385,5.165,0.385,10.482,0.993,15.627
	c0.937,8.547,8.704,14.552,17.403,14.086c8.005-0.375,16-0.375,24.006-0.688c8.006-0.304,16.087-0.86,24.083-1.073
	c10.4-0.324,20.861-0.932,31.242-0.547c19.621,0.688,39.166,1.387,58.955-0.77c17.849-1.925,36.017-1.844,54.099-1.459
	c18.006,0.305,36.017,2.391,54.093,3.089c39.323,1.448,78.813,1.216,117.97,4.213c51.496,3.849,102.718,2.704,154.062-0.526
	c14.391-0.922,28.709-3.23,43.02-5.003c21.449-2.704,42.938-6.319,64.488-8.001c38.018-3.088,76.115-5.164,114.213-7.463
	c7.585-0.466,12.223-3.16,14.836-11.17c4.77-14.766,4.143-29.236-0.092-43.709C917.492,665.898,914.485,651.437,914.546,636.51
	 M474.785,662.971c-2.552,15.697-10.33,23.931-26.26,23.931c-16.396,0-32.776-0.982-49.171-2.45
	c-10.072-0.861-19.216-4.699-26.012-13.014c-4.304-5.307-8.689-20.163-8.233-27.252c0.542-7.605,0.693-15.302,0.096-22.836
	c-1.63-18.249,0.825-36.104,3.919-53.876c4.446-25.936,4.532-51.87,2.603-77.938c-0.076-1.174,0.081-2.4,0.147-4.476
	c10.233-0.081,10.937-0.152,11.332,8.304c0.982,20.396,1.14,40.863,2.157,61.249c0.673,14.319,2.365,28.64,3.443,42.958
	c0.309,4.305,0,8.689-0.218,13.004c-0.694,9.469-1.463,19.008-2.314,29.317c22.244,2.451,43.09-1.924,65.188-1.853
	c0.299-4.852,1.068-9.155,0.921-13.398c-1.316-28.153,0.061-56.084,4.066-83.943c1.008-7.078,0.694-14.481-0.071-21.631
	c-1.296-12.689-3.382-25.389-5.382-39.708c3.377,0.233,7.155,0.152,10.765,0.861c3.929,0.77,5.474,3.291,5.701,7.767
	c1.454,21.936,4.385,43.779,5.079,65.715C473.61,590.098,480.78,626.423,474.785,662.971 M469.306,373.541
	c-4.76,1.62-10.137,1.853-15.322,1.782c-8.765-0.162-17.611-1.145-26.386-1.701c-6.927-0.466-12.993,1.479-19.545,4.385
	c-13.626,6.005-28.249,8.618-43.318,8.396c-10.39-0.071-20.705,0.314-32.396,0.537c-1.398,15.15-2.547,29.004-4.011,42.868
	c-2.684,26.776-6.066,53.41-8.152,80.176c-1.068,13.55-1.702,27.475,0.375,40.791c2.851,19.02,0.704,37.552-1.068,56.327
	c-1.008,11.089-0.071,22.391-0.071,33.551c0,16.852,0.142,33.632-0.086,50.493c-0.081,5.307-3.159,9.236-8.618,10.076
	c-5.393,0.922-7.93-3.301-9.692-7.393c-1.165-2.846-2.157-6.369-1.549-9.307c3.008-15.241,1.235-30.25-0.537-45.48
	c-2.076-17.936-2.532-36.002-4.385-53.937c-2.917-28.791-7.696-57.41-9.544-86.191c-2-31.566-5.535-63.253-0.466-94.9
	c1.079-6.613,1.306-13.297,2-20.305c-3.919-0.841-6.603-1.762-9.312-1.854c-18.466-0.597-36.842-1.144-55.324-1.387
	c-18.082-0.142-36.179,0.152-54.255,0c-11.145-0.071-18.467-5.681-21.227-15.93c-0.921-3.382-0.84-7.221-2.314-10.391
	c-1.377-2.998-4.147-5.448-7.691-9.843c10.927-2.613,20.229-6.238,29.758-6.917c33.652-2.471,67.355-3.929,101.058-1.934
	c14.396,0.932,28.933-0.375,43.338-0.233c12.836,0.162,25.611,0.77,38.473,1.621c20.386,1.225,40.776,2.765,61.162,4.385
	c14.786,1.154,29.556,2.704,44.331,3.767c7.849,0.537,13.702,4.557,18.862,9.702C480.309,361.854,478.714,370.24,469.306,373.541
	 M612.285,679.984c-15.616,0.912-31.151,2.532-46.768,3.92c-2.713,0.303-5.488,0.932-8.102,1.762
	c-8.385,2.623-10.916,2.167-14.765-5.145c-2.634-4.852-4.314-10.31-5.307-15.777c-1.854-9.773-3.403-19.697-4.173-29.643
	c-0.465-5.448,1.316-11.068,1.094-16.527c-1.012-25.236-2.471-50.564-3.463-75.791c-0.305-8.02,0.607-16.01,0.607-24.092
	c-0.081-12.021-0.77-24.021-0.77-36.113c0.07-16.771-0.143-33.692,1.154-50.463c2.076-28.173,2.553-56.094-2.775-84.034
	c-0.455-2.238-0.607-4.628-1.134-9.54c5.753,2.775,9.682,3.919,12.75,6.218c2.016,1.408,3.544,4.243,4.001,6.704
	c0.932,5.084,1.255,10.32,1.396,15.464c0.76,20.011,1.459,40.103,2.006,60.114c0.375,14.765,0.223,29.611,0.77,44.478
	c0.223,4.993,2.005,9.924,2.977,14.998c18.168,0.851,35.344,1.843,52.488,2.319c12.477,0.385,23.101,6.147,33.713,11.444
	c6.238,3.088,7.859,8.709,7.09,16.254c-1.094,11.383-0.162,22.998,0.223,34.543c0.455,13.165,1.235,26.32,1.843,39.475
	c0.081,1.236,0.081,2.542,0.466,3.625c5.539,14.766,1.844,30.25,3.24,45.329C652.914,662.668,633.309,678.84,612.285,679.984
	 M832.608,675.205c-6.4,1.854-13.47,2.005-20.163,2.076c-12.456,0.151-24.781-0.305-36.406,5.934
	c-12.152,6.543-59.021-8.851-65.645-22.086c-5.387-10.705-7.918-21.936-8.688-33.552c-1.215-18.006-1.995-36.012-2.46-54.099
	c0-1.235-0.092-2.531-0.152-3.777c1.084-7.312,1.397-14.623,1.681-22.006c0.081-0.07,0.081-0.152,0.081-0.223v-7.24
	c0-0.457-0.142-0.771-0.304-1.155v-1.62c0.162-7.464,1.701-15.068-2.005-22.462c-0.83-1.782,1.235-6.31,3.24-7.858
	c15.069-11.454,31.557-18.624,51.242-15.849c10.796,1.529,21.693,1.154,32.407,2.846c28.315,4.476,37.854,16.243,48.549,45.177
	c2.025,5.539,2.856,11.707,3.849,17.621c1.235,7.393-0.081,8.314-7.453,10.693c-21.004,6.856-41.865,4.689-62.95,0.547
	c-10.917-2.076-22.179-2.703-33.317-3.463c-3.383-0.314-6.928,1.073-10.087,1.681c-1.782,12.243-3.687,23.637-4.933,35.02
	c-1.529,14.613,1.246,28.71,6.623,42.878c32.641,0,63.871,0,95.104-0.172c2.471,0,5.164-1.074,7.322-2.31
	c6.4-3.767,9.771-3.302,14.096,2.552C850.077,654.971,845.227,671.67,832.608,675.205 M727.408,539.006
	c-5.387-11.008-5.164-13.073,3.859-19.858c8.678-6.542,18.846-8.466,29.459-7.383c8.324,0.841,16.547,3.149,24.852,3.302
	c9.945,0.151,15.555,5.002,19.403,13.236c1.458,3.078,2.774,6.309,4.76,10.703H727.408z M609.996,568.081
	c0.304,18.856,0.607,37.642,0.911,56.428v6.917h-52.194c-4.375-8.314-4.902-18.4-4.679-28.325
	c0.708-27.931,2.005-55.86,3.079-83.953c13.691-1.62,26.006-3.159,38.238-4.537c7.627-0.851,13.621,4.375,13.875,12.608
	C609.753,540.84,609.753,554.48,609.996,568.081 M973.921,720.057c-1.569-11.695-3.019-24.152-2.958-36.406
	c0.152-20.973-2.572-41.146-5.225-60.681c-1.823-13.479-3.545-26.209-4.355-39.02c-0.151-2.339-0.293-4.771-0.465-7.21
	c-0.527-7.586-1.043-14.756-0.729-21.398c1.306-24.943,3.048-51.861,5.641-87.062l0.638-8.031
	c1.682-21.418,3.443-43.556,2.654-66.413c-0.467-12.446-1.54-24.689-2.572-36.548c-0.993-11.403-1.925-22.188-2.37-33.055
	c-0.587-15.454-2.259-30.776-3.868-45.612c-0.608-5.549-1.216-11.119-1.773-16.679l-0.111-1.347
	c-0.303-3.048-0.627-6.826-1.539-10.896c-6.359-27.637-27.688-44.67-55.749-44.67c-1.803,0-3.655,0.071-5.519,0.223
	c-8.791,0.679-17.602,1.013-26.918,1.357c-7.575,0.284-15.414,0.577-23.252,1.083c-16.173,1.033-29.308,2.35-41.359,4.122
	c-6.846,0.962-13.509,2.38-19.93,3.737c-9.256,1.955-17.965,3.797-25.925,4.021l-1.407,0.05c-11.029,0.264-22.432,0.567-33.49,0.567
	c-21.186,0-48.894-0.942-75.487-8.325c-15.737-4.365-32.366-7.899-50.837-10.805l-7.535-1.175
	c-30.057-4.668-58.453-9.084-86.262-17.247c-25.444-7.443-52.575-11.231-80.657-11.231c-16.259,0-33.338,1.266-50.772,3.768
	l-1.939,0.273c-14.071,1.964-28.619,4.021-42.539,4.932c-13.231,0.8-26.452,1.003-40.442,1.246
	c-6.583,0.111-13.2,0.213-19.788,0.395c-3.018,0.102-6.086,0.354-9.509,0.81c-5.838,0.739-11.727,1.509-17.585,2.279
	c-14.831,1.924-30.158,3.939-45.151,5.58c-19.92,2.147-40.539,4.375-60.676,5.205c-19.028,0.78-43.794,2.947-66.565,12.912
	c-5.919,2.592-10.481,7.534-12.578,13.641c-3.443,10.066-6.608,19.12-9.747,28.184c-5.479,15.95-10.922,31.809-16.522,47.678
	c-8.669,24.801-6.481,48.093,6.471,69.279c1.762,2.906,2.501,7.565,3.104,14.117c1.139,13.034,2.891,26.017,4.593,38.584
	c0.663,4.922,1.316,9.823,1.959,14.745c0.299,2.309,0.633,4.425,0.962,6.562c0.284,1.843,0.572,3.656,0.82,5.519l2.583,20.426
	c2.445,19.373,4.896,38.726,7.23,58.119l0.37,3.038c1.008,8.172,1.95,15.879,1.99,23.201c0.157,36.649,0.324,74.666,6.461,112.673
	c2.025,12.396,3.828,25.126,5.56,37.44c4.193,29.621,8.517,60.285,16.446,90.494c6.836,26.168,15.039,37.845,45.713,37.845
	l2.583-0.01c4.542-0.091,8.998-0.436,13.585-1.022c5.028-0.658,10.172-1.428,15.307-2.229c10.431-1.62,20.29-3.16,29.667-3.281
	c6.522-0.091,13.043-0.152,19.565-0.152c16.294,0,32.979,0.264,49.106,0.518c12.714,0.191,25.403,0.395,38.108,0.485l4.273,0.04
	c9.677,0.122,19.358,0.224,29.034,0.224c10.826,0,20.305-0.142,29.049-0.436c16.735-0.496,33.703-1.378,50.109-2.218
	c11.403-0.577,22.811-1.164,34.239-1.641c13.667-0.588,27.606-0.952,41.085-1.316c7.914-0.213,15.818-0.426,23.728-0.668
	c4.978-0.152,9.93-0.416,14.902-0.648c7.97-0.405,15.484-0.77,22.906-0.77c1.408,0,2.806,0.01,4.203,0.029
	c7.019,0.143,14.158,0.75,21.723,1.418c8.558,0.74,17.408,1.51,26.584,1.59c5.246,0.062,10.491,0.092,15.736,0.092
	c18.563,0,40.58-0.426,63.254-3.534c23.494-3.302,47.213-3.737,72.357-4.192l7.92-0.132c25.529-0.526,51.576-0.669,76.773-0.78
	c19.342-0.102,38.705-0.191,58.068-0.455c12.496-0.162,24.669-0.801,37.551-1.469c5.711-0.294,11.523-0.598,17.479-0.871
	c12.031-0.516,21.631-10.208,22.037-22.249c0.182-4.851,0.425-9.61,0.647-14.31C975.42,755.461,976.291,737.982,973.921,720.057
	 M950.892,785.863c-19.099,0.86-36.72,2.076-54.341,2.318c-45.005,0.607-90.02,0.294-134.974,1.236
	c-27.687,0.525-55.557,0.688-82.96,4.526c-20.053,2.755-40.062,3.331-60.115,3.331c-5.164,0-10.339-0.04-15.523-0.08
	c-16.002-0.172-32.012-2.715-48.023-3.018c-1.549-0.031-3.148-0.051-4.699-0.051c-12.83,0-25.65,1.022-38.543,1.438
	c-21.717,0.688-43.328,1.073-65.03,1.995c-28.083,1.165-56.094,3.008-84.186,3.849c-9.418,0.324-18.841,0.436-28.26,0.436
	c-11.054,0-22.097-0.152-33.141-0.273c-29.141-0.193-58.281-1.003-87.381-1.003c-6.623,0-13.261,0.061-19.89,0.162
	c-15.945,0.223-31.804,3.676-47.647,5.681c-3.55,0.456-7.155,0.77-10.765,0.861h-2.405c-17.393,0-18.522-1.995-23.373-20.629
	c-10.861-41.318-14.694-83.812-21.561-125.747c-5.828-36.255-5.995-72.712-6.162-109.2c-0.061-9.621-1.367-19.241-2.537-28.781
	c-3.144-26.32-6.527-52.559-9.843-78.879c-0.537-4.01-1.235-7.93-1.772-11.919c-2.228-17.479-4.927-34.938-6.461-52.488
	c-0.77-8.537-1.919-16.771-6.38-24.092c-9.691-15.839-10.39-32.396-4.395-49.552c5.621-15.93,11.074-31.849,16.542-47.799
	c3.169-9.064,6.314-18.148,9.777-28.224c17.783-7.777,37.703-10.157,58.261-11.008c20.771-0.851,41.551-3.079,62.251-5.306
	c21.08-2.319,42.093-5.236,63.183-7.93c2.375-0.304,4.76-0.547,7.155-0.618c20.401-0.537,40.787-0.476,61.102-1.691
	c15.454-1.002,30.933-3.22,46.24-5.387c15.899-2.258,31.743-3.514,47.526-3.514c24.917,0,49.673,3.129,74.135,10.289
	c31.717,9.307,64.266,13.996,96.733,19.089c16.244,2.542,32.478,5.833,48.246,10.218c26.928,7.474,54.26,9.165,81.664,9.165
	c11.858,0,23.697-0.304,35.545-0.618c16.244-0.456,32.306-5.681,48.55-7.99c13.084-1.934,26.319-3.079,39.495-3.929
	c16.771-1.094,33.703-1.154,50.473-2.471c1.276-0.102,2.532-0.142,3.737-0.142c16.942,0,29.257,9.378,33.196,26.533
	c0.699,3.15,0.922,6.4,1.236,9.55c2.015,20.305,4.76,40.63,5.539,60.945c0.932,23.251,4.07,46.25,4.932,69.492
	c0.84,24.305-1.377,48.032-3.23,71.942c-2.168,29.247-4.162,58.504-5.712,87.73c-0.445,10.319,0.618,20.791,1.256,31.09
	c2.065,32.862,9.763,65.025,9.54,98.131c-0.082,13.236,1.377,26.473,3.139,39.546C953.728,743.531,951.662,763.857,950.892,785.863"
	/>
</svg>
