<?xml version="1.0" standalone="no"?>
<!DOCTYPE svg PUBLIC "-//W3C//DTD SVG 1.1//EN" "http://www.w3.org/Graphics/SVG/1.1/DTD/svg11.dtd" >
<svg>
<metadata>
Created by FontForge 20090622 at Wed Dec 16 14:49:47 2015
 By deploy user
2000 Steffen Sauerteig, Henning Wagenbreth, published by Fontshop International for the FontFont library.
</metadata>
<defs>
<font id="PraterSansOne-Regular" horiz-adv-x="439" >
  <font-face 
    font-family="PraterSansOne-Regular"
    font-weight="500"
    font-stretch="normal"
    units-per-em="1000"
    panose-1="0 0 0 0 0 0 0 0 0 0"
    ascent="800"
    descent="-200"
    x-height="588"
    cap-height="796"
    bbox="-65 -234 1037 980"
    underline-thickness="20"
    underline-position="-123"
    unicode-range="U+0020-U+FB02"
  />
<missing-glyph horiz-adv-x="500" 
 />
    <glyph glyph-name=".notdef" horiz-adv-x="500" 
 />
    <glyph glyph-name=".null" horiz-adv-x="0" 
 />
    <glyph glyph-name="nonmarkingreturn" horiz-adv-x="333" 
 />
    <glyph glyph-name="space" unicode=" " horiz-adv-x="244" 
 />
    <glyph glyph-name="exclam" unicode="!" horiz-adv-x="242" 
d="M174 222l-114 -9q0 60 -3.5 176.5t-3.5 172.5l-2 244q81 0 118 -5q10 -228 5 -579zM198 40q-11 -34 -42 -46t-63 -1.5t-47 35.5q-12 19 -11 38.5t6.5 30.5t19.5 34q18 17 45.5 22t51.5 -7q62 -36 40 -106z" />
    <glyph glyph-name="quotedbl" unicode="&#x22;" horiz-adv-x="363" 
d="M330 799q-3 -191 -10 -310h-105q-2 57 -6.5 126.5t-6 111.5t-0.5 73zM159 799q-3 -191 -10 -310h-105q-2 57 -6.5 126.5t-6 111.5t-0.5 73z" />
    <glyph glyph-name="numbersign" unicode="#" horiz-adv-x="505" 
d="M474 245q1 -18 -1 -96l-67 -2v-149q-4 0 -57.5 -1.5t-54.5 1.5l3 149l-89 3q0 -115 3 -152q-16 -2 -32.5 -2t-39 1t-37.5 1l2 154h-67q0 15 -0.5 37t-0.5 36t-1 22q4 0 26.5 1.5t41.5 0.5l1 88l-71 -1q0 11 -0.5 47t-1.5 54h74l1 162q23 -1 60.5 1.5t43.5 2.5
q-1 -22 -2 -86.5t0 -77.5l83 -4q8 75 4 168q8 0 46 -2.5t61 -1.5l1 -164h67q2 -35 -1 -102h-65l2 -84q9 0 30.5 -2t37.5 -2zM301 337h-93v-93q7 0 22 1t32 1t37 -2q0 20 1 49t1 44z" />
    <glyph glyph-name="dollar" unicode="$" horiz-adv-x="420" 
d="M230 -13q46 1 83.5 24t49.5 48q24 49 29 120t-13 138q-9 34 -65.5 87.5t-85.5 69.5l-1 255q41 -1 109 -14l6 95q-51 11 -116 15l1 53l-35 3l-1 -55q-48 -4 -81 -29t-47 -50q-51 -92 -34 -211q7 -31 22 -56t26.5 -36t33.5 -28.5l28 -22.5q1 -1 22 -14t32 -18l1 -266
q-34 -4 -75 3.5t-54 8.5l-15 -105q95 -19 143 -21l1 -65l35 1zM231 102l-5 241q22 -21 39.5 -58t17.5 -71q2 -94 -52 -112zM191 501q-19 14 -40 39t-24 44q-8 41 11 85t54 58z" />
    <glyph glyph-name="percent" unicode="%" horiz-adv-x="778" 
d="M308 535v-10q0 -48 -11 -72q-18 -39 -34.5 -49t-73.5 -10q-26 0 -40 1.5t-34 8t-35 23.5t-27 44q-5 33 -6 75q0 65 1 141q1 41 32 69.5t56 32.5q18 0 49.5 2t66 -11.5t42.5 -40.5l5.5 -22t4 -22t2.5 -17.5t1.5 -20t0.5 -17.5v-22v-22v-61zM564 768q-30 -56 -69.5 -189.5
t-46.5 -152.5q-28 -79 -69 -206.5t-81 -239.5l-93 32l63 188l49.5 150.5l49 149.5t48 132.5t67.5 167.5zM729 129q1 -59 -15 -94t-39.5 -43t-87.5 -8q-32 0 -46.5 3t-32.5 20t-34 54q-5 33 -6 75q0 65 1 141q1 41 32 69.5t56 32.5q18 0 49 1.5t65.5 -12.5t42.5 -41
q5 -17 7.5 -30.5t4 -29t2 -23.5t0.5 -29.5v-30.5zM218 507q5 33 5 39.5t-6 109.5q-1 28 -22 38.5t-41 -2.5t-20 -42q0 -126 5 -144q2 -7 6 -13q7 -13 23 -17t31 4t19 27zM638 95q5 33 5 39.5t-6 109.5q-1 17 -9.5 28t-20.5 13.5t-24 -0.5t-20 -15.5t-8 -29.5q0 -126 5 -144
q2 -7 6 -13q7 -13 22.5 -17.5t30.5 3t19 26.5z" />
    <glyph glyph-name="ampersand" unicode="&#x26;" horiz-adv-x="492" 
d="M478 58q-40 -53 -74 -86q-10 13 -39.5 45t-38.5 47q-15 -24 -43 -45t-50 -27q-16 -2 -33 -4.5t-23 -2.5t-18 1.5t-35 7.5q-19 5 -42 27t-36 47q-14 41 -17 66.5t-5 104.5q-1 39 21 93.5t65 103.5q-8 18 -24 49.5t-23.5 49.5t-14.5 47.5t-5.5 64.5t11.5 79q16 27 39.5 48
t43.5 26q101 25 157 -14q74 -52 64 -182q-4 -61 -104 -202l78 -146q10 20 24 52t21 46q52 -25 77 -39q-17 -68 -70 -154q17 -18 46 -52t48 -51zM252 632v21.5t-1.5 22.5t-6.5 15t-16.5 13.5t-29.5 3.5q-25 0 -35.5 -25.5t-6.5 -52.5q8 -60 42 -126q57 72 54 128zM270 148
l-96 178q-2 -4 -9 -15t-9 -14.5t-8 -15t-6.5 -17.5t-4.5 -21t-2 -25.5t1 -31.5q4 -43 17 -63.5t41 -20.5q44 0 76 46z" />
    <glyph glyph-name="quotesingle" unicode="'" horiz-adv-x="193" 
d="M159 799q-3 -191 -10 -310h-105q-2 57 -6.5 126.5t-6 111.5t-0.5 73z" />
    <glyph glyph-name="parenleft" unicode="(" horiz-adv-x="404" 
d="M301 40l-81 -81q-51 53 -78 103.5t-52 122.5q-52 151 -21 334t135 319q17 -6 43.5 -27.5t39.5 -39.5q-62 -111 -87.5 -207t-26.5 -220q0 -68 19 -117.5t57.5 -105.5t51.5 -81z" />
    <glyph glyph-name="parenright" unicode=")" horiz-adv-x="370" 
d="M282 478q-1 -124 -15.5 -211t-35 -142.5t-70.5 -164.5q-48 17 -99 49q212 423 18 769q13 13 27 23.5t29.5 20t21.5 14.5q52 -46 80 -124q45 -120 44 -234z" />
    <glyph glyph-name="asterisk" unicode="*" horiz-adv-x="394" 
d="M352 736l-122 -54q17 -15 37 -37.5t36 -43.5t18 -23q-12 -7 -24.5 -16l-29 -21.5t-27.5 -19.5l-71 133l-76 -128q-55 40 -67 65q4 6 41 46t51 52l-115 31l38 81q5 -4 43.5 -26t54.5 -36q-1 10 -5.5 41t-7.5 53.5t-3 27.5q36 3 79 3l-3 -125q12 13 56.5 41.5t47.5 32.5
q8 -7 14.5 -15t12 -17.5l8.5 -15t8 -16.5t6 -13z" />
    <glyph glyph-name="plus" unicode="+" horiz-adv-x="542" 
d="M441 304h-132q0 -145 -1 -159q-15 2 -55 2t-56 1l-3 156l-131 -3q-3 18 -2.5 56.5t-0.5 53.5l134 2l-1 147h111q3 -78 3 -147q48 0 84.5 1.5t49.5 1.5q2 -43 0 -112z" />
    <glyph glyph-name="comma" unicode="," horiz-adv-x="232" 
d="M204 112q-54 -186 -126 -306l-89 40q27 69 51.5 156.5t30.5 140.5q11 2 37 -4.5t56.5 -15.5t39.5 -11z" />
    <glyph glyph-name="hyphen" unicode="-" horiz-adv-x="518" 
d="M451 424q0 -87 -2 -128l-384 -1v127q67 2 386 2z" />
    <glyph glyph-name="period" unicode="." horiz-adv-x="232" 
d="M192 40q-11 -34 -42 -46t-63 -1.5t-47 35.5q-12 19 -11 38.5t6.5 30.5t19.5 34q18 17 45.5 22t51.5 -7q62 -36 40 -106z" />
    <glyph glyph-name="slash" unicode="/" horiz-adv-x="520" 
d="M497 747q-27 -52 -69.5 -150t-61.5 -138l-116 -226t-131 -260l-113 65l49 115q43 101 98 211.5l124.5 242l106.5 205.5q1 2 21.5 -10.5l49 -30t42.5 -24.5z" />
    <glyph glyph-name="zero" unicode="0" horiz-adv-x="479" 
d="M411 118q-3 -27 -22.5 -57.5t-44.5 -47.5q-27 -18 -81.5 -20.5t-87.5 7.5q-11 3 -21 8.5t-14 9l-11 10t-8 7.5q-26 22 -42 58.5t-19 62.5q-7 65 -8.5 208.5t2.5 226.5q3 91 20 135q20 51 110.5 66.5t160.5 -14.5q37 -15 65 -89q14 -73 15 -255.5t-14 -315.5zM309 595
q-1 57 -5 62l-2 2q-4 10 -9 16t-12 8.5t-12 3.5t-15.5 1h-15.5q-24 2 -39 -3.5t-21 -19t-7.5 -19t-2.5 -20.5q-5 -57 -6.5 -114.5t-0.5 -102.5t0 -106q0 -70 2 -95t13 -61q14 -33 60.5 -33t60.5 32q8 25 12.5 62t5 88.5t0 92.5t-2.5 107z" />
    <glyph glyph-name="one" unicode="1" horiz-adv-x="373" 
d="M274 791q7 -119 -5 -791q-13 0 -36 1t-43 1t-40 -2q0 57 3 291t1 378q-42 -26 -86 -50q-6 14 -18.5 39t-19.5 48l132 85h112z" />
    <glyph glyph-name="two" unicode="2" horiz-adv-x="395" 
d="M361 0q-38 0 -100 2t-111 2t-96 -4q-3 176 13 281q4 24 15.5 49.5t31 51t34.5 42.5l37.5 40.5l28.5 29.5q21 23 34 64t10 65q-5 32 -20 45.5t-47 12.5q-28 -2 -76 -43l-54 94q47 35 79.5 49.5t83.5 14.5q66 0 113 -68q40 -58 20 -189q-3 -17 -7.5 -30.5t-18 -32.5
l-20 -27.5t-32.5 -38l-37 -41.5q-57 -66 -64 -152q-13 -47 -11 -100q16 -5 92.5 -1.5t97.5 3.5q2 -19 2 -59t2 -60z" />
    <glyph glyph-name="three" unicode="3" horiz-adv-x="379" 
d="M325 326q21 -156 -23 -250q-14 -31 -58 -55.5t-63 -20.5q-19 1 -35.5 3.5t-26.5 5t-24.5 10t-19.5 10.5t-23 15.5t-25 16.5l58 83q50 -35 67 -37q36 -3 54.5 29t16.5 85q-2 81 -18.5 106.5t-63.5 27.5l-28 1l-2 97l35 6q35 6 49 17.5t21 51.5q9 41 0.5 89t-30.5 58
q-57 25 -121 -23l-46 86q35 37 102 50t112 -2q19 -5 40.5 -28t28.5 -45q21 -64 23.5 -94.5t-6.5 -105.5q-6 -46 -62 -102q59 -17 68 -85z" />
    <glyph glyph-name="four" unicode="4" horiz-adv-x="449" 
d="M410 364l-3 -114h-55l-1 -250h-113q4 25 0.5 119t-3.5 131l-212 7q0 68 1 96q17 27 100.5 226t95.5 212h127l9 -426q11 -1 26.5 -1h27.5zM247 642q-55 -154 -112 -273q11 0 42 -1t59 -1q4 73 6.5 160.5t4.5 114.5z" />
    <glyph glyph-name="five" unicode="5" horiz-adv-x="381" 
d="M318 412q11 -73 8 -175t-22 -161q-13 -25 -27.5 -41.5t-41.5 -31.5q-39 -2 -66 -3t-50 5.5t-37.5 12t-27.5 16t-19.5 17.5t-14.5 16.5t-12 13.5l83 70q30 -40 60 -42q38 -2 53.5 33t13.5 136q-1 67 -12 89.5t-58 23.5q-24 0 -39 -1.5t-29.5 -4.5t-23.5 -4q-1 30 1 102
l5 172t4 141h249l-1 -115q-9 0 -44 1.5t-56.5 1.5t-47.5 -2l-3 -187q70 8 110 -17.5t45 -65.5z" />
    <glyph glyph-name="six" unicode="6" horiz-adv-x="407" 
d="M356 71q-8 -21 -30.5 -43.5t-41.5 -27.5q-49 -4 -88.5 2t-62 16t-39 25t-22.5 26t-9 21q-15 72 -19 229t13 264q5 27 57 112q37 41 76.5 63t103.5 42l44 -91q-30 -7 -74 -35.5t-71 -60.5q-18 -22 -28.5 -52.5t-13 -53t-3.5 -54.5t-2 -41q29 13 105 18q41 3 71 -25t34 -65
q2 -16 7.5 -68.5t7 -75t-1.5 -59.5t-13 -66zM274 189q-1 84 -12.5 106.5t-57.5 21.5q-45 -1 -47 -54q0 -12 1.5 -32t0.5 -33q4 -51 14.5 -69t30.5 -20q36 -4 53.5 18t16.5 62z" />
    <glyph glyph-name="seven" unicode="7" horiz-adv-x="391" 
d="M373 796q-36 -127 -93 -389h66q2 -25 1.5 -35.5t-2 -33t-1.5 -32.5q-13 -1 -44.5 -1t-42.5 -2q-8 -25 -45.5 -155.5t-48.5 -163.5q-37 9 -101 36q62 211 77 281q-11 3 -24 3t-30.5 -1t-25.5 -1q2 70 2 102q9 1 102 1q18 77 35.5 168.5l19.5 101.5q-20 0 -80.5 0.5
t-90.5 0.5v120h326z" />
    <glyph glyph-name="eight" unicode="8" 
d="M398 288q3 -68 0.5 -116t-18.5 -107q-11 -22 -33.5 -40.5t-43.5 -24.5q-8 -1 -29 -3t-30 -3t-26.5 -2t-29 0t-27 2.5t-29.5 5.5q-7 2 -13.5 6t-11 7.5t-12 11t-11 11.5t-11.5 14.5t-11 13.5q-26 73 -18 202q6 109 82 133q-23 7 -45.5 28.5t-24.5 40.5q-22 165 6 256
q32 54 70 64q9 2 18 3.5t16 3t16.5 1.5t15 0.5t16 0t14.5 -1t16 -1.5t14.5 -1.5t16 -2.5t15.5 -2q43 -12 73 -58q38 -83 16 -249q-3 -26 -22.5 -52t-47.5 -30q38 -9 63 -37.5t26 -73.5zM280 575q-1 80 -8 98q-12 29 -62 32q-39 -7 -50 -32t-9 -100q1 -65 14.5 -90.5
t43.5 -26.5q40 -1 55.5 25.5t15.5 93.5zM292 191q-2 96 -15.5 123t-58.5 28q-39 1 -55 -31t-12 -122q1 -35 4 -54t15 -35t35 -16h22q14 0 24.5 2.5t17 10l11 13t6.5 18l3 19t2 23t1 21.5z" />
    <glyph glyph-name="nine" unicode="9" horiz-adv-x="412" 
d="M356 191q-9 -61 -40 -103q-33 -45 -93 -74t-125 -38l-41 118q111 21 152 73q33 42 41.5 106t3.5 109q-29 -14 -104 -21q-40 -4 -69.5 22t-38.5 64q-27 112 -6 284q8 20 27 36t39 22q101 10 152 1q14 -3 26 -7.5t20.5 -11.5t14 -13t10.5 -15.5l7 -13.5t5 -13t3 -10
q17 -68 23.5 -239t-7.5 -276zM238 531q0 12 -2 32t-2 33q-7 66 -16 77t-32 10q-35 3 -52 -19t-15 -63q4 -84 16.5 -106.5t57.5 -19.5t45 56z" />
    <glyph glyph-name="colon" unicode=":" horiz-adv-x="246" 
d="M191 491q-18 -51 -67 -50t-74 42q-12 19 -13 38.5t5 33.5t18 34q18 17 46.5 22t52.5 -7q57 -34 32 -113zM198 87q-11 -33 -42 -45t-63 -2t-47 35q-12 19 -11 38.5t6.5 30.5t19.5 34q18 17 45.5 22t51.5 -7q62 -36 40 -106z" />
    <glyph glyph-name="semicolon" unicode=";" horiz-adv-x="232" 
d="M194 491q-18 -51 -67 -50t-74 42q-12 19 -13 38.5t5 33.5t18 34q18 17 46.5 22t52.5 -7q57 -34 32 -113zM204 142q-54 -186 -126 -306l-89 40q27 69 51.5 156.5t30.5 140.5q11 2 37 -4.5t56.5 -15.5t39.5 -11z" />
    <glyph glyph-name="less" unicode="&#x3c;" horiz-adv-x="528" 
d="M400 237l-65 -87l-67 50l-53 41l-39.5 32l-45.5 38l-51 43l43.5 38.5l64.5 55.5l139 113q51 -60 65 -82q-27 -21 -75.5 -62t-76.5 -62l77.5 -57.5t83.5 -60.5z" />
    <glyph glyph-name="equal" unicode="=" horiz-adv-x="611" 
d="M489 494q0 -66 -2 -91q-71 -5 -198.5 -6t-167.5 -2v98q31 1 368 1zM493 221l-367 -2l-1 100q45 1 157 -2t210 -3q0 -22 0.5 -54t0.5 -39z" />
    <glyph glyph-name="greater" unicode="&#x3e;" horiz-adv-x="514" 
d="M423 354l-51 -43l-45.5 -38l-39.5 -32l-53 -41l-67 -50l-65 87q24 16 83.5 60.5l77.5 57.5q-28 21 -76.5 62t-75.5 62q14 22 65 82l139 -113l64.5 -55.5z" />
    <glyph glyph-name="question" unicode="?" horiz-adv-x="377" 
d="M318 546q-17 -39 -46.5 -70l-53.5 -58t-33 -62q-5 -106 -2 -128q-47 3 -101 -4q-11 112 8.5 177t96.5 126q37 30 37 81t-31 62q-20 16 -47 21.5t-63.5 6t-53.5 3.5v107q18 -1 57 -2t61 -3t53 -7.5t55 -18t43 -32.5q74 -78 20 -199zM216 38q-11 -34 -42 -46t-63 -1.5
t-47 35.5q-12 19 -11 38.5t6.5 30.5t19.5 34q18 17 45.5 22t51.5 -7q62 -36 40 -106z" />
    <glyph glyph-name="at" unicode="@" horiz-adv-x="790" 
d="M719 448q3 -83 -3 -223t-6 -155q0 -48 -48.5 -86t-86.5 -37q-47 1 -75 27.5t-47 83.5q-38 -45 -63 -56q-26 -12 -57.5 -11.5t-52.5 14.5q-26 17 -37.5 63t-7 93t19.5 74q19 33 68 51t107 18q3 30 1.5 73.5t-16.5 53.5q-12 8 -34 9t-56 -1t-53 -1l-5 93q54 8 129 3t91 -25
l30 -36q11 -13 11 -67t-3 -143.5t-1 -145.5q1 -35 19.5 -58t34.5 -23q36 0 38 58q0 5 2 63t2 106t-0.5 108.5t-6.5 105t-16 62.5q-25 45 -134 54t-189 -11q-45 -9 -70 -50q-26 -55 -24 -245t23 -287q41 -102 355 -102v-112q-3 0 -51.5 1t-62 2t-56.5 3t-64 6l-54 10t-57 16
t-45 22q-28 17 -57 62.5t-34 118.5q-13 193 -8 417q2 87 34 149t91 77q93 24 211 24.5t194 -18.5q57 -13 87 -80t33 -148zM427 217q-49 4 -75 -7q-31 -14 -39 -53q-3 -37 -0.5 -50.5t17.5 -27.5q33 -16 66 25q11 14 16.5 22t11 32.5t3.5 58.5z" />
    <glyph glyph-name="A" unicode="A" horiz-adv-x="505" 
d="M502 -2h-138q-9 26 -22 91.5l-15 75.5q-23 2 -172 -1l-43 -166q-12 0 -34.5 1t-40.5 1t-34 -2l17 80l161 716q5 1 21.5 0.5t47.5 -0.5t48 1q40 -127 113.5 -428.5zM301 283q-39 214 -59 296q-11 -44 -25.5 -118.5t-22.5 -126.5l-9 -52z" />
    <glyph glyph-name="B" unicode="B" horiz-adv-x="448" 
d="M391 56q-14 -28 -41 -44t-55 -16q-181 0 -233 4q-2 474 -2 743v55q15 0 59.5 0.5t69 -1t59 -6t58.5 -16.5t39 -31q19 -44 25 -105.5t3.5 -105.5t-8.5 -80q-4 -22 -19.5 -42.5t-16.5 -23.5q33 -34 51.5 -76t20.5 -91t-0.5 -82.5t-9.5 -81.5zM271 645q-12 56 -98 47
q-1 -61 -0.5 -91t2 -87.5t1.5 -85.5q61 2 81 15q14 24 17 54t0 82t-3 66zM276 255q-1 12 -4 21.5t-10 14t-13 7.5t-17.5 3.5t-17 0.5t-20 -1.5t-18.5 -1.5l-1 -203q0 -2 12 -2t33 0.5t34 0.5q21 9 24.5 56t-2.5 104z" />
    <glyph glyph-name="C" unicode="C" horiz-adv-x="411" 
d="M369 797l-3 -114h-26h-28.5t-25.5 -1t-27 -3.5t-23 -7t-22 -11.5t-16.5 -17.5t-13.5 -23.5q-19 -202 -4 -408q8 -116 179 -99q-1 -17 -1.5 -52.5t-2.5 -65.5q-264 0 -289 100q-21 83 -21 251t24 320q8 51 36.5 74t86.5 40q55 22 177 18z" />
    <glyph glyph-name="D" unicode="D" horiz-adv-x="434" 
d="M380 177q-5 -44 -40 -80t-85 -57.5t-104 -32.5t-102 -11q-2 35 -2 799q103 0 195.5 -36t124.5 -114q28 -116 28 -224t-15 -244zM286 245q0 18 3 72t3.5 87.5t-1.5 78t-12 76.5t-27 50q-45 48 -84 49v-192q0 -51 -4 -164.5t-3 -172.5l47 14q32 13 54.5 40.5t23.5 61.5z
" />
    <glyph glyph-name="E" unicode="E" horiz-adv-x="392" 
d="M364 680l-184 -12v-3l-7 -205q76 -4 148 -12q4 -64 -4 -104h-142q-3 -12 -2 -92.5t4 -120.5q18 0 85 4.5t97 0.5q-2 -17 0.5 -60t-0.5 -64q-53 -5 -171.5 -8t-130.5 -4l-2 58q-6 61 -1 364.5t5 355.5q10 1 125 7.5t175 8.5q0 -11 2 -48.5t3 -65.5z" />
    <glyph glyph-name="F" unicode="F" horiz-adv-x="405" 
d="M386 678l-215 -10q-2 -40 0 -93.5t1 -72.5q3 -40 4 -48h153l-2 -106l-153 -7q2 -62 2 -341h-115l-14 781q72 5 339 10v-113z" />
    <glyph glyph-name="G" unicode="G" horiz-adv-x="440" 
d="M393 10q-37 -5 -62 -7t-64.5 -3t-67 4t-56.5 15.5t-47 31.5t-24 51q-12 56 -18.5 120.5t-7 125.5t-1 134.5t-0.5 149.5q-1 41 19 75t54 55q32 20 73.5 27.5t86 -3t73.5 -42.5q29 -33 30 -136v-9q-9 2 -44.5 0.5t-56.5 -0.5q-2 10 -3 26t-2.5 23.5t-5.5 16.5t-13 12.5
t-25 3.5q-33 0 -51.5 -16t-19.5 -58q-2 -113 1 -165l15 -255q3 -41 40.5 -57.5t82.5 -16.5q2 15 2 40.5v64t1 67.5l-67 -1q-3 78 -1 101q20 3 47 4t61 1t51 1q0 -44 2 -127.5t2 -146t-4 -107.5z" />
    <glyph glyph-name="H" unicode="H" horiz-adv-x="506" 
d="M447 0h-116v363q-47 4 -150 0q0 -81 1 -134q1 -34 0 -108.5t-1 -120.5h-115l-7 686v105q16 0 56.5 2t59.5 1l4 -320q28 -3 87 -4.5t63 -1.5q3 73 2.5 123.5t-2.5 118.5t-2 84h115q9 -256 5 -794z" />
    <glyph glyph-name="I" unicode="I" horiz-adv-x="268" 
d="M206 0h-140l1 54l-5 740q7 3 25.5 2t56.5 -2t58 0q3 -112 3.5 -260.5t0 -270t0.5 -263.5z" />
    <glyph glyph-name="J" unicode="J" horiz-adv-x="353" 
d="M297 794q2 -146 1 -346t-11 -357q-2 -25 -10.5 -42.5t-25 -27.5t-33.5 -15.5t-44 -7t-46.5 -1t-52 1.5t-51.5 1q-5 49 -3 111q27 3 54 0.5t53.5 5t35.5 27.5q3 5 4.5 14t2.5 23.5t1.5 26t1 33.5t0.5 35q2 66 2.5 171t0 186.5t0.5 160.5q23 -1 44 -1t43 0.5t33 0.5z" />
    <glyph glyph-name="K" unicode="K" horiz-adv-x="476" 
d="M481 0h-139q-20 61 -59 165.5t-53 150.5q-15 -22 -35 -59.5t-29 -51.5q-1 -18 3 -83t1 -122h-124v797l121 -2q-5 -256 -1 -367q38 63 101.5 203t74.5 161q78 4 121 1q-13 -45 -40 -107.5t-68 -149t-48 -102.5q32 -67 60.5 -137t63 -163z" />
    <glyph glyph-name="L" unicode="L" horiz-adv-x="380" 
d="M365 0h-285l-8 5l-12 780l-1 10l116 -5l27 -669q63 -5 161 -1q1 -15 0.5 -58.5t1.5 -61.5z" />
    <glyph glyph-name="M" unicode="M" horiz-adv-x="777" 
d="M717 2l-133 -2l-2 496q-47 -106 -131 -320q-56 -145 -68 -166q-1 2 -6 2t-6 3q-35 71 -94 240.5t-91 238.5q14 -235 10 -494h-128l-8 793q13 0 59.5 2t62.5 1q25 -54 53 -121t47 -117l50.5 -132l47.5 -124l22 64l28.5 76.5l28 70.5l33 75.5l30.5 67.5l33.5 72l30.5 65
q91 0 115 2z" />
    <glyph glyph-name="N" unicode="N" horiz-adv-x="562" 
d="M507 793q3 -59 1 -194.5t-3.5 -197t-6.5 -199.5t-7 -202h-99q-29 53 -101.5 208t-120.5 233q2 -73 5 -220.5t5 -220.5h-126v795h84q180 -357 244 -498l-8 496h133z" />
    <glyph glyph-name="O" unicode="O" horiz-adv-x="478" 
d="M431 632q1 -15 3.5 -84.5l3.5 -99t2 -92t-1 -97.5t-6 -79.5t-12.5 -73.5t-20.5 -47q-20 -29 -39 -45.5t-55 -30.5q-6 0 -28 -0.5t-31.5 -0.5t-30 0.5t-31.5 2.5t-27.5 6t-27 10t-22 15.5t-18.5 21.5q-10 16 -17.5 43.5t-12 53t-7.5 69.5t-4 68t-2.5 75.5t-2.5 67.5
t-2.5 56t-2 62.5t-0.5 59t4 59.5t11 49t19.5 43t30.5 27q26 14 74 21.5t102.5 1.5t84.5 -29q63 -50 66 -133zM318 181q5 316 -10 458q-5 48 -80 43q-48 -14 -53 -53q-4 -222 18 -484q2 -26 30.5 -34.5t47.5 0.5q25 2 36 23.5t11 46.5z" />
    <glyph glyph-name="P" unicode="P" horiz-adv-x="395" 
d="M354 730q17 -124 -7 -301q-4 -32 -34.5 -55.5t-68.5 -33.5l-73 -5l-2 -335l-128 1q8 131 6.5 398t4.5 399q153 0 236 -10q20 -6 39 -22t27 -36zM253 669q-11 33 -90 33q0 -35 4 -126t4 -133q59 -5 75 18q13 18 16 88.5t-9 119.5z" />
    <glyph glyph-name="Q" unicode="Q" horiz-adv-x="510" 
d="M492 -71l-86 -72q-17 20 -49 63t-50 62q-6 0 -28 -0.5t-31.5 -0.5t-30 0.5t-31.5 2.5t-27.5 6t-27 10t-22 15.5t-18.5 21.5q-10 16 -17.5 43.5t-12 53t-7.5 69.5t-4 68t-2.5 75.5t-2.5 67.5t-2.5 56t-2 62.5t-0.5 59t4 59.5t11 49t19.5 43t30.5 27q26 14 74 21.5t103 1.5
t84 -29q63 -49 66 -133q1 -19 3.5 -85t3.5 -98.5t2 -92.5t-1 -96.5t-6 -80.5t-12.5 -73t-20.5 -47zM322 173q4 297 -13 465q-5 48 -80 43q-48 -14 -53 -53l3.5 -151t5.5 -183.5t9 -149.5q2 -26 27 -34.5t54 -6.5q25 1 36 22.5t11 47.5z" />
    <glyph glyph-name="R" unicode="R" horiz-adv-x="488" 
d="M478 37l-89 -56q-36 64 -84 166t-66 136l-53 2q-4 -33 -6.5 -83t-4.5 -113t-3 -89h-115q-1 340 8 795q49 -5 101.5 -1t105 -4t70.5 -34q51 -75 52 -138q5 -66 2.5 -136t-20.5 -128q-16 -25 -32 -32zM275 572q2 61 -22 93q-16 23 -75 11q3 -48 3.5 -151.5t1.5 -141.5
q5 1 17.5 1h18.5q24 2 38 14.5t15 30.5z" />
    <glyph glyph-name="S" unicode="S" horiz-adv-x="372" 
d="M316 695q-64 -9 -87 -27q-33 -24 -40.5 -73t18.5 -88l26 -37.5l32 -46.5t29.5 -50t27 -58t15.5 -58.5t4.5 -64.5t-15.5 -63t-36 -66q-68 -67 -259 -67l-2 128q15 -1 40 0t49 2.5t49.5 15t41.5 37.5q9 45 -1.5 87.5t-32.5 76t-46 64.5t-43 65.5t-21 66.5q-11 167 74 231
q48 35 158 44z" />
    <glyph glyph-name="T" unicode="T" horiz-adv-x="464" 
d="M447 676q-15 0 -69 -0.5t-80 -1.5q0 -48 2 -163t1 -178q0 -36 4 -154.5t1 -178.5h-135l2 28q4 62 6 126.5t1 142.5t-2 122.5t-4 138.5t-4 118q-8 2 -68 0.5t-71 -1.5q2 30 1.5 70.5t-0.5 43.5q57 3 127.5 3t157.5 -1.5t129 -1.5q1 -20 1 -113z" />
    <glyph glyph-name="U" unicode="U" horiz-adv-x="457" 
d="M414 794q-1 -63 4 -217t1.5 -272t-24.5 -214q-28 -61 -128 -91q-110 -5 -180 71q-8 9 -14.5 22t-10.5 32.5t-7 35.5t-5 42.5t-3 42.5t-2 46t-2 42q-13 302 -7 461l121 -1l1 -146q0 -37 -1 -121.5t-0.5 -132t6 -113.5t17.5 -117q20 -40 59 -37.5t52 47.5q10 81 12.5 194
t0 210t0.5 216h110z" />
    <glyph glyph-name="V" unicode="V" horiz-adv-x="526" 
d="M518 766q-20 -90 -84 -355.5t-95 -409.5l-118 -3l-213 767v-1l125 31q16 -56 44 -179t47 -188l18 -62l20 -70.5l17 -63.5l10 64q14 87 30 167t42.5 193l32.5 140z" />
    <glyph glyph-name="W" unicode="W" horiz-adv-x="809" 
d="M797 763l-53 -216l-78.5 -322.5t-50.5 -224.5h-94q-17 56 -98 407l-14 128q0 -40 -14 -118q-6 -32 -46 -190l-60 -232q-12 2 -44.5 3t-41.5 2q-41 137 -103 404t-88 362l119 32l24 -60q12 -30 24.5 -72t22 -78t20 -85.5l16 -76.5t13.5 -70t9 -49q45 239 107 484l93 3
q20 -159 59 -330t42 -196q67 360 118 528z" />
    <glyph glyph-name="X" unicode="X" horiz-adv-x="584" 
d="M568 740q-55 -131 -184 -345q96 -184 161 -362q-13 -16 -54.5 -39.5t-47.5 -28.5l-18 33q-64 117 -132 263q-25 -66 -69.5 -148.5t-89.5 -147.5l-118 66l209 364q-32 50 -63.5 110.5t-63 128l-45.5 95.5q14 14 56.5 37t53.5 31l34.5 -68l40.5 -79l35 -70t29 -64
l44.5 80.5l62.5 112t53 87.5z" />
    <glyph glyph-name="Y" unicode="Y" horiz-adv-x="569" 
d="M556 737l-192 -272l17 -461q-12 -8 -60.5 -4t-66.5 0l-14 448l-227 257l95 83q21 -21 83 -95t101 -116q39 42 96.5 121t70.5 94z" />
    <glyph glyph-name="Z" unicode="Z" horiz-adv-x="484" 
d="M456 0q-57 -4 -120.5 -4t-140.5 2t-119 2q15 76 83 329.5t89 342.5q-44 2 -121.5 -1t-98.5 -3q1 18 1.5 48t1.5 49t4 27q61 -3 196 0.5t186 -0.5q-15 -58 -47.5 -194.5l-62.5 -251t-63 -220.5q81 -7 201 4q13 -58 11 -130z" />
    <glyph glyph-name="bracketleft" unicode="[" horiz-adv-x="421" 
d="M356 -156q-125 -4 -243 0q-2 107 -4 1131q222 -5 237 -6q1 -34 0 -110q-27 -9 -120 -9q9 -282 5 -888q80 -3 121 -9z" />
    <glyph glyph-name="backslash" unicode="\" horiz-adv-x="469" 
d="M370 -35l-104 -17l-26.5 107.5l-26.5 106.5q-24 104 -82 328.5t-92 376.5q20 8 58 18t50 14q18 -87 48.5 -207l35.5 -139z" />
    <glyph glyph-name="bracketright" unicode="]" horiz-adv-x="430" 
d="M286 974q2 -127 -1 -367q-1 -57 -4 -203.5t-4 -276t0 -279.5l-245 5q2 15 1 58.5t3 55.5q16 0 58.5 -2t59.5 -2q0 664 -5 903l-121 5l4 109q173 -6 254 -6z" />
    <glyph glyph-name="asciicircum" unicode="^" horiz-adv-x="560" 
d="M498 537q-17 -14 -50 -33t-45 -27q-30 47 -64.5 107t-48.5 80q-62 -101 -103 -184q-58 25 -99 59l202 338q104 -143 208 -340z" />
    <glyph glyph-name="underscore" unicode="_" horiz-adv-x="783" 
d="M672 -34q1 -30 -1 -110l-568 3q0 13 -0.5 52t-1.5 57q40 2 274 0t297 -2z" />
    <glyph glyph-name="grave" unicode="`" horiz-adv-x="364" 
d="M305 678l-61 -52l-40 47l-36.5 42.5t-32.5 42.5l86 72q73 -131 84 -152z" />
    <glyph glyph-name="a" unicode="a" 
d="M387 0h-124l2 62q-104 -56 -172 -26q-38 27 -40.5 102t22.5 113q31 53 190 61q0 9 -0.5 31t-1 40t-2 37.5t-5.5 33t-11 17.5q-25 16 -146 16q-2 70 0 110q62 7 137 -1t97 -30q17 -17 28 -44q7 -17 9.5 -108.5t5.5 -216.5t11 -197zM267 232q-52 1 -75 -9q-41 -18 -48 -53
q-1 -36 9 -49.5t43 -13.5q31 5 44 12t20.5 33t6.5 80z" />
    <glyph glyph-name="b" unicode="b" horiz-adv-x="401" 
d="M359 384q-1 -32 0 -63.5t0 -68t-3 -69.5t-8 -66.5t-15 -59.5q-22 -25 -57.5 -31t-60.5 6q-34 12 -50 23q3 -22 0 -60q-9 -1 -51.5 -0.5t-52.5 0.5q-5 122 -10 403.5t-9 397.5q11 1 37 2t44 1h21l2 -31q3 -44 3.5 -116.5t3.5 -96.5q29 14 75 22q23 6 51 3.5t47 -19.5
q35 -61 33 -177zM258 173q4 6 2 112.5t-15 159.5q-8 25 -39.5 22.5t-45.5 -24.5q3 -50 3 -147t5 -139q87 -21 90 16z" />
    <glyph glyph-name="c" unicode="c" horiz-adv-x="319" 
d="M281 107v-47t-2 -60q-43 5 -63 8t-58 12t-60.5 25t-32.5 39q-16 40 -18 94q-1 28 -4 90.5t-3 91.5t6 72.5t20 77.5q17 41 80.5 61.5t120.5 12.5v-43v-65q-10 -3 -31 -4.5t-34.5 -3.5t-28 -12.5t-20.5 -31.5t-6 -56t3.5 -63t11 -76.5t9.5 -67.5q9 -20 30 -32t35 -15t45 -7
z" />
    <glyph glyph-name="d" unicode="d" horiz-adv-x="416" 
d="M380 1l-97 -6l-5 60q-4 -3 -13 -8.5l-13 -8t-10.5 -6t-13 -5.5t-13.5 -3q-5 -1 -20 -3.5t-21 -3t-19 -2t-20.5 -0.5t-17 3t-16.5 7t-13 12q-56 99 -50 328q-3 51 11 108.5t59 86.5q69 45 156 10q0 43 1 98.5t2 79t-1 52.5l106 -2q-4 -168 -3 -252t5.5 -267.5t5.5 -277.5z
M274 141q-1 39 -7.5 150t-6.5 171q-22 15 -62.5 12.5t-47.5 -34.5q-12 -54 -5.5 -162t21.5 -130q13 -19 51 -21.5t57 14.5z" />
    <glyph glyph-name="e" unicode="e" horiz-adv-x="373" 
d="M334 303l-2 -22q-20 -1 -88 -1.5t-100 -2.5q1 -9 1 -50t5 -69t19 -42q48 -21 140 -15l1 -112q-169 -16 -218 32q-27 26 -40 82t-14.5 100t-0.5 113q1 30 0 62.5t2 66t9 61t22 48t41 27.5q103 12 143 3q38 -9 56 -35q14 -20 20 -53.5t6.5 -58.5t-1 -71.5t-1.5 -62.5z
M248 464q0 19 -15.5 31t-36.5 12q-13 0 -22.5 -4t-15 -12.5t-8.5 -15.5t-4 -21l-1.5 -21t0.5 -22t1 -18q1 -2 47 -2h54z" />
    <glyph glyph-name="f" unicode="f" horiz-adv-x="355" 
d="M312 797q2 -13 -0.5 -45.5t-1.5 -47.5q-3 0 -16 -2t-18 -3t-16.5 -3.5t-17.5 -5t-14.5 -7.5t-12.5 -11t-7.5 -14.5t-3.5 -18.5q-3 -53 -2 -57l102 -2q1 -24 2.5 -51t2.5 -34t0 -14q-14 -3 -41 -3.5t-46.5 -1t-19.5 -1.5l8 -475h-112l-6 477h-20.5h-14.5h-11q-7 -4 -3 106
h1h4h6h8h9.5t10 0.5t10.5 0.5q1 10 1.5 36t3 46t9.5 44t25 42t45 26q62 19 136 19z" />
    <glyph glyph-name="g" unicode="g" horiz-adv-x="428" 
d="M420 585q-21 -14 -53 -42.5t-43 -37.5q5 -64 1.5 -161t-28.5 -151q-10 -21 -36 -32.5t-50 -13.5q0 -42 6 -55q13 -13 46.5 -13t66.5 -6t48 -31q25 -42 28 -103t-24 -91q-17 -16 -45.5 -26t-70 -12.5t-69.5 -2.5t-79.5 3t-63.5 3v100q21 0 58.5 -0.5t66 -1t57.5 0t47 4.5
t22 11q13 22 5.5 39t-38.5 18q-18 4 -56 4.5t-63.5 4.5t-32.5 19q-17 35 -17.5 73.5t6.5 75.5q-67 35 -72 127q-8 133 9 236q7 48 76 72q51 9 127 -7l109 81q40 -31 62 -85zM219 473q3 27 -17 37t-42 -0.5t-22 -32.5l-2 -139q0 -31 1.5 -46t4 -19t9.5 -9q9 -9 33 -5.5
t28 21.5q7 52 7 193z" />
    <glyph glyph-name="h" unicode="h" horiz-adv-x="462" 
d="M419 239l-3 -241q-17 0 -53 1t-55 1l4 399q1 40 -30.5 54t-58.5 3q-20 -9 -32.5 -29.5t-16 -46.5t-5 -57t0.5 -59q4 -165 0 -265h-116q-6 459 2 781q8 1 53.5 9t64.5 8q2 -23 2 -251q48 30 92.5 35.5t93.5 -9.5q15 -12 26 -29.5t17 -43t10 -44t5 -54.5t1 -52t-1 -58
t-1 -52z" />
    <glyph glyph-name="i" unicode="i" horiz-adv-x="278" 
d="M177 768q21 -36 -12 -87q-13 -13 -34.5 -15.5t-38.5 8.5q-24 15 -34.5 37.5t-2.5 47.5q8 27 33 36.5t51 1.5t38 -29zM207 0q-18 -1 -59.5 -1t-63.5 -1q-13 273 -11 582q14 0 51.5 2t56.5 2q24 -185 26 -584z" />
    <glyph glyph-name="j" unicode="j" horiz-adv-x="318" 
d="M239 737q14 -25 10 -48t-22 -39q-14 -12 -34.5 -14.5t-38.5 7.5q-50 31 -32 83q12 35 56.5 37.5t60.5 -26.5zM243 571l-2 -289q0 -46 0.5 -94.5t1 -72.5t-1.5 -65t-8 -95q-11 -105 -208 -105q0 69 2 111h23.5t25 1t18.5 4.5t16 11.5t6 21q8 234 8 301t-5 271h124z" />
    <glyph glyph-name="k" unicode="k" horiz-adv-x="474" 
d="M445 35l-42 -24.5l-53 -30.5q-71 119 -123 271q-10 -12 -25 -35t-28 -36q-3 -90 3 -182h-114l-19 787q14 2 106 24q2 -21 7.5 -91t8.5 -115.5t6.5 -115.5t3.5 -129q70 140 130 230q35 -17 83 -59q-14 -25 -43.5 -88t-47.5 -95q20 -51 72 -154.5t75 -156.5z" />
    <glyph glyph-name="l" unicode="l" horiz-adv-x="299" 
d="M275 -15q-103 0 -143 15q-58 21 -64 76q-10 100 -11 224t2 228l3 269q18 2 62 2.5t64 3.5q-1 -59 -4 -212t-3 -222t3 -235q0 -13 5 -21t16 -11.5t19 -4.5t25.5 -1h23.5q6 -85 2 -111z" />
    <glyph glyph-name="m" unicode="m" horiz-adv-x="667" 
d="M623 0q-10 0 -34.5 1t-46 1t-38.5 -2q-6 79 -2.5 145t0 148.5t-20.5 141.5q-25 37 -76 4l-10 -18q1 -47 9 -195.5t6 -225.5q-49 -3 -132 3q-4 54 -4 212.5t-11 217.5q-7 11 -24.5 12.5t-26.5 -6.5q-28 -11 -45 -44v-396l-119 1q-11 380 -6 584q17 2 60.5 2t64.5 1l5 -73
q2 2 20 14.5t26 17l26 14.5t31 12.5t30 4.5t32.5 -3.5t29.5 -17.5q4 -4 9 -10t7.5 -8t6 -4t7 -0.5t8.5 5.5q54 48 127 37q44 0 65 -62q16 -70 21.5 -164.5t3 -175t1.5 -174.5z" />
    <glyph glyph-name="n" unicode="n" horiz-adv-x="454" 
d="M409 0l-115 -1q4 225 -8 444q-5 8 -10.5 13.5t-12.5 7.5t-13.5 3t-15.5 -1t-15 -3.5t-15.5 -6l-14.5 -7t-14 -8t-12 -6.5q-1 -93 -0.5 -141t2 -147t1.5 -149q-5 -3 -60.5 -1.5t-58.5 1.5l4 601q22 -1 62 1.5t52 2.5q-1 -16 2 -67q3 1 21 10.5l23 12t21.5 10t24.5 9
l23.5 4.5t25.5 2t23.5 -4t25.5 -10q16 -15 27 -36t16.5 -39t8 -46.5t2.5 -44t-0.5 -48t-0.5 -43.5q0 -8 2 -148t-1 -165z" />
    <glyph glyph-name="o" unicode="o" horiz-adv-x="412" 
d="M374 241v-54v-47t-1 -39.5t-3 -31t-5 -20.5q-16 -34 -53.5 -45t-105.5 -11q-151 0 -158 74t-7 225q0 28 -1 69.5t-1.5 75.5t-0.5 68q1 42 31 59.5t84 21.5q31 1 73 2t83.5 -13t49.5 -41q5 -17 7.5 -30.5t4 -29t2 -23.5t0.5 -29.5v-30.5q1 -48 1 -150zM260 104
q5 27 4.5 138.5t-5.5 208.5q-1 21 -17.5 32.5t-36 11t-35.5 -13t-16 -34.5q0 -336 11 -355q7 -12 28.5 -17t42 2.5t24.5 26.5z" />
    <glyph glyph-name="p" unicode="p" horiz-adv-x="428" 
d="M387 294v-37.5t-0.5 -45t-1.5 -43.5t-3 -45t-5.5 -36.5t-9.5 -32t-13 -18.5q-21 -17 -86 -17.5t-110 14.5q-1 -45 5 -129t5 -97l-125 1q-11 405 -11 784q15 -1 54.5 0.5t50.5 -0.5q1 -9 2 -25.5t3 -26.5q25 12 41.5 18.5t41 13t48 6t45.5 -7.5q24 -13 40 -33t23 -40
t9.5 -49t1.5 -50.5t-3 -54t-2 -49.5zM275 414q-1 31 -16.5 44t-37 10t-41 -11.5t-34.5 -19.5l6 -276q13 -19 28 -28q13 -6 27 -9.5t30 -1t22 14.5q26 49 16 277z" />
    <glyph glyph-name="q" unicode="q" horiz-adv-x="456" 
d="M414 -187q-18 -2 -126 -2q-1 7 -2 39.5t-2.5 87.5t-2.5 87q-4 -1 -21 -6.5t-23.5 -7t-22 -5.5t-24 -5.5t-22.5 -3t-24.5 -1t-23 2.5t-24.5 6l-33 30q-43 211 -13 456q5 37 48 55.5t83 14.5q15 -2 30.5 -8t34.5 -15l28 -13q0 21 4 67l118 -16q9 -289 18 -763zM281 118
q0 225 -7 315q-24 20 -85 24q-16 3 -23.5 -7.5t-9.5 -27.5q1 -21 3 -101t8.5 -129t23.5 -93q35 -12 90 19z" />
    <glyph glyph-name="r" unicode="r" horiz-adv-x="367" 
d="M353 508l-172 -76q-1 -164 -1 -432q-73 -3 -126 0q1 238 15 642l111 -1v-87l154 34q3 -11 19 -80z" />
    <glyph glyph-name="s" unicode="s" horiz-adv-x="324" 
d="M263 495q-33 -10 -45 -15.5t-21.5 -17.5t-10.5 -34q-2 -40 10.5 -71t33.5 -65t31 -63q19 -67 12 -118t-32 -75q-19 -19 -48.5 -31t-52 -15.5t-52 -6t-35.5 -3.5l-16 113q10 2 32 3.5t35.5 4t28 10t19.5 23.5t0 42q-5 27 -26.5 61t-43 78t-29.5 99q-5 33 13.5 76.5
t49.5 68.5q17 13 36.5 22t31 12.5t46.5 12.5z" />
    <glyph glyph-name="t" unicode="t" horiz-adv-x="355" 
d="M319 90l-3 -104q-112 -25 -197 25q-9 7 -14.5 16t-10.5 19.5t-9 16.5q-10 79 -13 239.5t-4 173.5q-41 0 -63 2q0 40 -2 114l72 1l-2 170l118 -2v-161q0 -1 39.5 -1.5t68.5 0.5q2 -15 3 -57t3 -58q-35 2 -112 0v-30l6 -295q4 -24 11.5 -38.5t21.5 -20.5t23 -7.5t31.5 -1.5
t32.5 -1z" />
    <glyph glyph-name="u" unicode="u" horiz-adv-x="460" 
d="M397 -11q-19 -2 -54 -2t-50 -1l-8 68q-27 -17 -56.5 -28t-64 -9t-53.5 26q-19 14 -37 53q-18 68 -23.5 149.5t-5 193t-1.5 151.5l120 -2q4 -80 2 -143t1 -140t15 -137q7 -38 65 -40q35 -2 46 38l-11 420q14 1 38.5 3t43 3t33.5 0q4 -144 0 -603z" />
    <glyph glyph-name="v" unicode="v" horiz-adv-x="447" 
d="M427 568q-13 -72 -56 -267.5t-63 -302.5q-90 0 -110 -1q-20 68 -86.5 263t-91.5 306q17 5 36.5 12t35.5 11t39 7q33 -130 114 -382q5 -8 7 4q10 74 37.5 208.5t33.5 170.5z" />
    <glyph glyph-name="w" unicode="w" horiz-adv-x="702" 
d="M673 579q-29 -100 -64 -300t-58 -279h-91q-10 42 -38.5 176t-49.5 212q-24 -65 -55 -196t-54 -194q-13 0 -45 1t-47 1l-142 582q27 9 110 27l23.5 -105.5l28.5 -125t27 -100.5l94 326q65 0 95 -3q26 -64 59 -191l39 -149q9 39 24 109.5t28.5 126.5t29.5 105z" />
    <glyph glyph-name="x" unicode="x" horiz-adv-x="435" 
d="M413 556q-15 -43 -37.5 -89t-53.5 -101.5t-46 -85.5q60 -138 115 -237q-9 -5 -27 -18t-33 -22t-31 -14q-16 29 -44 95t-44 94q-10 -22 -91 -187q-39 16 -92 57l113 232q-70 172 -120 256q34 20 108 41l28 -58t33.5 -71.5t23.5 -60.5q20 32 52.5 110t52.5 110
q12 -2 26 -8.5t20 -10t25.5 -17.5t21.5 -15z" />
    <glyph glyph-name="y" unicode="y" horiz-adv-x="482" 
d="M449 581l-235 -774l-42 12t-54 17q2 37 28.5 135.5t32.5 141.5q-19 79 -60.5 213.5t-54.5 181.5q-16 57 -25 80q19 2 52 12t46 13q25 -57 56 -165t50 -157q18 46 55.5 157t57.5 162q16 -8 46.5 -13t46.5 -16z" />
    <glyph glyph-name="z" unicode="z" horiz-adv-x="389" 
d="M357 0q-48 -2 -144.5 -1t-144.5 0q18 86 60 255l57 233q-10 1 -73 0t-80 -1q2 16 -0.5 55t0.5 56q18 0 83.5 4t99.5 3l118 -3q-10 -57 -25.5 -124.5t-26.5 -109l-34 -125.5l-30 -111q22 -3 56 -4.5t56 -2t22 -1.5z" />
    <glyph glyph-name="braceleft" unicode="{" horiz-adv-x="420" 
d="M357 -154q-17 0 -51.5 -2t-51.5 -2q-9 0 -17 0.5t-13.5 2t-12.5 4.5t-10 4.5t-10 5.5t-9 5q-40 28 -40 97q0 91 -5 219t-15 141q-6 7 -13.5 11.5t-14.5 6t-18.5 3.5t-19.5 4q-5 60 2 108q50 6 68 26q6 20 6 363q0 32 9 51.5t32 41.5q13 12 34.5 21t37.5 11q29 3 107 0
l4 -102h-10q-10 -1 -23 -2t-26.5 -4t-24 -9.5t-11.5 -16.5q-5 -36 -5.5 -79.5t0.5 -106t1 -99.5q0 -29 -1 -44.5t-7 -36t-18 -32.5q-27 -28 -80 -38q47 -8 64 -29q45 -51 45 -101q0 -29 -3.5 -115.5t-2.5 -132t10 -51.5q4 -3 10 -5t12 -3.5t13 -2.5t13.5 -1.5t12.5 -0.5h11
t9 0.5t6 0.5h2q4 -13 3 -49t1 -62z" />
    <glyph glyph-name="bar" unicode="|" horiz-adv-x="374" 
d="M247 -158h-121l3 106l-5 1025q24 2 66 0.5t55 -0.5q4 -289 2 -1131z" />
    <glyph glyph-name="braceright" unicode="}" horiz-adv-x="412" 
d="M327 370q-45 -5 -66 -33q-10 -13 -15 -149t-5 -230q0 -36 -28.5 -70.5t-72.5 -38.5q-37 -3 -113 -1q3 23 2.5 55.5t0.5 47.5q69 0 92 16q6 4 9 22t3.5 51.5t0.5 61.5t-1 75t-1 68q0 39 7.5 81t21.5 58q16 19 67 32q-55 19 -72 36q-26 26 -26 124q0 34 2 99.5t0.5 104.5
t-10.5 68q-3 11 -16.5 16t-26.5 5.5t-32 0t-24 -0.5l2 99q38 4 110 2q43 -2 74 -16q41 -36 41 -105q0 -318 6 -353q16 -18 70 -25q6 -37 0 -101z" />
    <glyph glyph-name="asciitilde" unicode="~" horiz-adv-x="622" 
d="M555 375q-46 -54 -85.5 -72t-86.5 -15q-39 2 -89 29t-77 27q-63 -2 -112 -52l-54 74q50 47 84 66.5t77 19.5q41 0 96 -26.5t79 -26.5q60 0 110 53z" />
    <glyph glyph-name="nbspace" unicode="&#xa0;" horiz-adv-x="244" 
 />
    <glyph glyph-name="exclamdown" unicode="&#xa1;" horiz-adv-x="250" 
d="M217 503q-10 -34 -39.5 -46t-60 -1.5t-45.5 35.5q-12 20 -13.5 38t4 31.5t17.5 33.5q18 17 48 22.5t54 -7.5q58 -34 35 -106zM189 379q5 -351 -5 -579q-37 -5 -118 -5l2 244q0 56 3.5 172.5t3.5 176.5z" />
    <glyph glyph-name="cent" unicode="&#xa2;" horiz-adv-x="319" 
d="M53 58q11 -27 41.5 -39t86.5 -21v-83h35l-1 80q42 -3 80 -2q2 19 2 53.5v42.5q-43 -1 -82 4l-6 379q29 2 69 1v54v38q-38 5 -72 3l2 83h-40v-85q-96 -11 -118 -64q-26 -69 -23.5 -228t26.5 -216zM179 97q-15 5 -32 17.5t-22 23.5q-16 42 -14.5 143t14.5 145
q5 17 17.5 29.5t27.5 16.5z" />
    <glyph glyph-name="sterling" unicode="&#xa3;" horiz-adv-x="380" 
d="M368 738l-50 -90q-37 28 -67 30t-50 -11q-39 -18 -19 -130q12 -41 21 -84q28 2 114 2q0 -23 -1 -54l-99 2q7 -59 3 -144t-18 -138q63 -5 161 -1q1 -15 0.5 -58.5t1.5 -61.5h-310l-8 5q31 82 42.5 192.5t4.5 202.5h-89v54q12 0 37.5 0.5t39.5 0.5q-8 40 -14 58
q-9 75 -6.5 105.5t23.5 94.5q7 22 28.5 45t40.5 28q45 15 112 2t102 -50z" />
    <glyph glyph-name="currency" unicode="&#xa4;" horiz-adv-x="462" 
d="M48 388l50 3q0 19 2 67l-51 -3v50l54 3q7 90 18 157q9 51 37 74t86 40q55 22 177 18l-3 -114h-26h-28.5t-25.5 -1t-27 -3.5t-23 -7t-22 -11.5t-16.5 -17.5t-13.5 -23.5q-6 -72 -7 -111l128 3v-50l-131 -3q0 -12 -0.5 -33.5t-0.5 -33.5l129 5v-44l-128 -7q1 -64 6 -134
q9 -115 179 -99q-1 -17 -1.5 -52.5t-2.5 -65.5q-264 0 -289 100q-19 77 -21 250l-51 -4z" />
    <glyph glyph-name="yen" unicode="&#xa5;" horiz-adv-x="569" 
d="M556 737l-126 -263l96 1l6 -49l-133 -1l-29 -44l3 -57l157 1q0 -37 -1 -44q-35 1 -58 0t-49.5 -3.5t-50.5 -3.5l10 -270q-12 -8 -60.5 -4t-66.5 0l-11 275q-161 5 -192 4q2 44 2 46l191 -1l-6 61l-32 45l-152 -3l1 48l119 3l-161 227l95 83q19 -19 88.5 -124t110.5 -149
q30 43 80.5 147.5t71.5 129.5z" />
    <glyph glyph-name="brokenbar" unicode="&#xa6;" horiz-adv-x="304" 
d="M202 500h-98q-1 39 -1 297q16 -1 49.5 -1h48.5zM201 1h-98q-1 38 -1 297h49t49 -1z" />
    <glyph glyph-name="section" unicode="&#xa7;" horiz-adv-x="446" 
d="M418 328q6 -24 8 -44t-1.5 -39t-7 -29.5l-10.5 -30.5q-21 -56 -70 -92q19 -23 28 -40q2 -3 11 -21q1 -7 4 -22.5t3.5 -20t2 -16.5t0.5 -18t-2 -17t-4 -21.5t-8 -24.5q-6 -19 -32.5 -39t-47.5 -26q-14 -4 -40.5 -4.5t-61.5 3t-72.5 20t-62.5 42.5q10 14 21.5 34.5
l18.5 33.5l7 14q40 -30 74 -41t52 -3q46 20 37 70q-8 27 -30 50.5t-78 72.5l-24 20l-24.5 20.5t-20 22t-25.5 36.5q-25 39 -29.5 62.5t-2.5 92.5q1 33 26.5 71.5t45.5 53.5q-17 17 -25.5 31.5t-14.5 45.5q-9 46 -8 67.5t13 66.5q5 21 30 44.5t53 30.5q35 7 74.5 8t86.5 -18
t80 -57l-50 -73q-8 4 -25 14t-27.5 15.5t-29.5 12.5t-30.5 5.5t-31.5 -6.5q-22 -10 -28 -38.5t5 -52.5q10 -24 21 -38.5t20.5 -22t38.5 -28l54 -39.5q91 -70 109 -138zM328 274q-7 25 -22 46t-25.5 31.5t-47.5 39.5l-54 43q0 -1 -7 -9t-9 -11l-7.5 -11.5t-7.5 -15l-5 -17
t-4 -22.5t0 -26q2 -43 132 -156q27 18 45.5 52t11.5 56z" />
    <glyph glyph-name="dieresis" unicode="&#xa8;" horiz-adv-x="383" 
d="M321 748q18 -56 -30 -85q-18 -10 -43 -6t-38 18q-10 16 -15 26.5t-5 25.5t9 30q12 21 38 29t51 -1.5t33 -36.5zM157 755q21 -36 -12 -87q-13 -13 -34.5 -15.5t-38.5 8.5q-24 15 -34.5 37.5t-2.5 47.5q8 27 33 36.5t51 1.5t38 -29z" />
    <glyph glyph-name="copyright" unicode="&#xa9;" horiz-adv-x="583" 
d="M543 310q0 -61 -13 -165q-43 -142 -206 -144q-93 -1 -155 28t-96 109q-21 49 -27 112q0 5 -1 14t-1.5 16.5t-0.5 14.5l-1 -1v28q0 4 -0.5 9t-0.5 10q-4 82 2.5 124.5t26.5 88.5q67 155 263 140q98 -7 143.5 -59t56.5 -139q10 -86 10 -186zM434 174q20 153 0 309
q-7 52 -29.5 79.5t-78.5 31.5q-127 9 -164 -79q-15 -36 -19.5 -69t-1.5 -101q1 -18 2.5 -42t1.5 -41q6 -52 20 -85q11 -26 25 -41t47 -25.5t86 -9.5q50 1 75 18.5t36 54.5zM359 214v-37t-1 -38q-41 5 -61 8t-50 16.5t-39 34.5q-11 27 -13 66q0 20 -2.5 63t-2.5 64t4 51
t14 54q12 29 57 43.5t84 8.5v-30v-46q-6 -2 -28 -3t-34.5 -8t-17.5 -25q-5 -15 -4.5 -39.5t3 -43.5t7.5 -54t7 -47q6 -14 21 -22.5t25 -10.5t31 -5z" />
    <glyph glyph-name="ordfeminine" unicode="&#xaa;" horiz-adv-x="359" 
d="M315 322q-2 0 -26.5 -1t-39 -1t-19.5 1l2 41l-33 -16t-33 -11t-41 -3t-43 12q-39 27 -42.5 100.5t21.5 111.5q18 31 62 42t109 14q0 3 -0.5 16t-1.5 21t-5.5 18.5t-12.5 15.5q-25 16 -130 16q0 7 1 35.5t-1 39.5q42 8 104 0.5t84 -28.5q24 -24 30 -41q7 -21 8 -87.5
t1.5 -155t5.5 -140.5zM350 289q0 -61 -1 -87l-296 -1v87q38 1 297 1zM230 525q-70 -2 -83 -7q-29 -13 -36 -48q-1 -36 9 -49.5t43 -13.5q44 6 55 23t12 95z" />
    <glyph glyph-name="guillemotleft" unicode="&#xab;" horiz-adv-x="679" 
d="M579 203l-61 -77l-135.5 124.5l-104.5 98.5q6 10 27 32.5l51 53l55.5 56l55.5 55l37 36.5q40 -34 69 -78q-27 -26 -75 -77.5t-75 -77.5q10 -10 75 -69.5t81 -76.5zM351 199l-61 -77l-135.5 124.5l-104.5 98.5q6 10 27 32.5l51 53l55.5 56l55.5 55l37 36.5q40 -34 69 -78
q-27 -26 -75 -77.5t-75 -77.5q10 -10 75 -69.5t81 -76.5z" />
    <glyph glyph-name="logicalnot" unicode="&#xac;" horiz-adv-x="465" 
d="M441 3q-13 -1 -52 -1t-59 -1q-1 23 -1 64t-1 76.5t-4 71.5q-53 4 -103 4t-109 -1.5t-91 -1.5l2 106q154 4 269 4q21 0 68 -4t55 -4q9 -43 13 -69t8.5 -89t4.5 -155z" />
    <glyph glyph-name="registered" unicode="&#xae;" horiz-adv-x="575" 
d="M542 299q0 -81 -20 -154q-40 -142 -206 -144q-93 -1 -155 28t-96 109q-25 61 -30 157q-10 172 27 259q67 155 263 140q97 -7 143 -59t57 -139q17 -145 17 -197zM426 174q13 42 14.5 104t-2 99.5t-12.5 105.5q-7 52 -29.5 79.5t-78.5 31.5q-127 9 -164 -79
q-15 -36 -19.5 -69t-1.5 -101q1 -18 2.5 -42t1.5 -41q6 -52 20 -85q11 -26 25 -41t47 -25.5t86 -9.5q50 1 74.5 18.5t36.5 54.5zM398 176l-62 -33q-13 23 -32 76t-37 73q-2 -18 -8 -143h-65q-1 178 4 397q25 -2 53 0t57 -2t37 -17q24 -36 26 -69q0 -13 2.5 -42t1 -47
t-7.5 -38q-18 -27 -29 -32zM311 425q0 28 -11 45q-9 12 -37 5q1 -15 1 -63t1 -72q26 1 35.5 9.5t9.5 27.5z" />
    <glyph glyph-name="macron" unicode="&#xaf;" horiz-adv-x="419" 
d="M358 762q0 -61 -1 -78l-296 -1v78q38 1 297 1z" />
    <glyph glyph-name="degree" unicode="&#xb0;" horiz-adv-x="302" 
d="M264 691q0 -52 -40 -81q-62 -57 -148 -5q-46 29 -37 87q19 107 107 107q49 0 83.5 -30.5t34.5 -77.5zM180 691q0 15 -10 24.5t-24 9.5t-24 -9.5t-10 -24.5q0 -16 6.5 -25.5t27.5 -15.5q14 0 24 13t10 28z" />
    <glyph glyph-name="plusminus" unicode="&#xb1;" horiz-adv-x="529" 
d="M448 357h-132q0 -119 -1 -161q-15 2 -54 2t-55 1l-2 158l-134 -3q-3 11 -2 54.5t0 53.5q20 2 136 2l-2 147h109q0 -6 1 -50.5t1 -96.5q49 0 86 1.5t49 1.5q4 -51 0 -110zM453 146q0 -66 -2 -106l-384 -1v106q33 1 386 1z" />
    <glyph glyph-name="twosuperior" unicode="&#xb2;" horiz-adv-x="365" 
d="M313 257h-250v154q2 16 5.5 29.5t5.5 23t7.5 20t7.5 15.5t10.5 15.5l10.5 13l13 15.5t14 16q9 10 30.5 28t33.5 32.5t10 27.5q-9 63 -70 60q-4 0 -8.5 -2t-10.5 -7t-10 -9l-13.5 -14l-15.5 -16l-44 64l19.5 20l18.5 19t17.5 14.5t22 13t25 6.5t33.5 3q61 0 104 -62
q21 -31 24.5 -50.5t-4.5 -67.5q-3 -7 -6 -17q-4 -15 -11 -24.5t-45 -51.5q-5 -6 -8 -9q-4 -5 -14.5 -15t-15.5 -16t-12.5 -16t-12.5 -22t-9 -27q-2 -38 -2 -64h50.5h56.5h43q2 -19 -0.5 -49.5t0.5 -50.5z" />
    <glyph glyph-name="threesuperior" unicode="&#xb3;" horiz-adv-x="365" 
d="M296 458q10 -92 -23 -156q-16 -30 -51 -47.5t-55 -13.5q-29 1 -47.5 5.5t-26.5 9.5t-26 19t-32 23l44 69q50 -35 67 -37q30 -2 49 15t18 53q-2 57 -13.5 77t-55.5 20h-35l-1 81q56 1 81.5 16t23.5 50q1 36 -18 53t-49 15q-17 -2 -67 -37l-44 69q14 9 32 23t26 19
t26.5 9.5t47.5 5.5q19 3 56 -18t53 -51q18 -35 21 -58.5t-7 -76.5q-8 -38 -59 -59q22 -10 42.5 -33t22.5 -45z" />
    <glyph glyph-name="acute" unicode="&#xb4;" horiz-adv-x="364" 
d="M259 780q-17 -22 -46 -64.5t-56 -74.5l-70 38q17 31 38.5 76t40.5 77z" />
    <glyph glyph-name="mu" unicode="&#xb5;" horiz-adv-x="479" 
d="M416 -11q-19 -2 -54 -2t-50 -1l-8 68q-33 -24 -59 -20t-62 45l-5 -265h-111q-4 130 -2.5 423.5t-1.5 352.5l120 -2q4 -79 2 -137.5t1 -130t15 -131.5q12 -66 65 -61q35 -1 46 38l-11 420q14 1 38.5 3t43 3t33.5 0q4 -144 0 -603z" />
    <glyph glyph-name="paragraph" unicode="&#xb6;" horiz-adv-x="495" 
d="M248 396q-56 4 -99 30t-64 63.5t-28.5 82.5t8.5 86q25 76 64 100t112 24zM434 0h-26h-53.5h-43.5l-23 782l133 5q-1 -65 9 -376.5t4 -410.5z" />
    <glyph glyph-name="periodcentered" unicode="&#xb7;" horiz-adv-x="232" 
d="M198 350q-11 -34 -42 -46t-63 -1.5t-47 35.5q-33 55 15 103q18 17 45.5 22t51.5 -7q62 -36 40 -106z" />
    <glyph glyph-name="cedilla" unicode="&#xb8;" horiz-adv-x="271" 
d="M233 -56q-50 -120 -84 -178q-57 29 -98 48l98 150q13 -4 41.5 -10t42.5 -10z" />
    <glyph glyph-name="onesuperior" unicode="&#xb9;" horiz-adv-x="365" 
d="M218 258q-1 0 -19.5 1t-40.5 1t-42 -2q0 78 1.5 193.5t2.5 164t0 77.5l-25.5 -15l-26.5 -15.5t-10 -5.5q-21 42 -38 65l108 71h84l6 -323v-212z" />
    <glyph glyph-name="ordmasculine" unicode="&#xba;" horiz-adv-x="351" 
d="M319 479q-1 -71 -14 -98q-17 -36 -43 -46.5t-87 -10.5q-26 0 -40 1.5t-34 8t-35 23.5t-27 44q-6 43 -6 75q-1 60 1 195q1 41 32 69.5t56 32.5q19 0 55 1.5t76.5 -12.5t48.5 -41q5 -17 7.5 -30.5t4 -29.5t2 -23.5t0.5 -29v-30.5q0 -17 2 -44.5t1 -54.5zM324 206l-296 -1
l-1 85q38 1 297 1v-85zM226 435q8 39 -1 203q-1 21 -17.5 32.5t-36 11t-35.5 -13t-16 -34.5q0 -192 11 -211q7 -12 28.5 -17t42 2.5t24.5 26.5z" />
    <glyph glyph-name="guillemotright" unicode="&#xbb;" horiz-adv-x="675" 
d="M626 345l-104.5 -98.5l-135.5 -124.5l-61 77q16 17 81 76.5t75 69.5q-28 26 -75 77.5t-75 77.5q29 44 69 78l37 -36.5l55.5 -55l55.5 -56l51 -53t27 -32.5zM398 349l-104.5 -98.5l-135.5 -124.5l-61 77q16 17 81 76.5t75 69.5q-28 26 -75.5 77.5t-74.5 77.5q29 44 69 78
l37 -36.5l55.5 -55l55.5 -56l51 -53t27 -32.5z" />
    <glyph glyph-name="onequarter" unicode="&#xbc;" horiz-adv-x="772" 
d="M738 223l-3 -84l-53 1l4 -140q-49 0 -95 -1q0 16 -1 55.5t-2 86.5l-191 2q0 1 -2.5 26.5t-1.5 42.5q34 83 87.5 200t68.5 133h32.5h45h43.5l9 -321zM524 768q-30 -56 -69.5 -189.5t-46.5 -152.5q-28 -79 -69 -206.5t-81 -239.5l-95 43l65 177q23 61 89 261.5t125 338.5z
M218 258q-1 0 -19.5 1t-40.5 1t-42 -2l4 435l-25.5 -15l-26.5 -15.5t-10 -5.5q-21 42 -38 65l108 71h84q2 -60 2 -91zM589 424q-10 -29 -24 -60.5l-34 -74t-30 -65.5h87q-3 145 1 200z" />
    <glyph glyph-name="onehalf" unicode="&#xbd;" horiz-adv-x="772" 
d="M740 0q-16 0 -62 2t-93.5 2t-94.5 -4v162q2 16 5.5 29.5t5.5 23t7.5 20t7.5 15.5t10.5 15.5l10.5 13l13 15.5t14 16q9 10 30.5 28t33.5 32.5t10 27.5q-9 63 -70 60q-4 0 -8.5 -2t-10.5 -7t-10 -9l-13.5 -14l-15.5 -16l-44 64l19.5 20l18.5 19t17.5 14.5t22 13t25 6.5
t33.5 3q61 0 104 -62q21 -31 24.5 -50.5t-4.5 -67.5q-3 -7 -6 -17q-4 -15 -11 -24.5t-45 -51.5q-5 -6 -8 -9q-4 -5 -14.5 -15t-15.5 -16t-12.5 -16t-12.5 -22t-9 -27q-2 -38 -2 -72h50.5h56.5h43q2 -19 -0.5 -49.5t0.5 -50.5zM524 768q-30 -56 -69.5 -189.5t-46.5 -152.5
q-28 -79 -69 -206.5t-81 -239.5l-82 48l52 172q58 192 100.5 313t113.5 287zM218 258q-1 0 -19.5 1t-40.5 1t-42 -2q0 78 1.5 193.5t2.5 164t0 77.5l-25.5 -15l-26.5 -15.5t-10 -5.5l-38 65l108 71h84q5 -205 5 -242z" />
    <glyph glyph-name="threequarters" unicode="&#xbe;" horiz-adv-x="772" 
d="M753 223l-3 -84l-51 1l3 -140q-50 0 -96 -1q0 16 -1 55.5t-2 86.5l-191 2q0 1 -2.5 26.5t-1.5 42.5q34 83 87.5 200t68.5 133h32.5h45h43.5l9 -321zM550 768q-30 -56 -69.5 -189.5t-46.5 -152.5q-28 -79 -69 -206.5t-81 -239.5l-95 43l65 177q23 61 89 261.5t125 338.5z
M278 458q10 -92 -23 -156q-16 -30 -51 -47.5t-55 -13.5q-29 1 -47.5 5.5t-26.5 9.5t-26 19t-32 23l44 69q50 -35 67 -37q30 -2 49 15t18 53q-2 57 -13.5 77t-55.5 20h-35l-1 81q56 1 81.5 16t23.5 50q1 36 -18 53t-49 15q-17 -2 -67 -37l-44 69q14 9 32 23t26 19t26.5 9.5
t47.5 5.5q19 3 56 -18t53 -51q18 -35 21 -58.5t-7 -76.5q-8 -38 -59 -59q22 -10 42.5 -33t22.5 -45zM604 424q-10 -29 -24 -60.5l-34 -74t-30 -65.5h87q-3 145 1 200z" />
    <glyph glyph-name="questiondown" unicode="&#xbf;" horiz-adv-x="377" 
d="M308 496q-10 -34 -38.5 -46t-57.5 -1.5t-44 35.5q-17 33 -15.5 54t18.5 49q17 17 50.5 22.5t56.5 -7.5q54 -31 30 -106zM339 -204q-18 1 -57 2t-61 3t-53 7.5t-55 18t-43 32.5q-74 78 -20 199q17 39 46.5 70l53.5 58t33 62q5 106 2 128q47 -3 101 4q11 -112 -8.5 -177
t-96.5 -126q-37 -30 -37 -81t31 -62q20 -16 47 -21.5t63.5 -6t53.5 -3.5v-107z" />
    <glyph glyph-name="Agrave" unicode="&#xc0;" horiz-adv-x="505" 
d="M288 803l-61 -52l-40 47l-36.5 42.5t-32.5 42.5l86 72q73 -131 84 -152zM502 -2h-138q-9 26 -22 91.5l-15 75.5q-23 2 -172 -1l-43 -166q-12 0 -34.5 1t-40.5 1t-34 -2l17 80l143 639l27 1q28 0 65 0.5t54 1.5q31 -98 60 -205.5l70.5 -272zM301 283q-39 214 -59 296
q-11 -44 -25.5 -118.5t-22.5 -126.5l-9 -52z" />
    <glyph glyph-name="Aacute" unicode="&#xc1;" horiz-adv-x="505" 
d="M502 -2h-138q-9 26 -22 91.5l-15 75.5q-23 2 -172 -1l-43 -166q-12 0 -34.5 1t-40.5 1t-34 -2l17 80l143 639l27 1q28 0 65 0.5t54 1.5q31 -98 60 -205.5l70.5 -272zM301 283q-39 214 -59 296l-57 -297zM352 907q-17 -22 -46 -64.5t-56 -74.5l-70 38q17 31 38.5 76
t40.5 77z" />
    <glyph glyph-name="Acircumflex" unicode="&#xc2;" horiz-adv-x="505" 
d="M502 -2h-138q-9 26 -22 91.5l-15 75.5q-23 2 -172 -1l-43 -166q-12 0 -34.5 1t-40.5 1t-34 -2l17 80l145 624h27q28 1 65 1.5t54 1.5q30 -91 58 -192.5t71.5 -273zM301 283q-39 214 -59 296q-11 -44 -25.5 -118.5t-22.5 -126.5l-9 -52zM388 774l-50 -51q-17 16 -52.5 46
l-47.5 40q-7 -6 -25 -23.5t-35 -30.5l-45 -35q-8 8 -26.5 23t-29.5 29l161 137q7 -6 20 -16t23 -18.5t22 -21.5q14 -15 44 -41t41 -38z" />
    <glyph glyph-name="Atilde" unicode="&#xc3;" horiz-adv-x="505" 
d="M502 -2h-138q-9 26 -22 91.5l-15 75.5q-23 2 -172 -1l-43 -166q-12 0 -34.5 1t-40.5 1t-34 -2l17 80l143 639l146 3q31 -98 60 -205.5l70.5 -272zM301 283q-39 214 -59 296q-11 -44 -25.5 -118.5t-22.5 -126.5l-9 -52zM413 868q-22 -56 -47 -76t-81 -20q-17 0 -51.5 17
t-49.5 17q-44 -2 -54 -40q-10 3 -37 16.5t-39 17.5q23 45 49 65.5t81 21.5q25 1 54.5 -17.5t44.5 -18.5q13 0 20.5 1t20 11.5t17.5 31.5q59 -24 72 -27z" />
    <glyph glyph-name="Adieresis" unicode="&#xc4;" horiz-adv-x="505" 
d="M502 -2h-138q-9 26 -22 91.5l-15 75.5q-23 2 -172 -1l-43 -166q-12 0 -34.5 1t-40.5 1t-34 -2l17 80l143 639l27 1q28 0 65 0.5t54 1.5q31 -98 60 -205.5l70.5 -272zM301 283q-39 214 -59 296q-11 -44 -25.5 -118.5t-22.5 -126.5l-9 -52zM375 850q18 -56 -30 -85
q-18 -10 -43 -6t-38 18q-10 16 -15 26.5t-5 25.5t9 30q12 21 38 29t51 -1.5t33 -36.5zM211 857q21 -36 -12 -87q-13 -13 -34.5 -15.5t-38.5 8.5q-24 15 -34.5 37.5t-2.5 47.5q8 27 33 36.5t51 1.5t38 -29z" />
    <glyph glyph-name="Aring" unicode="&#xc5;" horiz-adv-x="448" 
d="M445 0h-110q-23 64 -44 175l-152 -7q-5 -38 -16.5 -95.5t-11.5 -73.5q-12 5 -50.5 2t-57.5 -1l125 643q-51 34 -41 97q20 119 119 119q54 0 92.5 -34t38.5 -86q0 -57 -44 -91q17 -86 81 -376q9 -39 35.5 -135t35.5 -137zM244 739q0 16 -11 26.5t-27 10.5t-27 -10.5
t-11 -26.5q0 -19 7 -29.5t31 -16.5q15 0 26.5 14.5t11.5 31.5zM265 281l-49 298q-7 -34 -26 -147t-29 -155z" />
    <glyph glyph-name="AE" unicode="&#xc6;" horiz-adv-x="728" 
d="M697 672l-185 -4v-3l-7 -205q76 -4 148 -12q4 -64 -4 -104h-142q-3 -12 -2 -92.5t4 -120.5q6 0 91.5 1t90.5 -3q-2 -17 0.5 -60t-0.5 -64q-252 -3 -302 -5l-6 229q-27 0 -72.5 0.5t-73.5 -0.5l-99 -231q-77 0 -116 9l30 80l273 692q245 13 367 7q0 -11 2 -48.5t3 -65.5z
M387 664l-117 -331q16 -3 61 -0.5t54 2.5z" />
    <glyph glyph-name="Ccedilla" unicode="&#xc7;" horiz-adv-x="411" 
d="M369 797l-3 -114h-26h-28.5t-25.5 -1t-27 -3.5t-23 -7t-22 -11.5t-16.5 -17.5t-13.5 -23.5q-19 -202 -4 -408q8 -116 179 -99q-1 -17 -1.5 -52.5t-2.5 -65.5q-61 0 -98 5q-56 -134 -84 -182q-57 29 -98 48l98 148q-31 8 -49 14.5t-34 20.5t-21 34q-21 84 -22.5 257
t22.5 326q8 51 36.5 74t86.5 40q55 22 177 18z" />
    <glyph glyph-name="Egrave" unicode="&#xc8;" horiz-adv-x="392" 
d="M365 612l-185 -15l-7 -160q76 -4 148 -12q4 -64 -4 -104h-142q-1 -138 2 -206q18 0 85 4.5t97 0.5q-2 -17 0.5 -60t-0.5 -64q-53 -5 -171.5 -8t-130.5 -4l-2 58q-7 78 -1.5 371t5.5 304q5 0 14.5 0.5t17 1t14.5 1.5q104 9 254 13q0 -11 2.5 -51.5t3.5 -69.5zM281 813
l-61 -52l-40 47l-36.5 42.5t-32.5 42.5l86 72q73 -131 84 -152z" />
    <glyph glyph-name="Eacute" unicode="&#xc9;" horiz-adv-x="392" 
d="M364 612l-184 -12l-7 -147q76 -4 148 -12q4 -64 -4 -104h-142q-1 -155 2 -222q18 0 85 4.5t97 0.5q-2 -17 0.5 -60t-0.5 -64q-53 -5 -171.5 -8t-130.5 -4l-2 58q-7 80 -1.5 370.5t5.5 297.5q7 0 49.5 1t82 2.5t48.5 2.5q42 6 120 10q0 -11 2 -48.5t3 -65.5zM302 891
q-17 -22 -46 -64.5t-56 -74.5l-70 38q17 31 38.5 76t40.5 77z" />
    <glyph glyph-name="Ecircumflex" unicode="&#xca;" horiz-adv-x="392" 
d="M364 580l-184 -12v-17l-7 -120q76 -4 148 -12q4 -64 -4 -104h-142q-6 -72 2 -184q18 0 85 4.5t97 0.5q-2 -17 0.5 -60t-0.5 -64q-53 -5 -171.5 -8t-130.5 -4l-2 58q-3 147 -2.5 239.5t3.5 217.5t3 167q10 1 125 7.5t175 8.5q0 -26 3 -59.5t2 -58.5zM360 769l-50 -51
q-17 16 -52.5 46l-47.5 40q-8 -7 -26 -24t-34 -30l-45 -35q-8 8 -26.5 23t-29.5 29l161 137q7 -6 20 -16t23 -18.5t22 -21.5q14 -15 44 -41t41 -38z" />
    <glyph glyph-name="Edieresis" unicode="&#xcb;" horiz-adv-x="392" 
d="M364 613l-184 -12l-6 -62l-1 -75q76 -4 148 -12q4 -64 -4 -104h-142q2 -34 1 -117.5t1 -99.5q18 0 85 4.5t97 0.5q-2 -17 0.5 -60t-0.5 -64q-53 -5 -171.5 -8t-130.5 -4l-2 58q-6 73 -1 357t5 300q10 1 125 7.5t175 8.5q0 -26 3 -59.5t2 -58.5zM349 854q18 -56 -30 -85
q-18 -10 -43 -6t-38 18q-10 16 -15 26.5t-5 25.5t9 30q12 21 38 29t51 -1.5t33 -36.5zM186 861q21 -36 -12 -87q-13 -13 -34.5 -15.5t-38.5 8.5q-24 15 -34.5 37.5t-2.5 47.5q8 27 33 36.5t51 1.5t38 -29z" />
    <glyph glyph-name="Igrave" unicode="&#xcc;" horiz-adv-x="291" 
d="M226 711q0 -29 -4 -299t-3 -412h-138l-3 54l-5 661q97 0 140 -1q10 -2 13 -3zM206 821l-61 -52l-40 47l-36.5 42.5t-32.5 42.5l86 72q73 -131 84 -152z" />
    <glyph glyph-name="Iacute" unicode="&#xcd;" horiz-adv-x="293" 
d="M218 711q0 -29 -4 -299t-3 -412h-138l-3 54l-5 661q1 0 53 1t78 0q17 -4 22 -5zM259 903q-17 -22 -46 -64.5t-56 -74.5l-70 38q17 31 38.5 76t40.5 77z" />
    <glyph glyph-name="Icircumflex" unicode="&#xce;" horiz-adv-x="263" 
d="M211 695q0 -19 -4 -285.5t-3 -409.5h-138l-3 54l-5 645q97 0 140 -1q10 -2 13 -3zM284 789l-50 -51q-17 16 -53 46t-47 40q-7 -6 -25 -23.5t-35 -30.5l-45 -35q-8 8 -26.5 23t-29.5 29l161 137q54 -45 65 -56q15 -16 45 -42t40 -37z" />
    <glyph glyph-name="Idieresis" unicode="&#xcf;" horiz-adv-x="274" 
d="M210 711q0 -29 -4 -299t-3 -412h-138l-3 54l-5 661q97 0 140 -1q10 -2 13 -3zM273 869q18 -56 -30 -85q-18 -10 -43 -6t-38 18q-10 16 -15 26.5t-5 25.5t9 30q12 21 38 29t51 -1.5t33 -36.5zM109 876q21 -36 -12 -87q-13 -13 -34.5 -15.5t-38.5 8.5q-24 15 -34.5 37.5
t-2.5 47.5q8 27 33 36.5t51 1.5t38 -29z" />
    <glyph glyph-name="Eth" unicode="&#xd0;" horiz-adv-x="434" 
d="M380 177q-5 -44 -40 -80t-85 -57.5t-104 -32.5t-102 -11q0 7 -0.5 55t-1 144t-0.5 162l-66 -1v98q4 0 13.5 0.5t25 1t27.5 0.5v339q103 0 195.5 -36t124.5 -114q28 -116 28 -224t-15 -244zM286 245q0 18 3 72t3.5 87.5t-1.5 78t-12 76.5t-27 50q-45 48 -84 49
q-4 -62 1 -203h63q0 -68 -1 -98h-66q-5 -134 -4 -228l47 14q32 13 54.5 40.5t23.5 61.5z" />
    <glyph glyph-name="Ntilde" unicode="&#xd1;" horiz-adv-x="562" 
d="M507 725v-211.5t-7 -247.5t-9 -266h-99q-29 53 -101.5 208t-120.5 233q2 -73 5 -220.5t5 -220.5h-126v723l103 -2q17 -20 33.5 -43.5t34 -54.5l30 -54t32.5 -65l29.5 -63l33 -72.5l32.5 -71.5l-8 428h133zM454 858q-22 -56 -47 -76t-81 -20q-17 0 -51.5 17t-49.5 17
q-44 -2 -54 -40q-10 3 -37 16.5t-39 17.5q23 45 49 65.5t81 21.5q25 1 54.5 -17.5t44.5 -18.5q13 0 20.5 1t20 11.5t17.5 31.5q59 -24 72 -27z" />
    <glyph glyph-name="Ograve" unicode="&#xd2;" horiz-adv-x="478" 
d="M431 553q0 -3 2 -37.5t3 -48.5t2.5 -52t1.5 -59.5v-58t-1.5 -60t-4.5 -54t-7.5 -51.5t-11 -40.5t-15.5 -32.5q-19 -28 -38.5 -45t-55.5 -31q-6 0 -28 -0.5t-31.5 -0.5t-30 0.5t-31.5 2.5t-27.5 6t-27 10t-22 15.5t-18.5 21.5q-12 19 -20.5 49.5t-13 71t-7 67t-4 67.5
t-1.5 43q0 10 -2 43t-2.5 48l-1.5 46t0.5 48.5t3.5 43.5t7 42.5t12 34.5t18 30.5t25 19.5q26 14 74.5 21.5t103 1.5t83.5 -29q61 -48 66 -133zM318 181q4 247 -10 379q-5 48 -80 43q-48 -14 -53 -53q-4 -137 18 -405q2 -26 30.5 -34.5t47.5 0.5q25 2 36 23.5t11 46.5z
M305 801l-61 -52l-40 47l-36.5 42.5t-32.5 42.5l86 72q73 -131 84 -152z" />
    <glyph glyph-name="Oacute" unicode="&#xd3;" horiz-adv-x="478" 
d="M431 553q0 -3 2 -37.5t3 -48.5t2.5 -52t1.5 -59.5v-58t-1.5 -60t-4.5 -54t-7.5 -51.5t-11 -40.5t-15.5 -32.5q-19 -28 -38.5 -45t-55.5 -31q-6 0 -28 -0.5t-31.5 -0.5t-30 0.5t-31.5 2.5t-27.5 6t-27 10t-22 15.5t-18.5 21.5q-12 19 -20.5 49.5t-13 71t-7 67t-4 67.5
t-1.5 43q0 10 -2 43t-2.5 48l-1.5 46t0.5 48.5t3.5 43.5t7 42.5t12 34.5t18 30.5t25 19.5q26 14 74.5 21.5t103 1.5t83.5 -29q61 -48 66 -133zM318 181q4 247 -10 379q-5 48 -80 43q-48 -14 -53 -53q-4 -137 18 -405q2 -26 30.5 -34.5t47.5 0.5q25 2 36 23.5t11 46.5z
M336 901q-17 -22 -46 -64.5t-56 -74.5l-70 38q17 31 38.5 76t40.5 77z" />
    <glyph glyph-name="Ocircumflex" unicode="&#xd4;" horiz-adv-x="477" 
d="M430 538q25 -397 -31 -479q-19 -28 -38.5 -45t-55.5 -31q-6 0 -28 -0.5t-31.5 -0.5t-30 0.5t-31.5 2.5t-27.5 6t-27 10t-22 15.5t-18.5 21.5q-19 30 -28.5 88.5t-13.5 125.5t-4 69q0 15 -2 55.5t-2.5 62.5t-0.5 59t4 60t11 49t19.5 43t30.5 27q26 14 74.5 21.5t103 1.5
t83.5 -29q61 -48 66 -133zM317 181q4 234 -10 364q-5 48 -80 43q-48 -14 -53 -53q-4 -120 18 -390q2 -26 30.5 -34.5t47.5 0.5q25 2 36 23.5t11 46.5zM373 775l-50 -51q-17 16 -52.5 46l-47.5 40q-7 -6 -25 -23.5t-35 -30.5l-45 -35q-8 8 -26.5 23t-29.5 29l161 137
q7 -6 20 -16t23 -18.5t22 -21.5q14 -15 44 -41t41 -38z" />
    <glyph glyph-name="Otilde" unicode="&#xd5;" horiz-adv-x="478" 
d="M431 571q0 -8 2.5 -54t3.5 -69t2.5 -71.5t0.5 -78.5t-3 -72t-6.5 -69.5t-12 -54.5t-18.5 -43q-19 -28 -38.5 -45t-55.5 -31q-6 0 -28 -0.5t-31.5 -0.5t-30 0.5t-31.5 2.5t-27.5 6t-27 10t-22 15.5t-18.5 21.5q-10 16 -18 43.5t-12 51t-7.5 63.5t-4.5 58t-2.5 58.5
t-1.5 41.5q-1 12 -2.5 43t-2 47.5t-1.5 46.5t0 48.5t3.5 44t7.5 42t12 34.5t18 30.5t25 19.5q26 14 74 21.5t103 1.5t84 -29q61 -48 66 -133zM318 181q4 263 -10 397q-4 48 -80 43q-48 -14 -53 -53q-4 -157 18 -423q2 -26 30.5 -34.5t47.5 0.5q25 2 36 23.5t11 46.5z
M401 870q-22 -56 -47 -76t-81 -20q-17 0 -51.5 17t-49.5 17q-44 -2 -54 -40q-10 3 -37 16.5t-39 17.5q23 45 49 65.5t81 21.5q25 1 54.5 -17.5t44.5 -18.5q13 0 20.5 1t20 11.5t17.5 31.5q58 -23 72 -27z" />
    <glyph glyph-name="Odieresis" unicode="&#xd6;" horiz-adv-x="478" 
d="M431 571q0 -8 2.5 -54t3.5 -69t2.5 -71.5t0.5 -78.5t-3 -72t-6.5 -69.5t-12 -54.5t-18.5 -43q-19 -28 -38.5 -45t-55.5 -31q-6 0 -28 -0.5t-31.5 -0.5t-30 0.5t-31.5 2.5t-27.5 6t-27 10t-22 15.5t-18.5 21.5q-10 16 -18 43.5t-12 51t-7.5 63.5t-4.5 58t-2.5 58.5
t-1.5 41.5q-1 12 -2.5 43t-2 47.5t-1.5 46.5t0 48.5t3.5 44t7.5 42t12 34.5t18 30.5t25 19.5q26 14 74 21.5t103 1.5t84 -29q61 -48 66 -133zM318 181q4 263 -10 397q-4 48 -80 43q-48 -14 -53 -53q-4 -157 18 -423q2 -26 30.5 -34.5t47.5 0.5q25 2 36 23.5t11 46.5z
M361 878q18 -56 -30 -85q-17 -10 -42.5 -6t-38.5 18q-10 16 -15 26.5t-5 25.5t9 30q12 21 38 29t51 -1.5t33 -36.5zM198 885q21 -36 -12 -87q-13 -13 -34.5 -15.5t-38.5 8.5q-24 15 -34.5 37.5t-2.5 47.5q8 27 33 36.5t51 1.5t38 -29z" />
    <glyph glyph-name="multiply" unicode="&#xd7;" horiz-adv-x="524" 
d="M429 255q-40 -45 -71 -67l-106 104l-96 -106q-10 8 -37 35.5t-36 33.5q14 17 47.5 52.5l45.5 48.5l-107 109l71 75l17 -14t17.5 -16.5l16.5 -16.5t25.5 -27l32.5 -35l105 111q36 -25 73 -66l-105 -114l36.5 -34.5l28 -26t18.5 -17.5t15 -16t9 -13z" />
    <glyph glyph-name="Oslash" unicode="&#xd8;" horiz-adv-x="479" 
d="M484 810l-68 -141q11 -101 13 -260t-10 -288q-3 -27 -22.5 -57.5t-44.5 -47.5q-26 -18 -85.5 -20.5t-91.5 7.5q-13 4 -47 33l-48 -108l-53 29l60 124q-23 41 -27 78q-8 71 -12 207t-1 223q3 91 20 135q12 33 56 51.5t102 19.5q71 2 120 -19q28 -12 41 -38l51 98zM312 586
q-1 64 -10 71q-4 10 -9 16t-12 8.5t-12 3.5t-15.5 1h-15.5q-74 5 -81 -65q-7 -45 -1.5 -162t5.5 -153q0 -11 0.5 -33.5t0.5 -28.5zM316 454l-134 -306q28 -31 69 -29t54 30q18 52 11 305z" />
    <glyph glyph-name="Ugrave" unicode="&#xd9;" horiz-adv-x="457" 
d="M410 713q0 -18 6.5 -158.5t3 -254t-24.5 -209.5q-28 -61 -128 -91q-110 -5 -180 71q-8 9 -14.5 22t-10.5 32.5t-7 35.5t-5 42.5t-3 42.5t-2 46t-2 42q-13 301 -7 373l121 -1l1 -45q1 -48 -0.5 -164t3 -192t19.5 -141q20 -40 59 -37.5t52 47.5q10 81 12 179t-0.5 212.5
t-2.5 147.5h110zM283 775l-61 -52l-40 47l-36.5 42.5t-32.5 42.5l86 72q73 -131 84 -152z" />
    <glyph glyph-name="Uacute" unicode="&#xda;" horiz-adv-x="457" 
d="M410 740q0 -29 6.5 -177t3 -262t-24.5 -210q-28 -61 -128 -91q-110 -5 -180 71q-8 9 -14.5 22t-10.5 32.5t-7 35.5t-5 42.5t-3 42.5t-2 46t-2 42q-13 301 -7 400l121 -1l1 -85q1 -41 0 -122t-1 -130.5t5.5 -115.5t17.5 -116q20 -40 59 -37.5t52 47.5q10 81 12 179
t-0.5 221t-2.5 166h110zM329 900q-17 -22 -46 -64.5t-56 -74.5l-70 38q17 31 38.5 76t40.5 77z" />
    <glyph glyph-name="Ucircumflex" unicode="&#xdb;" horiz-adv-x="457" 
d="M410 700q0 -12 6.5 -149t3 -250.5t-24.5 -209.5q-28 -61 -128 -91q-110 -5 -180 71q-8 9 -14.5 22t-10.5 32.5t-7 35.5t-5 42.5t-3 42.5t-2 46t-2 42q-13 301 -7 360l121 -1l1 -45q1 -44 -0.5 -155t3 -187.5t19.5 -141.5q20 -40 59 -37.5t52 47.5q10 81 12 179t-0.5 208
t-2.5 139h110zM368 783l-50 -51q-17 16 -52.5 46l-47.5 40q-7 -6 -25 -23.5t-35 -30.5l-45 -35q-8 8 -26.5 23t-29.5 29l161 137q54 -45 65 -56q15 -16 45 -42t40 -37z" />
    <glyph glyph-name="Udieresis" unicode="&#xdc;" horiz-adv-x="457" 
d="M414 715q-1 -35 4 -164.5t1 -252t-24 -227.5q-28 -61 -128 -91q-110 -5 -180 71q-8 9 -14.5 23.5t-10.5 35t-7 39.5t-5 47t-3 46.5t-2 48.5t-2 43q-13 301 -7 382l121 -1l1 -67q0 -41 -0.5 -122.5t-0.5 -132.5t5.5 -121.5t17.5 -127.5q20 -40 59 -37.5t52 47.5
q10 89 12.5 204.5t0 195t0.5 161.5h110zM370 855q18 -56 -30 -85q-18 -10 -43 -6t-38 18q-10 16 -15 26.5t-5 25.5t9 30q12 21 38 29t51 -1.5t33 -36.5zM206 862q21 -36 -12 -87q-13 -13 -34.5 -15.5t-38.5 8.5q-24 15 -34.5 37.5t-2.5 47.5q8 27 33 36.5t51 1.5t38 -29z
" />
    <glyph glyph-name="Yacute" unicode="&#xdd;" horiz-adv-x="569" 
d="M558 737l-192 -272l17 -461q-12 -8 -60.5 -4t-66.5 0l-14 448l-227 257l95 83q21 -21 83 -95t101 -116q39 42 96.5 121t70.5 94zM411 868q-17 -22 -46 -64.5t-56 -74.5l-70 38q17 31 38.5 76t40.5 77z" />
    <glyph glyph-name="Thorn" unicode="&#xde;" horiz-adv-x="428" 
d="M387 294q0 -128 -10 -165q-8 -30 -23 -42q-21 -17 -86 -17.5t-110 14.5l7 -119l-122 -1q-11 130 -11 628q15 -1 54.5 0.5t50.5 -0.5q1 -9 2 -25.5t3 -26.5q25 12 41.5 18.5t41 13t48 6t45.5 -7.5q24 -13 40 -33t23 -40t9.5 -49t1.5 -50.5t-3 -54t-2 -49.5zM275 414
q-1 31 -16.5 44t-37 10t-41 -11.5t-34.5 -19.5l6 -225q13 -19 28 -28q13 -6 27 -9.5t30 -1t22 14.5q16 31 18.5 94.5t-2.5 131.5z" />
    <glyph glyph-name="germandbls" unicode="&#xdf;" horiz-adv-x="472" 
d="M415 612q0 -32 -12 -58.5t-26.5 -41.5l-31 -33t-22.5 -32q-9 -21 11 -68.5l45 -110t25 -109.5q-2 -89 -88 -140q-24 -14 -42.5 -22t-21.5 -10l-36 112q2 2 29 13t41 30.5t6 52.5t-42.5 113.5t-33.5 120.5q2 46 33 83q46 41 62 72t2 58q-27 50 -74 46q-64 -5 -66 -106
q-3 -84 -3 -516q0 -54 1.5 -110t2.5 -89.5t0 -47.5h-122q-3 38 0 318t1 435q-2 130 66 188q61 35 110 35q48 0 82 -11t78 -50q13 -18 19 -38.5t6.5 -33t0.5 -50.5z" />
    <glyph glyph-name="agrave" unicode="&#xe0;" 
d="M387 0h-124l2 62q-104 -56 -172 -26q-38 27 -40.5 102t22.5 113q31 53 190 61q0 9 -0.5 31t-1 40t-2 37.5t-5.5 33t-11 17.5q-25 16 -146 16q-2 70 0 110q62 7 137 -1t97 -30q17 -17 28 -44q7 -17 9.5 -108.5t5.5 -216.5t11 -197zM267 232q-52 1 -75 -9q-41 -18 -48 -53
q-1 -36 9 -49.5t43 -13.5q31 5 44 12t20.5 33t6.5 80zM276 689l-61 -52l-40 47l-36.5 42.5t-32.5 42.5l86 72q73 -131 84 -152z" />
    <glyph glyph-name="aacute" unicode="&#xe1;" 
d="M387 0h-124l2 62q-104 -56 -172 -26q-38 27 -40.5 102t22.5 113q31 53 190 61q0 9 -0.5 31t-1 40t-2 37.5t-5.5 33t-11 17.5q-25 16 -146 16q-2 70 0 110q62 7 137 -1t97 -30q17 -17 28 -44q7 -17 9.5 -108.5t5.5 -216.5t11 -197zM267 232q-52 1 -75 -9q-41 -18 -48 -53
q-1 -36 9 -49.5t43 -13.5q31 5 44 12t20.5 33t6.5 80zM344 780q-17 -22 -46 -64.5t-56 -74.5l-70 38q17 31 38.5 76t40.5 77z" />
    <glyph glyph-name="acircumflex" unicode="&#xe2;" 
d="M387 0h-124l2 62q-104 -56 -172 -26q-38 27 -40.5 102t22.5 113q31 53 190 61q0 9 -0.5 31t-1 40t-2 37.5t-5.5 33t-11 17.5q-25 16 -146 16q-2 70 0 110q62 7 137 -1t97 -30q17 -17 28 -44q7 -17 9.5 -108.5t5.5 -216.5t11 -197zM267 232q-52 1 -75 -9q-41 -18 -48 -53
q-1 -36 9 -49.5t43 -13.5q31 5 44 12t20.5 33t6.5 80zM395 687l-50 -51q-17 16 -52.5 46l-47.5 40q-7 -6 -25 -23.5t-35 -30.5l-45 -35q-8 8 -26.5 23t-29.5 29l161 137q54 -45 65 -56q15 -16 45 -42t40 -37z" />
    <glyph glyph-name="atilde" unicode="&#xe3;" 
d="M389 0h-124l2 62q-104 -56 -172 -26q-38 27 -40.5 102t22.5 113q31 53 190 61q0 9 -0.5 31t-1 40t-2 37.5t-5.5 33t-11 17.5q-25 16 -146 16q-2 70 0 110q62 7 137 -1t97 -30q17 -17 28 -44q7 -17 9.5 -108.5t5.5 -216.5t11 -197zM269 232q-52 1 -75 -9q-41 -18 -48 -53
q-1 -36 9 -49.5t43 -13.5q31 5 44 12t20.5 33t6.5 80zM413 746q-22 -56 -47 -76t-81 -20q-17 0 -51.5 17t-49.5 17q-44 -2 -54 -40q-10 3 -37 16.5t-39 17.5q23 45 49 65.5t81 21.5q25 1 54.5 -17.5t44.5 -18.5q13 0 20.5 1t20 11.5t17.5 31.5q58 -23 72 -27z" />
    <glyph glyph-name="adieresis" unicode="&#xe4;" 
d="M387 0h-124l2 62q-104 -56 -172 -26q-38 27 -40.5 102t22.5 113q31 53 190 61q0 9 -0.5 31t-1 40t-2 37.5t-5.5 33t-11 17.5q-25 16 -146 16q-2 70 0 110q62 7 137 -1t97 -30q17 -17 28 -44q7 -17 9.5 -108.5t5.5 -216.5t11 -197zM267 232q-52 1 -75 -9q-41 -18 -48 -53
q-1 -36 9 -49.5t43 -13.5q31 5 44 12t20.5 33t6.5 80zM386 748q18 -56 -30 -85q-18 -10 -43 -6t-38 18q-10 16 -15 26.5t-5 25.5t9 30q12 21 38 29t51 -1.5t33 -36.5zM222 755q21 -36 -12 -87q-13 -13 -34.5 -15.5t-38.5 8.5q-24 15 -34.5 37.5t-2.5 47.5q8 27 33 36.5
t51 1.5t38 -29z" />
    <glyph glyph-name="aring" unicode="&#xe5;" 
d="M387 0h-124l2 62q-104 -56 -172 -26q-38 27 -40.5 102t22.5 113q31 53 190 61q0 9 -0.5 31t-1 40t-2 37.5t-5.5 33t-11 17.5q-25 16 -146 16q-2 70 0 110q62 7 137 -1t97 -30q17 -17 28 -44q7 -17 9.5 -108.5t5.5 -216.5t11 -197zM267 232q-52 1 -75 -9q-41 -18 -48 -53
q-1 -36 9 -49.5t43 -13.5q31 5 44 12t20.5 33t6.5 80zM366 746q0 -52 -40 -81q-62 -57 -148 -5q-46 29 -37 87q19 107 107 107q49 0 83.5 -30.5t34.5 -77.5zM282 746q0 15 -10 24.5t-24 9.5t-24 -9.5t-10 -24.5q0 -16 6.5 -25.5t27.5 -15.5q14 0 24 13t10 28z" />
    <glyph glyph-name="ae" unicode="&#xe6;" horiz-adv-x="631" 
d="M563 286l-2 -22q-20 -1 -88 -1.5t-100 -2.5q1 -6 1 -39.5t5 -62t19 -42.5q48 -21 140 -15l1 -112q-169 -16 -218 32q-2 2 -6 5t-5 4.5t-3.5 4t-4 5.5t-3.5 8q-16 -23 -48.5 -38.5t-78.5 -12.5t-84 35q-32 27 -36.5 114t19.5 126q17 30 29.5 43t52.5 24.5t110 11.5
q0 15 -0.5 34t-1 36t-4.5 31t-12 19q-13 8 -39.5 9.5t-63.5 -1t-43 -2.5q-2 70 0 110q36 3 78 4t85 -8t60 -27q38 34 114 33.5t103 -40.5q14 -20 20 -54t6.5 -59.5t-1 -77t-1.5 -72.5zM479 375l-2 89q-1 20 -16 31.5t-36 11.5q-22 0 -35 -16t-15.5 -38.5t-4 -45.5t0.5 -38
q22 3 58.5 4t49.5 2zM266 161q4 1 1 45.5t-3 53.5q-14 -1 -29 -1.5t-21.5 -0.5t-16.5 -2.5t-23 -8.5q-14 -6 -21.5 -16t-9.5 -17.5t-4.5 -23.5t-5.5 -26q3 -40 16 -59.5t44 -19.5q65 13 73 76z" />
    <glyph glyph-name="ccedilla" unicode="&#xe7;" horiz-adv-x="319" 
d="M281 107v-47t-2 -60q-42 4 -75 10q-8 -18 -22 -55t-26 -64t-28 -55q-14 6 -50.5 25l-38.5 20l93 144q-20 10 -29 15t-20 16.5t-18 27.5q-16 40 -18 94q-1 28 -4 90.5t-3 91.5t6 72.5t20 77.5q17 41 80.5 61.5t120.5 12.5v-43v-65q-10 -3 -31 -4.5t-34.5 -3.5t-28 -12.5
t-20.5 -31.5t-6 -56t3.5 -63t11 -76.5t9.5 -67.5q9 -20 30 -32t35 -15t45 -7z" />
    <glyph glyph-name="egrave" unicode="&#xe8;" horiz-adv-x="373" 
d="M334 303l-2 -22q-20 -1 -88 -1.5t-100 -2.5q1 -9 1 -50t5 -69t19 -42q48 -21 140 -15l1 -112q-169 -16 -218 32q-27 26 -40 82t-14.5 100t-0.5 113q1 30 0 62.5t2 66t9 61t22 48t41 27.5q103 12 143 3q38 -9 56 -35q14 -20 20 -53.5t6.5 -58.5t-1 -71.5t-1.5 -62.5z
M248 464q0 19 -15.5 31t-36.5 12q-13 0 -22.5 -4t-15 -12.5t-8.5 -15.5t-4 -21l-1.5 -21t0.5 -22t1 -18q1 -2 47 -2h54zM264 678l-61 -52l-40 47l-36.5 42.5t-32.5 42.5l86 72q73 -131 84 -152z" />
    <glyph glyph-name="eacute" unicode="&#xe9;" horiz-adv-x="373" 
d="M334 303l-2 -22q-20 -1 -88 -1.5t-100 -2.5q1 -9 1 -50t5 -69t19 -42q48 -21 140 -15l1 -112q-169 -16 -218 32q-27 26 -40 82t-14.5 100t-0.5 113q1 30 0 62.5t2 66t9 61t22 48t41 27.5q103 12 143 3q38 -9 56 -35q14 -20 20 -53.5t6.5 -58.5t-1 -71.5t-1.5 -62.5z
M248 464q0 19 -15.5 31t-36.5 12q-13 0 -22.5 -4t-15 -12.5t-8.5 -15.5t-4 -21l-1.5 -21t0.5 -22t1 -18q1 -2 47 -2h54zM312 780q-17 -22 -46 -64.5t-56 -74.5l-70 38q17 31 38.5 76t40.5 77z" />
    <glyph glyph-name="ecircumflex" unicode="&#xea;" horiz-adv-x="373" 
d="M336 303l-2 -22q-20 -1 -88 -1.5t-100 -2.5q1 -9 1 -50t5 -69t19 -42q48 -21 140 -15l1 -112q-169 -16 -218 32q-27 26 -40 82t-14.5 100t-0.5 113q1 30 0 62.5t2 66t9 61t22 48t41 27.5q103 12 143 3q38 -9 56 -35q14 -20 20 -53.5t6.5 -58.5t-1 -71.5t-1.5 -62.5z
M250 464q0 19 -15.5 31t-36.5 12q-13 0 -22.5 -4t-15 -12.5t-8.5 -15.5t-4 -21l-1.5 -21t0.5 -22t1 -18q1 -2 47 -2h54zM346 665l-50 -51q-17 16 -52.5 46l-47.5 40q-7 -6 -25 -23.5t-35 -30.5l-45 -35q-8 8 -26.5 23t-29.5 29l161 137q54 -45 65 -56q15 -16 45 -42t40 -37z
" />
    <glyph glyph-name="edieresis" unicode="&#xeb;" horiz-adv-x="373" 
d="M334 303l-2 -22q-20 -1 -88 -1.5t-100 -2.5q1 -9 1 -50t5 -69t19 -42q48 -21 140 -15l1 -112q-169 -16 -218 32q-27 26 -40 82t-14.5 100t-0.5 113q1 30 0 62.5t2 66t9 61t22 48t41 27.5q103 12 143 3q38 -9 56 -35q14 -20 20 -53.5t6.5 -58.5t-1 -71.5t-1.5 -62.5z
M248 464q0 19 -15.5 31t-36.5 12q-13 0 -22.5 -4t-15 -12.5t-8.5 -15.5t-4 -21l-1.5 -21t0.5 -22t1 -18q1 -2 47 -2h54zM341 748q18 -56 -30 -85q-18 -10 -43 -6t-38 18q-10 16 -15 26.5t-5 25.5t9 30q12 21 38 29t51 -1.5t33 -36.5zM177 755q21 -36 -12 -87
q-13 -13 -34.5 -15.5t-38.5 8.5q-24 15 -34.5 37.5t-2.5 47.5q8 27 33 36.5t51 1.5t38 -29z" />
    <glyph glyph-name="igrave" unicode="&#xec;" horiz-adv-x="271" 
d="M204 0q-18 -1 -60 -1t-63 -1q-13 273 -11 582q14 0 51.5 2t56.5 2q24 -185 26 -584zM184 678l-61 -52l-40 47l-36.5 42.5t-32.5 42.5l86 72q73 -131 84 -152z" />
    <glyph glyph-name="iacute" unicode="&#xed;" horiz-adv-x="274" 
d="M203 0q-19 -1 -60 -1t-63 -1q-13 273 -11 582q14 0 51.5 2t56.5 2q24 -185 26 -584zM234 780q-17 -22 -46 -64.5t-56 -74.5l-70 38q17 31 38.5 76t40.5 77z" />
    <glyph glyph-name="icircumflex" unicode="&#xee;" horiz-adv-x="282" 
d="M221 0q-18 -1 -60 -1t-63 -1q-13 273 -11 582q14 0 51.5 2t56.5 2q24 -185 26 -584zM295 665l-50 -51q-17 16 -52.5 46l-47.5 40q-7 -6 -25 -23.5t-35 -30.5l-45 -35q-8 8 -26.5 23t-29.5 29l161 137q54 -45 65 -56q15 -16 45 -42t40 -37z" />
    <glyph glyph-name="idieresis" unicode="&#xef;" horiz-adv-x="294" 
d="M224 0q-18 -1 -60 -1t-63 -1q-13 273 -11 582q14 0 51.5 2t56.5 2q24 -185 26 -584zM291 748q18 -56 -30 -85q-18 -10 -43 -6t-38 18q-10 16 -15 26.5t-5 25.5t9 30q12 21 38 29t51 -1.5t33 -36.5zM127 755q21 -36 -12 -87q-13 -13 -34.5 -15.5t-38.5 8.5
q-24 15 -34.5 37.5t-2.5 47.5q8 27 33 36.5t51 1.5t38 -29z" />
    <glyph glyph-name="eth" unicode="&#xf0;" horiz-adv-x="416" 
d="M359 583q17 -107 13 -264t-19 -229q-3 -10 -9 -21t-22.5 -26t-39 -25t-62 -16t-88.5 -2q-19 5 -41.5 27.5t-30.5 43.5q-10 29 -13 66t-1.5 59.5t7 75t7.5 68.5q4 37 34 65t71 25q76 -5 105 -18q-1 6 -2.5 46.5t-8 70.5t-20.5 58l-18.5 -21.5l-19 -22.5t-9.5 -10
q-29 31 -66 60l52 64q-56 42 -100 52l44 91q69 -21 119 -55q15 22 37 50q7 -5 20 -15.5t22 -19t23 -23.5q-11 -11 -23.5 -28t-17.5 -22q3 -5 20 -30t25.5 -42t11.5 -32zM259 263q-2 53 -47 54q-46 1 -57.5 -21.5t-12.5 -106.5q-1 -40 16.5 -62t53.5 -18q20 2 30.5 20
t14.5 69q-1 13 0.5 33t1.5 32z" />
    <glyph glyph-name="ntilde" unicode="&#xf1;" horiz-adv-x="454" 
d="M411 0l-115 -1q4 225 -8 444q-5 8 -10.5 13.5t-12.5 7.5t-13.5 3t-15.5 -1t-15 -3.5t-15.5 -6l-14.5 -7t-14 -8t-12 -6.5q-1 -93 -0.5 -141t2 -147t1.5 -149q-5 -3 -61 -1.5t-58 1.5l4 601q22 -1 62 1.5t52 2.5q-1 -16 2 -67q3 1 21 10.5l23 12t21.5 10t24.5 9l23.5 4.5
t25.5 2t23.5 -4t25.5 -10q16 -15 27 -36t16.5 -39t8 -46.5t2.5 -44t-0.5 -48t-0.5 -43.5q0 -8 2 -148t-1 -165zM403 737q-22 -56 -47 -76t-81 -20q-17 0 -51.5 17t-49.5 17q-44 -2 -54 -40q-10 3 -37 16.5t-39 17.5q23 45 49 65.5t81 21.5q25 1 54.5 -17.5t44.5 -18.5
q13 0 20.5 1t20 11.5t17.5 31.5q58 -23 72 -27z" />
    <glyph glyph-name="ograve" unicode="&#xf2;" horiz-adv-x="412" 
d="M374 241v-54v-47t-1 -39.5t-3 -31t-5 -20.5q-16 -34 -53.5 -45t-105.5 -11q-151 0 -158 74t-7 225q0 28 -1 69.5t-1.5 75.5t-0.5 68q1 42 31 59.5t84 21.5q31 1 73 2t83.5 -13t49.5 -41q5 -17 7.5 -30.5t4 -29t2 -23.5t0.5 -29.5v-30.5q1 -48 1 -150zM260 104
q5 27 4.5 138.5t-5.5 208.5q-1 21 -17.5 32.5t-36 11t-35.5 -13t-16 -34.5q0 -336 11 -355q7 -12 28.5 -17t42 2.5t24.5 26.5zM252 678l-61 -52l-40 47l-36.5 42.5t-32.5 42.5l86 72q73 -131 84 -152z" />
    <glyph glyph-name="oacute" unicode="&#xf3;" horiz-adv-x="412" 
d="M374 241v-54v-47t-1 -39.5t-3 -31t-5 -20.5q-16 -34 -53.5 -45t-105.5 -11q-151 0 -158 74t-7 225q0 28 -1 69.5t-1.5 75.5t-0.5 68q1 42 31 59.5t84 21.5q31 1 73 2t83.5 -13t49.5 -41q5 -17 7.5 -30.5t4 -29t2 -23.5t0.5 -29.5v-30.5q1 -48 1 -150zM260 104
q5 27 4.5 138.5t-5.5 208.5q-1 21 -17.5 32.5t-36 11t-35.5 -13t-16 -34.5q0 -336 11 -355q7 -12 28.5 -17t42 2.5t24.5 26.5zM295 780q-17 -22 -46 -64.5t-56 -74.5l-70 38q17 31 38.5 76t40.5 77z" />
    <glyph glyph-name="ocircumflex" unicode="&#xf4;" horiz-adv-x="412" 
d="M374 241v-54v-47t-1 -39.5t-3 -31t-5 -20.5q-16 -34 -53.5 -45t-105.5 -11q-151 0 -158 74t-7 225q0 28 -1 69.5t-1.5 75.5t-0.5 68q1 42 31 59.5t84 21.5q31 1 73 2t83.5 -13t49.5 -41q5 -17 7.5 -30.5t4 -29t2 -23.5t0.5 -29.5v-30.5q1 -48 1 -150zM260 104
q5 27 4.5 138.5t-5.5 208.5q-1 21 -17.5 32.5t-36 11t-35.5 -13t-16 -34.5q0 -336 11 -355q7 -12 28.5 -17t42 2.5t24.5 26.5zM368 665l-50 -51q-17 16 -52.5 46l-47.5 40q-7 -6 -25 -23.5t-35 -30.5l-45 -35q-8 8 -26.5 23t-29.5 29l161 137q54 -45 65 -56q15 -16 45 -42
t40 -37z" />
    <glyph glyph-name="otilde" unicode="&#xf5;" horiz-adv-x="421" 
d="M383 241v-54v-47t-1 -39.5t-3 -31t-5 -20.5q-16 -34 -54 -45t-105 -11q-151 0 -158 74t-7 225q0 28 -1 69.5t-1.5 75.5t-0.5 68q1 42 31 59.5t84 21.5q31 1 73 2t83.5 -13t49.5 -41q5 -17 7.5 -30.5t4 -29t2 -23.5t0.5 -29.5v-30.5q1 -48 1 -150zM269 104q5 27 4.5 138.5
t-5.5 208.5q-1 21 -17.5 32.5t-36 11t-35.5 -13t-16 -34.5q0 -336 11 -355q7 -12 28.5 -17t42 2.5t24.5 26.5zM384 737q-22 -56 -47 -76t-81 -20q-17 0 -51.5 17t-49.5 17q-44 -2 -54 -40q-10 3 -37 16.5t-39 17.5q23 45 49 65.5t81 21.5q25 1 54.5 -17.5t44.5 -18.5
q13 0 20.5 1t20 11.5t17.5 31.5q58 -23 72 -27z" />
    <glyph glyph-name="odieresis" unicode="&#xf6;" horiz-adv-x="412" 
d="M374 241v-54v-47t-1 -39.5t-3 -31t-5 -20.5q-16 -34 -53.5 -45t-105.5 -11q-151 0 -158 74t-7 225q0 28 -1 69.5t-1.5 75.5t-0.5 68q1 42 31 59.5t84 21.5q31 1 73 2t83.5 -13t49.5 -41q5 -17 7.5 -30.5t4 -29t2 -23.5t0.5 -29.5v-30.5q1 -48 1 -150zM260 104
q5 27 4.5 138.5t-5.5 208.5q-1 21 -17.5 32.5t-36 11t-35.5 -13t-16 -34.5q0 -336 11 -355q7 -12 28.5 -17t42 2.5t24.5 26.5zM342 748q18 -56 -30 -85q-18 -10 -43 -6t-38 18q-10 16 -15 26.5t-5 25.5t9 30q12 21 38 29t51 -1.5t33 -36.5zM178 755q21 -36 -12 -87
q-13 -13 -34.5 -15.5t-38.5 8.5q-24 15 -34.5 37.5t-2.5 47.5q8 27 33 36.5t51 1.5t38 -29z" />
    <glyph glyph-name="divide" unicode="&#xf7;" horiz-adv-x="613" 
d="M328 564q10 -27 2 -56t-35 -45q-18 -12 -51.5 -11t-47.5 17q-18 14 -22 48.5t11 63.5q14 23 44.5 31t59.5 -5t39 -43zM440 304h-374q-1 15 -1 110q312 0 374 -2zM327 220q10 -28 1.5 -57t-33.5 -45q-19 -13 -52.5 -12t-47.5 18q-18 14 -23 48.5t11 63.5q14 23 45 31
t60.5 -4.5t38.5 -42.5z" />
    <glyph glyph-name="oslash" unicode="&#xf8;" horiz-adv-x="412" 
d="M413 604l-47 -101q6 -73 7 -112q1 -48 1 -150v-54v-47t-1 -39.5t-3 -31t-5 -20.5q-16 -34 -53.5 -45t-105.5 -11q-58 0 -93 12l-36 -77l-50 25l38 77q-15 19 -17 37q-7 74 -7 225q0 28 -1 69.5t-1.5 75.5t-0.5 68q1 42 31 59.5t84 21.5q130 10 173 -31q34 55 41 76z
M260 426l-1 25q-1 17 -12 28t-26 13.5t-30.5 -0.5t-26 -15.5t-10.5 -29.5q0 -157 1 -230zM269 320l-104 -203q3 -26 25 -35.5t44.5 -2t25.5 24.5q9 41 9 216z" />
    <glyph glyph-name="ugrave" unicode="&#xf9;" horiz-adv-x="460" 
d="M397 -11q-19 -2 -54 -2t-50 -1l-8 68q-27 -17 -56.5 -28t-64 -9t-53.5 26q-19 14 -37 53q-18 68 -23.5 149.5t-5 193t-1.5 151.5l120 -2q4 -80 2 -143t1 -140t15 -137q7 -38 65 -40q35 -2 46 38l-11 420q14 1 38.5 3t43 3t33.5 0q4 -144 0 -603zM298 678l-61 -52l-40 47
l-36.5 42.5t-32.5 42.5l86 72q73 -131 84 -152z" />
    <glyph glyph-name="uacute" unicode="&#xfa;" horiz-adv-x="460" 
d="M397 -11q-19 -2 -54 -2t-50 -1l-8 68q-27 -17 -56.5 -28t-64 -9t-53.5 26q-19 14 -37 53q-18 68 -23.5 149.5t-5 193t-1.5 151.5l120 -2q4 -80 2 -143t1 -140t15 -137q7 -38 65 -40q35 -2 46 38l-11 420q14 1 38.5 3t43 3t33.5 0q4 -144 0 -603zM325 780
q-17 -22 -46 -64.5t-56 -74.5l-70 38q17 31 38.5 76t40.5 77z" />
    <glyph glyph-name="ucircumflex" unicode="&#xfb;" horiz-adv-x="460" 
d="M397 -11q-19 -2 -54 -2t-50 -1l-8 68q-27 -17 -56.5 -28t-64 -9t-53.5 26q-19 14 -37 53q-18 68 -23.5 149.5t-5 193t-1.5 151.5l120 -2q4 -80 2 -143t1 -140t15 -137q7 -38 65 -40q35 -2 46 38l-11 420q14 1 38.5 3t43 3t33.5 0q4 -144 0 -603zM392 665l-50 -51
q-17 16 -53 46t-47 40q-7 -6 -25 -23.5t-35 -30.5l-45 -35q-8 8 -26.5 23t-29.5 29l161 137q54 -45 65 -56q15 -16 45 -42t40 -37z" />
    <glyph glyph-name="udieresis" unicode="&#xfc;" horiz-adv-x="460" 
d="M397 -11q-19 -2 -54 -2t-50 -1l-8 68q-27 -17 -56.5 -28t-64 -9t-53.5 26q-19 14 -37 53q-18 68 -23.5 149.5t-5 193t-1.5 151.5l120 -2q4 -80 2 -143t1 -140t15 -137q7 -38 65 -40q35 -2 46 38l-11 420q14 1 38.5 3t43 3t33.5 0q4 -144 0 -603zM375 748q18 -56 -30 -85
q-18 -10 -43 -6t-38 18q-10 16 -15 26.5t-5 25.5t9 30q12 21 38 29t51 -1.5t33 -36.5zM211 755q21 -36 -12 -87q-13 -13 -34.5 -15.5t-38.5 8.5q-24 15 -34.5 37.5t-2.5 47.5q8 27 33 36.5t51 1.5t38 -29z" />
    <glyph glyph-name="yacute" unicode="&#xfd;" horiz-adv-x="482" 
d="M451 581l-235 -774l-42 12t-54 17q2 37 28.5 135.5t32.5 141.5q-19 79 -60.5 213.5t-54.5 181.5q-16 57 -25 80q19 2 52 12t46 13q25 -57 56 -165t50 -157q18 46 55.5 157t57.5 162q16 -8 46.5 -13t46.5 -16zM357 780q-17 -22 -46 -64.5t-56 -74.5l-70 38q17 31 38.5 76
t40.5 77z" />
    <glyph glyph-name="thorn" unicode="&#xfe;" horiz-adv-x="428" 
d="M387 294v-37.5t-0.5 -45t-1.5 -43.5t-3 -45t-5.5 -36.5t-9.5 -32t-13 -18.5q-21 -17 -86 -17.5t-110 14.5q-1 -45 5 -129t5 -97l-125 1l-10 596l-1 390q15 -1 54.5 0.5t50.5 -0.5q3 -246 5 -254q25 12 41.5 18.5t41 13t48 6t45.5 -7.5q24 -13 40 -33t23 -40t9.5 -49
t1.5 -50.5t-3 -54t-2 -49.5zM275 414q-1 31 -16.5 44t-37 10t-41 -11.5t-34.5 -19.5l6 -276q13 -19 28 -28q13 -6 27 -9.5t30 -1t22 14.5q26 49 16 277z" />
    <glyph glyph-name="ydieresis" unicode="&#xff;" horiz-adv-x="482" 
d="M449 581l-235 -774l-42 12t-54 17q2 37 28.5 135.5t32.5 141.5q-19 79 -60.5 213.5t-54.5 181.5q-16 57 -25 80q19 2 52 12t46 13q25 -57 56 -165t50 -157q18 46 55.5 157t57.5 162q16 -8 46.5 -13t46.5 -16zM384 748q18 -56 -30 -85q-18 -10 -43 -6t-38 18
q-10 16 -15 26.5t-5 25.5t9 30q12 21 38 29t51 -1.5t33 -36.5zM220 755q21 -36 -12 -87q-13 -13 -34.5 -15.5t-38.5 8.5q-24 15 -34.5 37.5t-2.5 47.5q8 27 33 36.5t51 1.5t38 -29z" />
    <glyph glyph-name="dotlessi" unicode="&#x131;" horiz-adv-x="271" 
d="M200 0q-18 -1 -60 -1t-63 -1q-13 273 -11 582q14 0 51.5 2t56.5 2q24 -185 26 -584z" />
    <glyph glyph-name="Lslash" unicode="&#x141;" horiz-adv-x="380" 
d="M365 0h-285l-8 5l-3 321q-44 -20 -75 -29v112q12 3 35 11t36 10q2 75 1.5 112.5t-3 121.5t-3.5 121l8 6l107 -1l14 -324l37 12t56 15q7 -103 7 -109l-98 -34l11 -229q63 -5 161 -1q1 -15 0.5 -58.5t1.5 -61.5z" />
    <glyph glyph-name="lslash" unicode="&#x142;" horiz-adv-x="299" 
d="M277 384l-98 -34q1 -36 2.5 -108t2.5 -108q1 -13 6 -21t16 -11.5t18.5 -4.5t25 -1h23.5q6 -85 2 -111q-103 0 -143 15q-58 21 -64 76q-11 107 -13 249q-42 -19 -73 -28v112q11 2 77 26q3 1 1.5 46t-1.5 47l3 269q18 2 62 2.5t64 3.5q-1 -64 -3.5 -189t-2.5 -145
q13 3 39 11t49 13q7 -103 7 -109z" />
    <glyph glyph-name="OE" unicode="&#x152;" horiz-adv-x="644" 
d="M626 680l-184 -12l-7 -208q76 -4 148 -12q4 -64 -4 -104h-142q-3 -12 -2 -92.5t4 -120.5q18 0 85 4.5t97 0.5q-2 -17 0.5 -60t-0.5 -64q-104 -9 -259 1q-40 -24 -55 -30q-6 0 -28 -0.5t-31.5 -0.5t-30 0.5t-31.5 2.5t-27.5 6t-27 10t-22 15.5t-18.5 21.5
q-10 16 -17.5 43.5t-12 53t-7.5 69.5t-4 68t-2.5 75.5t-2.5 67.5t-2.5 56t-2 62.5t-0.5 59t4 59.5t11 49t19.5 43t30.5 27q39 21 116.5 27t120.5 -20q28 1 124.5 7.5t154.5 8.5q0 -11 2 -48.5t3 -65.5zM319 181q5 316 -10 458q-5 48 -80 43q-48 -14 -53 -53q-4 -222 18 -484
q2 -26 30.5 -34.5t47.5 0.5q25 2 36 23.5t11 46.5z" />
    <glyph glyph-name="oe" unicode="&#x153;" horiz-adv-x="596" 
d="M560 303l-2 -22q-20 -1 -88 -1.5t-100 -2.5q1 -9 1 -50t5 -69t19 -42q48 -21 140 -15l1 -112q-165 -15 -211 39q-33 -35 -123 -35q-151 0 -158 74t-7 225q0 28 -1 69.5t-1.5 75.5t-0.5 68q1 42 31 59.5t84 21.5q114 9 165 -15q13 8 23 10q103 12 143 3q38 -9 56 -35
q14 -20 20 -53.5t6.5 -58.5t-1 -71.5t-1.5 -62.5zM474 464q0 19 -15.5 31t-36.5 12q-13 0 -22.5 -4t-15 -12.5t-8.5 -15.5t-4 -21l-1.5 -21t0.5 -22t1 -18q1 -2 47 -2h54zM256 117q5 27 4.5 131.5t-5.5 202.5q-1 21 -17.5 32.5t-36 11t-35.5 -13t-16 -34.5q0 -323 11 -342
q7 -12 28.5 -17t42 2.5t24.5 26.5z" />
    <glyph glyph-name="Scaron" unicode="&#x160;" horiz-adv-x="372" 
d="M352 838q-10 -11 -40 -37t-45 -42q-11 -11 -65 -56l-161 137q11 14 29.5 29t26.5 23l45 -35q17 -13 35 -30.5t25 -23.5q11 10 47 40t53 46zM343 580q-4 -1 -19.5 -2.5t-20.5 -3t-15.5 -4t-17.5 -7t-14 -11.5q-29 -29 -34.5 -75.5t18.5 -87.5q6 -10 29.5 -46t32.5 -51.5
t22.5 -49.5t13.5 -58t-8.5 -57.5t-31.5 -66.5q-65 -64 -267 -64l-2 116q7 0 26 0.5t34 1.5t36 4t36 8.5t29 16.5t21 26q6 27 -9 57t-37 54.5t-43.5 61t-26.5 71.5q-10 71 5.5 137.5t65.5 104.5q48 35 158 44z" />
    <glyph glyph-name="scaron" unicode="&#x161;" horiz-adv-x="324" 
d="M271 495q-33 -10 -45 -15.5t-21.5 -17.5t-10.5 -34q-2 -40 10.5 -71t34 -65t31.5 -63q19 -67 12 -118t-32 -75q-20 -19 -49.5 -31t-51.5 -15.5t-51.5 -6t-35.5 -3.5l-16 113q10 2 32 3.5t35.5 4t27.5 10t19 23.5t0 42q-5 27 -26.5 61t-42.5 78t-29 99q-5 33 13.5 76.5
t49.5 68.5q17 13 37 22.5t30.5 12.5t46.5 12zM347 745q-11 -11 -40.5 -37t-44.5 -42q-12 -12 -21.5 -20.5t-23 -19t-20.5 -16.5l-161 137q11 14 29.5 29t26.5 23l45 -35q17 -13 35 -30.5t25 -23.5q11 10 47 40t53 46z" />
    <glyph glyph-name="Ydieresis" unicode="&#x178;" horiz-adv-x="569" 
d="M556 737l-192 -272l17 -461q-12 -8 -60.5 -4t-66.5 0l-14 448l-227 257l95 83q21 -21 83 -95t101 -116q39 42 96.5 121t70.5 94zM431 857q18 -56 -30 -85q-18 -10 -43 -6t-38 18q-10 16 -15 26.5t-5 25.5t9 30q12 21 38 29t51 -1.5t33 -36.5zM267 864q21 -36 -12 -87
q-13 -13 -34.5 -15.5t-38.5 8.5q-24 15 -34.5 37.5t-2.5 47.5q8 27 33 36.5t51 1.5t38 -29z" />
    <glyph glyph-name="Zcaron" unicode="&#x17d;" horiz-adv-x="490" 
d="M400 833q-10 -11 -40 -37t-45 -42q-11 -11 -65 -56l-161 137q11 14 29.5 29t26.5 23l45 -35q17 -13 35 -30.5t25 -23.5l47.5 40t52.5 46zM462 0q-57 -4 -120.5 -4t-140.5 2t-119 2q18 92 75 270t98 293q-76 -4 -220 -4q1 18 1.5 48t1.5 49t4 27q68 -2 72 2q161 0 211 2
q38 2 107 -3q-17 -64 -82 -255t-100 -303q81 -7 201 4q13 -58 11 -130z" />
    <glyph glyph-name="zcaron" unicode="&#x17e;" horiz-adv-x="393" 
d="M359 0q-48 -2 -144.5 -1t-144.5 0q18 86 60 255l57 233q-10 1 -73 0t-80 -1q2 16 -0.5 55t0.5 56q18 0 83.5 4t99.5 3l118 -3q-10 -57 -25.5 -124.5t-26.5 -109l-34 -125.5l-30 -111q22 -3 56 -4.5t56 -2t22 -1.5zM366 745q-10 -11 -40 -37t-45 -42q-11 -11 -65 -56
l-161 137q11 14 29.5 29t26.5 23l45 -35q17 -13 35 -30.5t25 -23.5l47.5 40t52.5 46z" />
    <glyph glyph-name="florin" unicode="&#x192;" horiz-adv-x="355" 
d="M314 744q-9 -1 -33 -2t-37 -3t-26 -13t-14 -31q-4 -102 -2 -113l102 -2q3 -100 -2 -108q-89 3 -96 0q-3 -1 -3 -4l5 -428q0 -8 1 -35.5t0.5 -38t-2.5 -33t-7.5 -34t-14.5 -26.5t-24.5 -24t-36.5 -15q-52 -19 -136 -19q-2 13 0.5 45.5t1.5 47.5q3 0 16 2t18 3t16.5 3.5
t17.5 5t14.5 7.5t12.5 11t7.5 14.5t3.5 18.5q5 33 2 127l-6 377h-66q-7 -4 -6 68q1 24 3 38q44 0 69 1q1 10 1.5 41.5t2.5 60t8.5 60.5t25 55.5t46.5 32.5q62 19 136 19q2 -14 1.5 -51.5t0.5 -57.5z" />
    <glyph glyph-name="circumflex" unicode="&#x2c6;" horiz-adv-x="425" 
d="M368 665l-50 -51q-17 16 -52.5 46l-47.5 40q-7 -6 -25 -23.5t-35 -30.5l-45 -35q-8 8 -26.5 23t-29.5 29l161 137q54 -45 65 -56q15 -16 45 -42t40 -37z" />
    <glyph glyph-name="caron" unicode="&#x2c7;" horiz-adv-x="425" 
d="M368 745q-10 -11 -40 -37t-45 -42q-11 -11 -65 -56l-161 137q11 14 29.5 29t26.5 23l45 -35q17 -13 35 -30.5t25 -23.5l47.5 40t52.5 46z" />
    <glyph glyph-name="breve" unicode="&#x2d8;" horiz-adv-x="414" 
d="M363 786q-15 -82 -50 -120q-27 -27 -116 -27q-33 0 -59 12t-42.5 35.5t-26 44.5t-18.5 51q13 5 40 7t28 2q2 -5 6.5 -18t9.5 -21q13 -23 28 -32.5t44 -9.5q41 0 56.5 13.5t35.5 67.5z" />
    <glyph glyph-name="dotaccent" unicode="&#x2d9;" horiz-adv-x="338" 
d="M227 768q21 -36 -12 -87q-13 -13 -34.5 -15.5t-38.5 8.5q-24 15 -34.5 37.5t-2.5 47.5q8 27 33 36.5t51 1.5t38 -29z" />
    <glyph glyph-name="ring" unicode="&#x2da;" horiz-adv-x="430" 
d="M328 691q0 -52 -40 -81q-62 -57 -148 -5q-46 29 -37 87q19 107 107 107q49 0 83.5 -30.5t34.5 -77.5zM244 691q0 15 -10 24.5t-24 9.5t-24 -9.5t-10 -24.5q0 -16 6.5 -25.5t27.5 -15.5q14 0 24 13t10 28z" />
    <glyph glyph-name="ogonek" unicode="&#x2db;" horiz-adv-x="271" 
d="M221 -128q2 -9 -2.5 -41t-3.5 -42q-4 0 -16.5 -0.5t-19 0t-17.5 1.5t-23 4.5t-26 9.5q-55 34 -60 81q0 5 -2.5 22.5t-2.5 25.5t-0.5 23t2 29.5t6.5 31.5l96 -2q-10 -31 -9.5 -45t6 -32.5t5.5 -24.5q8 -18 18 -27t19.5 -11t29.5 -3z" />
    <glyph glyph-name="tilde" unicode="&#x2dc;" horiz-adv-x="429" 
d="M375 737q-22 -56 -47 -76t-81 -20q-17 0 -51.5 17t-49.5 17q-44 -2 -54 -40q-10 3 -37 16.5t-39 17.5q23 45 49 65.5t81 21.5q25 1 54.5 -17.5t44.5 -18.5q13 0 20.5 1t20 11.5t17.5 31.5q58 -23 72 -27z" />
    <glyph glyph-name="hungarumlaut" unicode="&#x2dd;" horiz-adv-x="486" 
d="M384 765q-10 -30 -22 -57.5t-29.5 -61.5t-28.5 -60l-66 23q20 83 56 186zM251 767q-14 -38 -41 -89t-40 -85l-68 24q26 96 59 182z" />
    <glyph glyph-name="endash" unicode="&#x2013;" horiz-adv-x="698" 
d="M577 419q1 -25 -1.5 -68.5t-2.5 -44.5l-444 -2q0 13 -0.5 56t-1.5 61q48 2 245.5 0t204.5 -2z" />
    <glyph glyph-name="emdash" unicode="&#x2014;" horiz-adv-x="896" 
d="M774 306l-645 -3q0 15 -0.5 58t-1.5 61l647 -2q2 -37 0 -114z" />
    <glyph glyph-name="quoteleft" unicode="&#x2018;" horiz-adv-x="232" 
d="M229 854l-20.5 -64.5t-22 -71.5l-18 -62t-16.5 -63.5t-8 -48.5q-16 2 -69 16t-65 16q22 75 61 164.5t76 151.5z" />
    <glyph glyph-name="quoteright" unicode="&#x2019;" horiz-adv-x="232" 
d="M219 868q-65 -226 -120 -317l-89 40q24 62 47 156t29 152q11 2 37 -4.5t56.5 -15.5t39.5 -11z" />
    <glyph glyph-name="quotesinglbase" unicode="&#x201a;" horiz-adv-x="232" 
d="M200 188q-62 -211 -126 -318l-89 40q24 61 45.5 156.5t28.5 156.5q11 2 39 -5.5t60 -17.5t42 -12z" />
    <glyph glyph-name="quotedblleft" unicode="&#x201c;" horiz-adv-x="359" 
d="M402 849q-24 -62 -47 -156t-29 -152q-11 -2 -37 4.5t-56.5 15.5t-39.5 11q65 226 120 317zM229 857l-20.5 -64.5t-22 -71.5l-18 -62t-16.5 -63.5t-8 -48.5q-16 2 -69 16t-65 16q22 75 61 164.5t76 151.5z" />
    <glyph glyph-name="quotedblright" unicode="&#x201d;" horiz-adv-x="359" 
d="M402 850q-22 -75 -61 -164.5t-76 -151.5l-82 38l20.5 64.5t22 71.5l18 62t16.5 63.5t8 48.5q16 -2 69 -16t65 -16zM219 857q-65 -226 -120 -317l-89 40q24 62 47 156t29 152q11 2 37 -4.5t56.5 -15.5t39.5 -11z" />
    <glyph glyph-name="quotedblbase" unicode="&#x201e;" horiz-adv-x="359" 
d="M377 181q-22 -75 -61 -164.5t-76 -151.5l-82 38l20.5 64.5t22 71.5l18 62t16.5 63.5t8 48.5q16 -2 69 -16t65 -16zM194 188q-65 -226 -120 -317l-89 40q24 62 47 156t29 152q11 2 37 -4.5t56.5 -15.5t39.5 -11z" />
    <glyph glyph-name="dagger" unicode="&#x2020;" horiz-adv-x="440" 
d="M346 595q0 -68 -1 -100q-17 0 -51 -1.5t-52 -1.5q0 -174 -2 -390t-2 -294q-19 -3 -37 -3.5t-42 0.5t-34 1q0 23 -1.5 157.5t-2 242.5t2.5 286q-15 -1 -54 -0.5t-56 -1.5l1 106q79 -2 106 -4l-1 206q93 -2 116 0q2 -103 3 -203h107z" />
    <glyph glyph-name="daggerdbl" unicode="&#x2021;" 
d="M350 96q2 -14 -1 -98l-111 -1q0 -7 1 -38.5t1.5 -63t-0.5 -89.5q-18 0 -57 0.5t-57 0.5v192h-104q-6 54 0 100q45 2 102 -3l2 397l-112 -1q0 10 -1.5 34t-1 41.5t4.5 30.5q27 1 106 -4l1 205q15 0 63.5 1t53.5 -2q-3 -182 -3 -201h109q0 -67 -1 -104h-107l2 -389
q10 -1 47.5 -4t62.5 -4z" />
    <glyph glyph-name="bullet" unicode="&#x2022;" horiz-adv-x="518" 
d="M410 308q-20 -58 -74.5 -79.5t-110.5 -4t-84 63.5q-22 35 -20.5 71.5t16 66.5t38.5 51q37 31 85 36.5t86 -17.5q51 -31 67.5 -81.5t-3.5 -106.5z" />
    <glyph glyph-name="ellipsis" unicode="&#x2026;" horiz-adv-x="700" 
d="M674 44q-10 -34 -40 -46.5t-61 -3t-47 35.5q-11 19 -12 38t5 33t18 34q18 17 45.5 22t51.5 -7q62 -36 40 -106zM431 43q-10 -34 -40 -46t-61 -1.5t-46 35.5q-12 19 -13 38t5 33t18 34q17 16 48 19.5t54 -9.5q57 -33 35 -103zM198 40q-11 -34 -42 -46t-63 -1.5t-47 35.5
q-12 19 -11 38.5t6.5 30.5t19.5 34q18 17 45.5 22t51.5 -7q62 -36 40 -106z" />
    <glyph glyph-name="perthousand" unicode="&#x2030;" horiz-adv-x="1073" 
d="M1037 123q-4 -61 -13 -81q-17 -36 -43 -46.5t-87 -10.5q-32 0 -46 3t-30.5 20t-33.5 54q-5 33 -6 75q0 65 1 141q1 41 32 69.5t56 32.5q18 0 48.5 1.5t64 -12.5t41.5 -41q7 -26 9.5 -45.5t3 -52t1.5 -45.5q2 -44 2 -62zM303 536q2 -51 -12 -82q-18 -38 -36 -47.5
t-76 -9.5q-26 0 -40 1.5t-34 8t-35 23.5t-27 44q-5 33 -6 75q0 65 1 141q1 41 32 69.5t56 32.5q18 0 50.5 1.5t68 -12.5t43.5 -41q5 -17 7.5 -30.5t4 -29.5t2 -23.5t0.5 -29v-30.5q1 -48 1 -61zM563 763q-23 -43 -42.5 -93.5t-47 -134.5t-35.5 -106q-28 -79 -69 -206.5
t-81 -239.5l-96 42l66 178q26 71 90.5 267t123.5 333zM718 116q-3 -52 -12 -72q-18 -38 -34.5 -47.5t-73.5 -9.5q-26 0 -40 1.5t-34 8t-35 23.5t-27 44q-5 33 -6 75q0 65 1 141q1 41 32 69.5t56 32.5q18 0 49.5 1.5t66 -12.5t42.5 -41q5 -17 7.5 -30.5t4 -29t2 -23.5
t0.5 -29.5v-30.5q1 -65 1 -71zM945 96q7 35 -1 149q-2 28 -21.5 39t-38.5 -1.5t-19 -41.5q0 -126 5 -144q2 -7 6 -13q7 -13 22 -17.5t29 3t18 26.5zM212 508q4 22 -1 149q-1 28 -22.5 39t-43 -1.5t-21.5 -41.5q0 -126 5 -144q2 -7 6 -13q7 -13 24 -17.5t33.5 3t19.5 26.5z
M627 98q7 30 -1 149q-2 28 -22.5 39t-40.5 -1.5t-20 -41.5q0 -126 5 -144q2 -7 6 -13q7 -13 22.5 -17.5t31 3t19.5 26.5z" />
    <glyph glyph-name="guilsinglleft" unicode="&#x2039;" horiz-adv-x="450" 
d="M351 220l-61 -77l-135.5 124.5l-104.5 98.5q6 10 27 32.5l51 53l55.5 56l55.5 55l37 36.5q40 -34 69 -78q-27 -26 -75 -77.5t-75 -77.5q10 -10 75 -69.5t81 -76.5z" />
    <glyph glyph-name="guilsinglright" unicode="&#x203a;" horiz-adv-x="477" 
d="M398 365l-104.5 -98.5l-135.5 -124.5l-61 77q16 17 81 76.5t75 69.5q-28 26 -75.5 77.5t-74.5 77.5q29 44 69 78l37 -36.5l55.5 -55l55.5 -56l51 -53t27 -32.5z" />
    <glyph glyph-name="fraction" unicode="&#x2044;" horiz-adv-x="299" 
d="M321 768q-22 -43 -44 -100.5t-49.5 -143t-37.5 -112.5l-151 -433l-104 43l70 178q38 96 95.5 283.5t112.5 316.5z" />
    <glyph glyph-name="Euro" unicode="&#x20ac;" horiz-adv-x="462" 
d="M48 388l50 3q0 19 2 67l-51 -3v50l54 3q7 90 18 157q9 51 37 74t86 40q55 22 177 18l-3 -114h-26h-28.5t-25.5 -1t-27 -3.5t-23 -7t-22 -11.5t-16.5 -17.5t-13.5 -23.5q-6 -72 -7 -111l128 3v-50l-131 -3q0 -12 -0.5 -33.5t-0.5 -33.5l129 5v-44l-128 -7q1 -64 6 -134
q9 -115 179 -99q-1 -17 -1.5 -52.5t-2.5 -65.5q-264 0 -289 100q-19 77 -21 250l-51 -4z" />
    <glyph glyph-name="trademark" unicode="&#x2122;" horiz-adv-x="901" 
d="M793 399h-78q2 63 0 131.5t-2 129.5l-18 -34l-15.5 -29t-12.5 -24t-11 -20.5l-9.5 -15.5t-9 -13l-8 -9.5t-8.5 -8l-9 -5.5q-20 2 -96 163q1 -37 2 -88t1 -71.5t-1 -49t-4 -56.5q-11 0 -30 -0.5t-32 -0.5t-21 1l7 401h85l19.5 -32l18 -29.5l14 -24l13 -23l10 -18.5
t9 -19.5t6 -17t5.5 -18.5q30 67 93 178q3 1 72 4zM362 716q0 -2 -92 -2q0 -52 2 -156t1 -157l-86 -2l-1 317q-23 1 -38 0.5t-31 -0.5l-16 -1q2 13 1.5 44t-0.5 35q22 3 67.5 3t107 -1.5t85.5 -1.5v-78z" />
    <glyph glyph-name="minus" unicode="&#x2212;" horiz-adv-x="518" 
d="M451 424q0 -87 -2 -128l-384 -1v127q67 2 386 2z" />
    <glyph glyph-name="fi" unicode="&#xfb01;" horiz-adv-x="554" 
d="M467 768q21 -36 -12 -87q-13 -13 -34.5 -15.5t-38.5 8.5q-24 15 -34.5 37.5t-2.5 47.5q8 27 33 36.5t51 1.5t38 -29zM497 0q-19 -1 -60 -1t-63 -1q-4 84 -3.5 241t-7.5 238l-161 -2l8 -475h-112l-6 477h-67q-7 -4 -3 106q45 0 70 1q0 18 1.5 47l3 57t19 53.5t50.5 35.5
q62 19 146 19q2 -13 -0.5 -45.5t-1.5 -47.5q-63 -6 -83 -20q-22 -14 -23 -43q-3 -53 -2 -58l269 2q24 -185 26 -584z" />
    <glyph glyph-name="fl" unicode="&#xfb02;" horiz-adv-x="554" 
d="M566 -15q-103 0 -143 15q-58 21 -64 76q-10 100 -11 224t2 228l2 172q-96 0 -111 -3q-35 -9 -37 -46q-7 -44 -2 -69l83 2l-1 -107l-82 -2l8 -475h-112l-6 477h-67q-5 39 -3 106q45 0 70 1q1 10 1.5 37t2.5 50t8.5 48.5t24.5 44t47 26.5q17 6 40.5 7t53.5 -0.5t44 -0.5
q113 3 151 -10q-3 -270 10 -652q0 -13 5 -21t16 -11.5t19 -4.5t25.5 -1h23.5q6 -85 2 -111z" />
  </font>
</defs>
</svg>
