<?xml version="1.0" standalone="no"?>
<!DOCTYPE svg PUBLIC "-//W3C//DTD SVG 1.1//EN" "http://www.w3.org/Graphics/SVG/1.1/DTD/svg11.dtd" >
<svg>
<metadata>
Created by FontForge 20090622 at Wed Dec 16 14:49:27 2015
 By deploy user
2000 Steffen Sauerteig, Henning Wagenbreth, published by Fontshop International for the FontFont library.
</metadata>
<defs>
<font id="PraterSansOne-Bold" horiz-adv-x="602" >
  <font-face 
    font-family="PraterSansOne-Bold"
    font-weight="500"
    font-stretch="normal"
    units-per-em="1000"
    panose-1="0 0 0 0 0 0 0 0 0 0"
    ascent="800"
    descent="-200"
    x-height="593"
    cap-height="797.5"
    bbox="-67 -264.889 1151.8 1032"
    underline-thickness="20"
    underline-position="-123"
    unicode-range="U+0020-U+FB02"
  />
<missing-glyph horiz-adv-x="500" 
 />
    <glyph glyph-name=".notdef" horiz-adv-x="500" 
 />
    <glyph glyph-name=".null" horiz-adv-x="0" 
 />
    <glyph glyph-name="nonmarkingreturn" horiz-adv-x="333" 
 />
    <glyph glyph-name="space" unicode=" " horiz-adv-x="355" 
 />
    <glyph glyph-name="exclam" unicode="!" horiz-adv-x="271" 
d="M32 806q43 0 75.5 2t53.5 2t63 -4q1 -74 -0.5 -161.5t-5 -209.5t-4.5 -197l-162 -12q-1 92 -6 192.5t-6 126.5zM179 183q35 -11 49.5 -52.5t-11.5 -106.5q-52 -37 -94.5 -31t-67 41t-15.5 75q9 39 33.5 60t52 20.5t53.5 -6.5z" />
    <glyph glyph-name="quotedbl" unicode="&#x22;" horiz-adv-x="454" 
d="M29 795l177 -1q-2 -106 -20 -303h-136q-3 52 -10 116t-10 106.5t-1 81.5zM247 795l176 1q0 -43 -2 -84t-7.5 -106t-8.5 -115h-138q-1 75 -10 170t-10 134z" />
    <glyph glyph-name="numbersign" unicode="#" horiz-adv-x="641" 
d="M612 130l-77 -1l1 -129q-4 0 -58 -1.5t-105 2.5l-9 119l-82 2q0 -6 -1 -55.5t1 -66.5q-30 -5 -76.5 -2.5t-77.5 2.5l-9 132h-82q-1 18 -0.5 60t-3.5 54q30 2 86 2q-1 16 -1 38.5t-2 34.5l-85 1l-2 137h85l1 142q23 0 49.5 0.5t54.5 2t40 1.5q4 -1 6 -26.5t4 -65t5 -60.5
q47 1 77 0q3 47 1.5 83.5t0.5 68.5q26 -1 84.5 -3.5t84.5 -2.5l1 -144l79 2q4 -64 6 -113q0 -4 -12.5 -5.5t-36.5 -1.5t-38 -1q0 -1 -1.5 -31.5t0.5 -53.5q21 -1 44 -1t31.5 0.5t15.5 -0.5zM273 342v-96l86 1l-3 95h-83z" />
    <glyph glyph-name="dollar" unicode="$" horiz-adv-x="452" 
d="M432 691l-80 -109q-83 63 -101 60q-24 -4 -33.5 -17t-6 -29.5t10.5 -32.5t14 -27l8 -11l99 -104q17 -11 40.5 -52t33.5 -81q34 -138 -28 -230q-47 -70 -131 -66q1 -18 1.5 -50.5t-0.5 -42.5q-6 0 -80 2v87q-78 0 -164 84l79 129q49 -52 78 -55q29 -2 41 10t11 48
q-1 34 -11.5 59t-22 37t-34.5 32.5t-37 35.5q-25 19 -50 58t-36 74q-47 145 46 245q31 35 97 44v93q21 1 43.5 0t34.5 -1q1 -31 -1 -92q33 -3 63.5 -14t55 -30t34.5 -28.5z" />
    <glyph glyph-name="percent" unicode="%" horiz-adv-x="954" 
d="M373 431q-21 -52 -56.5 -69t-106.5 -17q-53 0 -86 19.5t-70 87.5q-10 61 -8 205q1 55 47 91.5t88 41.5l61.5 2.5t78.5 -15.5t52 -50q10 -29 16.5 -76.5t4 -111t-20.5 -108.5zM896 54q-19 -52 -49.5 -68t-98.5 -21q-27 -2 -47.5 0.5t-44.5 11t-44.5 31t-36.5 57.5
q-4 26 -5.5 56t-1.5 48t1 55.5t1 48.5q1 38 27 68.5t55.5 44.5t54.5 18q41 5 101 -14.5t76 -67.5q2 -7 5 -19.5t8.5 -48t8.5 -67.5t1 -70t-11 -63zM263 512q2 7 5 16t2 18t-5 79q-1 28 -23 37t-43 -5t-21 -43v-52.5t1.5 -30.5t1.5 -14.5t4.5 -8t5.5 -9.5q7 -13 22.5 -17.5
t30.5 3.5t19 27zM779 120l3 12v3q-4 16 -8 88q-2 34 -32 40q-30 5 -47 -20q-8 -13 -8 -30q0 -40 1 -60.5t2 -25t3.5 -9t4.5 -10.5q3 -14 21.5 -19t37 3.5t22.5 27.5zM258 19l70 178q23 59 97.5 268t142.5 367l133 -71q-59 -155 -73 -195q-1 -4 -58 -157.5l-112 -301
l-60 -160.5z" />
    <glyph glyph-name="ampersand" unicode="&#x26;" horiz-adv-x="587" 
d="M573 271l-83 -117l85 -104l-97 -98l-89 88q-39 -32 -69 -44q-71 -34 -150.5 -24.5t-114.5 71.5q-27 47 -34 109t18 133t86 118q-62 85 -79.5 153.5t6.5 152.5q43 80 115 106.5t170 -8.5q64 -23 97 -91q19 -37 13.5 -101t-33.5 -129l-78 -113q-5 -2 6 -19t37 -51l26 -34
q51 74 60 75q13 2 108 -73zM303 605q2 29 -8.5 44.5t-39.5 21.5q-13 -1 -22 -4t-14 -5.5t-8.5 -8.5t-4.5 -8.5t-2.5 -12t-1.5 -11.5q11 -65 46 -120q2 3 10 12.5t11 13.5l9.5 13t9.5 15l7 14.5t5.5 17.5t2.5 18zM299 166q-4 9 -23 34.5l-36 46.5l-17 21q-13 -18 -18.5 -27
t-9 -24.5t-3.5 -37.5q1 -30 9.5 -43t30.5 -14q21 -2 45 14t22 30z" />
    <glyph glyph-name="quotesingle" unicode="'" horiz-adv-x="253" 
d="M29 804l192 -3q-1 -38 -5.5 -82.5t-13 -110.5t-13.5 -122l-139 1q-3 47 -10 118t-10 115.5t-1 83.5z" />
    <glyph glyph-name="parenleft" unicode="(" horiz-adv-x="498" 
d="M224 825q39 -20 77 -52t52 -42q-75 -108 -95.5 -167t-22.5 -175q-1 -40 15.5 -93.5t36.5 -80.5q4 -5 22 -30t37.5 -47.5t50.5 -53.5l-133 -107q-39 29 -66 55.5t-43.5 52t-24.5 41.5t-18 43t-15 38q-39 91 -41.5 196t40 217.5t128.5 204.5z" />
    <glyph glyph-name="parenright" unicode=")" horiz-adv-x="470" 
d="M189 -40q-34 22 -74.5 54.5l-53.5 42.5l31.5 42t27.5 36.5l21 29.5t18.5 29t13 26.5t12 30.5t7.5 32.5t7.5 41t4.5 47.5q4 47 -6 110.5t-33 98.5q-4 6 -20 34t-35.5 55t-49.5 58l122 93q55 -50 92 -99t49 -74.5t30 -72.5q27 -68 30 -146.5t-16 -159t-64.5 -161.5
t-113.5 -148z" />
    <glyph glyph-name="asterisk" unicode="*" horiz-adv-x="438" 
d="M342 844q2 -3 8.5 -11.5t8 -11t6 -9t6 -9l5 -8t5 -8.5t4 -8.5t4.5 -10.5l4.5 -11.5t4.5 -13.5q-20 -9 -49.5 -25t-48.5 -28l-20 -12l32 -36l33 -37.5t26 -25.5q-20 -15 -39.5 -31.5t-55.5 -40.5l-82 114l-76 -114q-8 4 -16.5 13t-14.5 12q-21 18 -33.5 24.5t-28.5 22.5
q2 2 13.5 18t29.5 38t38 40l-105 44l48 111l97 -56q-4 56 -10 122q37 4 60.5 1t58.5 -3l-15 -120q20 18 44 34t40.5 26t17.5 10z" />
    <glyph glyph-name="plus" unicode="+" horiz-adv-x="624" 
d="M206 160l-4 170l-140 -1q-4 30 -3 78t-1 78q23 2 69.5 1.5t72.5 0.5l3 156h173q1 -13 1.5 -75t1.5 -81q36 1 143 1q6 -84 3 -159h-145q0 -6 -0.5 -77.5t-2.5 -92.5q-30 3 -84 2t-87 -1z" />
    <glyph glyph-name="comma" unicode="," horiz-adv-x="284" 
d="M59 144q31 1 55.5 -7.5t37.5 -10.5q17 -3 48 -15t58 -16l-34 -81.5l-34 -81t-35.5 -66.5t-51.5 -71l-116 50q24 43 37.5 93.5t23 122t11.5 83.5z" />
    <glyph glyph-name="hyphen" unicode="-" horiz-adv-x="577" 
d="M65 470q145 1 447 1q0 -94 -4 -168l-445 -1z" />
    <glyph glyph-name="period" unicode="." horiz-adv-x="304" 
d="M193 216q32 -9 52.5 -32.5t25 -63.5t-21.5 -94q-65 -45 -117.5 -37t-83 50.5t-19.5 90.5q8 36 26.5 58t42.5 29t47 6.5t48 -7.5z" />
    <glyph glyph-name="slash" unicode="/" horiz-adv-x="608" 
d="M4 42l95 171l299 571q9 17 14 18q4 1 11 -2q8 -3 164 -65q-49 -79 -110.5 -201t-65.5 -129l-241 -452z" />
    <glyph glyph-name="zero" unicode="0" horiz-adv-x="616" 
d="M311 -9q-131 0 -188 51.5t-65 140.5q-4 41 -5.5 125.5t-1.5 87.5q-7 129 9 227q17 106 89 139q35 16 89 24.5t120.5 1.5t111.5 -36q84 -54 89 -150q7 -139 4 -283q-4 -227 -54 -277q-51 -51 -198 -51zM377 234q1 38 3.5 107t2 113.5t-6.5 101.5q-5 48 -16 61
q-15 20 -56 22q-17 -1 -29 -6t-18.5 -10t-11 -16t-5.5 -16t-2.5 -18t-1.5 -16q-1 -47 -3.5 -99.5l-3.5 -75t0.5 -64.5t5.5 -103q1 -13 3.5 -23t10 -21t23.5 -17t40 -5q34 1 49.5 28.5t15.5 56.5z" />
    <glyph glyph-name="one" unicode="1" horiz-adv-x="470" 
d="M193 597q-89 -54 -104 -62q-11 18 -22 43t-22 54.5t-17 43.5l209 119h136q6 -489 -1 -801q-36 0 -92 1t-99 0q1 74 2.5 232t3.5 239t6 131z" />
    <glyph glyph-name="two" unicode="2" horiz-adv-x="543" 
d="M123 578l-71 132q88 52 133.5 69t111.5 17q100 0 165 -76q43 -51 40 -129t-49 -131q-49 -56 -83 -90q-8 -8 -32 -28t-41 -38t-29 -41q-21 -42 -18 -81q39 1 128.5 -1t129.5 -2q5 -33 2 -84.5t3 -94.5q-51 0 -151 1t-165 0.5t-144 -5.5q-4 116 -1 173t22 113
q24 73 113 148q4 4 37.5 31t45.5 39q1 1 9.5 9t11 11.5t9.5 12.5t8 16.5t2 18.5t-3 23.5t-12 26.5q-52 32 -172 -40z" />
    <glyph glyph-name="three" unicode="3" horiz-adv-x="513" 
d="M260 -18q-88 5 -143 28q-69 31 -100 51l81 141q32 -28 104 -46q41 -9 69.5 14t30.5 61q1 22 -13 52.5t-42 38.5q-3 0 -31.5 4t-63.5 5l-1 145l74 3q34 1 54.5 30.5t17.5 56.5q-7 67 -66 73q-35 3 -123 -46l-69 133q129 99 284 65q37 -8 72 -37t46 -57q19 -47 23 -98
t-16 -104t-68 -82q48 -27 70 -75t18.5 -99t-14 -92.5t-25.5 -67.5q-23 -40 -75.5 -69.5t-93.5 -27.5z" />
    <glyph glyph-name="four" unicode="4" horiz-adv-x="563" 
d="M271 230q-16 -3 -71 -2t-116 3l-61 2q0 15 -1 25.5t-1 17t1 33.5t4 78q9 13 16 26l16 31l16 31q12 22 32 64.5l28 58.5q62 123 114 190q21 0 74.5 1t123.5 1l6 -396l74 -2l-1 -164h-84l1 -230l-176 2zM279 390l1 194l-81 -193z" />
    <glyph glyph-name="five" unicode="5" horiz-adv-x="503" 
d="M45 338q-1 65 11 452h369l3 -169q-16 0 -97 -1t-118 0l-4 -121q166 25 222 -98q21 -45 19 -149.5t-26 -165.5q-34 -85 -168 -109q-41 0 -73 5.5t-54.5 18t-32 19.5t-25.5 22l-16.5 15t-9.5 8.5t-5.5 5t-6 6.5t-9.5 12t-18 21l115 125q30 -34 40 -43q38 -36 68 -40
q24 -4 35 17t13 65q4 72 -48 110q-53 10 -184 -6z" />
    <glyph glyph-name="six" unicode="6" horiz-adv-x="527" 
d="M54 513q33 133 100 190q57 49 93.5 68t138.5 45l53 -145l-49 -18t-41.5 -17.5t-38.5 -21.5t-31 -27t-28.5 -37t-21 -47.5t-18.5 -62.5q20 9 30 13t34.5 7.5t58.5 3.5q73 -1 109 -54.5t47 -164.5q6 -65 -1.5 -109t-31.5 -71t-52 -41.5t-74 -27.5q-39 -1 -69 -1.5t-55 7
t-43 14t-32.5 19t-23.5 21.5t-17 23t-11.5 22t-7.5 19t-5 14l-6 40.5t-7 51.5t-6.5 53.5t-5 61t-1 57.5t3 61t9.5 54zM332 205q2 63 -13.5 85.5t-56.5 19.5q-18 -1 -29 -18t-12 -30q-2 -7 0 -33l2 -26q0 -51 38 -55q29 -3 49.5 12t21.5 45z" />
    <glyph glyph-name="seven" unicode="7" horiz-adv-x="499" 
d="M56 286q1 41 1.5 89t0.5 68q2 0 129 3l24 88.5t27 104.5q-33 1 -94 -0.5t-97 -1.5q0 27 -2.5 85.5t1.5 74.5q67 1 437 1l-111 -353h96q4 -37 -2.5 -88t-7.5 -72q-14 -2 -63 -1t-65 1q-5 -13 -43.5 -132t-62.5 -176q-30 8 -50 14t-30.5 10l-34.5 13l-49 18l88 255
q-29 0 -59 -0.5t-33 -0.5z" />
    <glyph glyph-name="eight" unicode="8" horiz-adv-x="545" 
d="M372 -2q-11 -1 -36 -4t-41 -4q-75 -4 -119 5.5t-87 51.5q-9 9 -23 33q-17 27 -25 81t3 123t47 114q-29 32 -38 94.5t-3 117t19 90.5l6 17q14 39 55.5 58.5t99 19.5t128.5 -7q37 -8 56.5 -23t45.5 -47q17 -30 26 -84t1.5 -122t-38.5 -114q33 -39 47 -99.5t10.5 -117.5
t-18.5 -104q-39 -60 -116 -79zM320 557q2 51 -8 71t-49 23q-19 -3 -29.5 -10t-14.5 -19t-5 -29t0 -41q1 -48 11.5 -75.5t37.5 -26.5q16 0 27 6t16.5 12.5t8.5 24t3.5 27.5t1.5 37zM329 215q2 71 -8.5 95.5t-50.5 25.5q-37 0 -49 -22.5t-12 -97.5q0 -45 10.5 -61t43.5 -17
q24 -1 37.5 3t19.5 16.5t7.5 22.5t1.5 35z" />
    <glyph glyph-name="nine" unicode="9" horiz-adv-x="522" 
d="M47 126q142 31 187 76q17 18 26.5 29.5t23 47t13.5 77.5q-49 -25 -71.5 -29t-77.5 6q-44 11 -72.5 42.5t-39.5 70t-12 88t3.5 86.5t12.5 76q14 33 44.5 59.5t66.5 36.5q58 3 114.5 5.5t107 -20.5t67.5 -73q30 -90 36.5 -226t-23.5 -241q-43 -126 -127 -187t-233 -79z
M286 529q0 12 1.5 29.5t1.5 30.5q-3 27 -7 40.5t-11 18.5t-16.5 5h-24.5q-35 3 -46 -13t-9 -57q3 -71 12.5 -85t52.5 -11q46 3 46 42z" />
    <glyph glyph-name="colon" unicode=":" horiz-adv-x="321" 
d="M198 593q31 -9 51.5 -32.5t25.5 -63.5t-22 -94q-65 -45 -117 -37.5t-82.5 49.5t-19.5 90q8 37 26.5 59.5t42.5 29.5t47 6.5t48 -7.5zM203 226q31 -8 51.5 -32t25.5 -64t-21 -94q-66 -45 -118 -37t-82 50.5t-19 90.5q28 122 163 86z" />
    <glyph glyph-name="semicolon" unicode=";" horiz-adv-x="296" 
d="M60 212q31 -1 59 -8.5t40 -9.5q16 -2 111 -29q-33 -103 -47 -143.5t-46 -109t-70 -117.5l-120 55q25 50 38.5 114t22.5 147.5t12 100.5zM189 593q32 -9 52.5 -32.5t25 -63.5t-21.5 -94q-65 -45 -117.5 -37t-83 50.5t-19.5 90.5q8 36 26.5 58t42.5 29t47 6.5t48 -7.5z" />
    <glyph glyph-name="less" unicode="&#x3c;" horiz-adv-x="643" 
d="M246 536q63 52 155 117l23.5 -30l23 -27.5l17.5 -20.5q9 -11 22 -28.5t22 -28.5l-68.5 -51.5t-102.5 -74.5q30 -21 88 -58t91 -62l-91 -140q-197 135 -349 252q57 60 169 152z" />
    <glyph glyph-name="equal" unicode="=" horiz-adv-x="649" 
d="M119 551h413q0 -123 -1 -150l-412 -1v151zM122 315q145 2 407 2q0 -19 2.5 -73.5t0.5 -84.5l-410 1v155z" />
    <glyph glyph-name="greater" unicode="&#x3e;" horiz-adv-x="644" 
d="M289 382l-188 143q10 12 14.5 21t13.5 18q5 5 22 26t34.5 39.5t33.5 29.5q39 -21 123.5 -94.5l92.5 -80.5q54 -42 73.5 -61.5t46.5 -40.5q-90 -83 -156 -136.5t-204 -150.5l-95 157q23 18 91.5 63t97.5 67z" />
    <glyph glyph-name="question" unicode="?" horiz-adv-x="441" 
d="M250 234q-41 0 -80 -3t-78 -2q1 1 -1 17.5t-3.5 42t0 55.5t12 64.5t29.5 61.5q10 14 26 32.5l28 32t22 29.5t12 28.5t-6 26t-29 25.5q-22 12 -88 10.5t-67 0.5v156q141 -2 168 -5q63 -6 94.5 -16.5t62.5 -37.5q33 -30 45.5 -70.5t7.5 -75t-20 -63.5q-1 -13 -21 -38.5
l-49 -62.5t-45 -67q-7 -13 -11.5 -28t-6.5 -33.5t-2.5 -27.5t0.5 -30v-22zM221 178q35 -11 49.5 -52.5t-11.5 -106.5q-52 -37 -94.5 -31t-67 41t-15.5 75q9 39 33.5 60t52 20.5t53.5 -6.5z" />
    <glyph glyph-name="at" unicode="@" horiz-adv-x="964" 
d="M525 187q-69 6 -98 -12q-15 -10 -16.5 -40.5t25.5 -41.5q32 -10 58.5 3.5t34.5 50.5zM704 -66q-59 -5 -85 7q-5 2 -14.5 9.5t-22.5 24t-17 34.5q-66 -92 -207 -40q-40 23 -57 85t-10 120t29 76q25 22 43 33t61.5 19.5t108.5 6.5l1 51q-5 24 -13.5 32.5t-33.5 12.5h-5h-7
t-15.5 -0.5t-30.5 -0.5q-14 0 -45.5 -3t-39.5 -3q-1 33 -4.5 59.5t-4.5 61.5q20 1 50 3.5t45.5 3.5l39 2.5t36 1.5h29.5t27 -1.5t21 -3.5t19 -6t15 -9q16 -12 31.5 -33t18.5 -31q4 -11 10 -228q1 -46 4 -81t5 -47l3 -13q6 -16 19.5 -19.5t27.5 6.5t19 29q3 11 4 17.5l2 13.5
t0.5 23l-1 32t-1.5 54l-2 77q-1 64 -18 129.5t-33 90.5q-8 13 -35 28.5t-59 25.5q-12 8 -125.5 4t-154.5 -20q-40 -16 -59.5 -36t-30.5 -55q-26 -88 -16 -273q0 -5 1.5 -30t2 -35t2.5 -34.5t4 -37t6.5 -32.5t9 -32.5t12 -25.5t16.5 -21l13.5 -13.5t13.5 -13t14.5 -12
t18.5 -11t24.5 -9t33.5 -8t44.5 -5.5t58 -3.5t73 -0.5t91.5 1q1 -2 1 -45q0 -12 -2.5 -34.5l-4.5 -39t-1 -19.5q0 -4 -30 -6.5t-78.5 -0.5t-101.5 6.5t-107 16t-89 27.5q-50 23 -89 64.5t-54.5 70t-17.5 41.5q-47 272 -8 558q5 42 52 99.5t85 70.5t89 24t124 19t154.5 -0.5
t150.5 -36.5q56 -22 84.5 -67t49.5 -115q1 -11 10 -91.5t13 -133.5t-1 -131t-23 -132q-27 -80 -167 -92z" />
    <glyph glyph-name="A" unicode="A" horiz-adv-x="606" 
d="M282 794h118q37 -105 68.5 -226t70.5 -291.5t66 -277.5l-200 -1q-14 69 -27 120q-20 0 -73.5 -0.5t-72.5 -1.5l-30 -118q-108 0 -201 1l181 750l9 43q22 2 91 2zM253 280l88 -1q4 1 8 1q-10 79 -18 128l-32 160q-7 -39 -18.5 -112l-19 -124.5t-8.5 -51.5z" />
    <glyph glyph-name="B" unicode="B" horiz-adv-x="540" 
d="M475 70q-18 -32 -56.5 -52t-80.5 -20q-21 0 -68 -1t-93.5 -0.5t-113.5 4.5q0 68 -3 323t-1 371l2 102q22 0 60 2t56 2t66 -2q9 -1 29.5 -2.5t29 -2t25.5 -3t25.5 -5t22.5 -7.5t23 -11t20 -15t21 -21q18 -21 31 -81.5t5 -136t-47 -118.5q34 -31 51 -76.5t17.5 -87.5
t-3.5 -79.5t-11 -60.5zM237 651l4 -177q40 -12 63 15q6 7 8.5 13.5t3 14t0.5 19v28.5t-0.5 28t-3.5 26t-11.5 23.5t-22.5 9.5q-3 1 -20.5 0.5t-20.5 -0.5zM239 304v-169q39 -13 63 15q5 6 8 11t4.5 10t1.5 11.5v16v23.5q1 13 0 26t-3 23.5t-10 19t-22 10.5q-6 1 -42 3z" />
    <glyph glyph-name="C" unicode="C" horiz-adv-x="512" 
d="M263 565q-19 -181 -4 -335q5 -55 86 -55q3 0 50.5 -2.5t64.5 0.5q-2 -37 -3.5 -87.5t-4.5 -94.5q-67 0 -104 1q-46 1 -128 15q-70 12 -104 37t-48 71q-24 79 -24.5 234.5t27.5 292.5q14 63 45 90t98 45q72 20 258 15l-6 -184q-125 0 -136 -1q-23 -2 -37.5 -10.5
t-29.5 -31.5z" />
    <glyph glyph-name="D" unicode="D" horiz-adv-x="577" 
d="M506 631q59 -197 13 -429q-22 -110 -166 -167q-56 -22 -127 -29.5t-177 -9.5q-9 208 -1 803q373 -6 458 -168zM236 593l-5 -402q8 2 22.5 5l22 4.5t18 6t17.5 10.5t13.5 16.5t11.5 25.5q18 60 20 167q1 53 -7 88.5t-36 55.5q-30 22 -77 23z" />
    <glyph glyph-name="E" unicode="E" horiz-adv-x="526" 
d="M246 611l-4 -126q18 -1 90.5 -2.5t112.5 -4.5q6 -97 -8 -166l-203 -1q1 -21 2.5 -62t2.5 -63q163 9 261 0q-4 -34 -6.5 -85.5t-7.5 -88.5q-67 -4 -132.5 -6.5t-155 -4t-143.5 -3.5q-4 117 -4.5 242.5t2 294t2.5 243.5q353 15 437 17q1 -44 7 -178z" />
    <glyph glyph-name="F" unicode="F" horiz-adv-x="518" 
d="M438 463v-165l-193 -5q0 -40 4.5 -130t3.5 -163l-191 2l-17 773q400 7 456 9l-3 -172l-261 -3q3 -33 5 -85t3 -59q0 -3 48.5 -3.5t96.5 0.5z" />
    <glyph glyph-name="G" unicode="G" horiz-adv-x="569" 
d="M434 564q-5 0 -60 -1q-2 35 -15.5 51.5t-30 16t-34.5 -0.5q-15 -1 -24 -3t-23 -9t-22 -24t-8 -43q-3 -189 13 -327q5 -41 29 -61t53 -20.5t52.5 5t30.5 11.5q3 2 3 36t-1 67l-1 33h-82q-6 93 -5 142q24 0 99 -1.5t119 2.5q2 -137 1 -187q-1 -24 -1 -80.5t-1 -89.5t-4 -35
q-38 -27 -62 -33q-144 -34 -256.5 -11t-128.5 90q-43 183 -30 512q2 49 24.5 94t53.5 55q42 20 104.5 29.5t131 1t108.5 -38.5q24 -18 36 -83t9 -95z" />
    <glyph glyph-name="H" unicode="H" horiz-adv-x="622" 
d="M65 0l-8 657v136q43 0 89.5 3t95.5 2l-2 -297l144 9q1 47 0 148.5t-1 134.5q35 0 80 3t97 1q3 -79 5 -155.5t2 -165t-0.5 -144.5l-1.5 -169.5t-1 -163.5l-183 3l3 336l-143 -6q0 -229 -4 -327q-24 0 -41 -0.5t-52.5 -2t-78.5 -2.5z" />
    <glyph glyph-name="I" unicode="I" horiz-adv-x="314" 
d="M60 461q0 187 4 336q24 3 81 0.5t103 -0.5q4 -122 6 -797l-193 -6q-1 368 -1 467z" />
    <glyph glyph-name="J" unicode="J" horiz-adv-x="475" 
d="M229 361q0 103 -1.5 218.5t-1.5 213.5q75 -2 190 -2q0 -82 3.5 -220t3 -231.5t-8.5 -188.5q-5 -57 -48 -97.5t-109 -50.5q-66 -9 -143 -7q-20 0 -49 2.5t-45 2.5q-1 28 0 80t-1 86q44 3 76 1t62 2.5t51 19.5q27 33 21 170v1z" />
    <glyph glyph-name="K" unicode="K" horiz-adv-x="601" 
d="M274 276l-42 -71q0 -41 -8 -205l-180 2v798l177 -7q0 -5 1.5 -61t2 -111t-0.5 -132l169 298q23 1 62 4t57.5 3t89.5 -2l-115.5 -209.5t-83.5 -154.5q111 -201 205 -425l-204 -2q-36 88 -72 161z" />
    <glyph glyph-name="L" unicode="L" horiz-adv-x="479" 
d="M58 658l-1 139l199 -6l18 -607q18 0 79 -2t109 -1q2 -34 1.5 -87.5t2.5 -91.5l-340 -2l-56 4z" />
    <glyph glyph-name="M" unicode="M" horiz-adv-x="856" 
d="M415 36q-2 -4 -23.5 45l-57.5 134l-50 117q-14 30 -45 165q9 -103 9 -178q-2 -70 -2 -188v-129h-188q5 257 7 421l2 370q33 0 98.5 2t103.5 1q27 -57 64.5 -157.5t63.5 -162.5q39 -90 46 -131q1 3 9 32l17.5 61t15.5 47q109 291 131 305q5 3 33.5 3.5t66 -1t82.5 0.5
l-1 -794h-189l4 289q0 34 3 72t7.5 81.5l6.5 62.5q-44 -169 -57 -203l-58 -151q-2 -4 -9 -23.5t-11.5 -31l-11 -27t-11.5 -24.5t-9 -11q-9 -11 -23.5 -10t-23.5 13z" />
    <glyph glyph-name="N" unicode="N" horiz-adv-x="678" 
d="M236 397q8 -334 5 -397h-189l6 795h169q23 -38 100.5 -202t114.5 -234l5 434l178 -6q3 -458 -7 -785q-21 -3 -93 -1.5t-79 1.5q-8 17 -88 164t-122 231z" />
    <glyph glyph-name="O" unicode="O" horiz-adv-x="600" 
d="M390 -18l-68 -4q-78 -5 -129.5 8t-80.5 48t-41.5 79t-19.5 114q-9 91 -14 193q-3 52 9 196q10 112 92 149q35 16 92 25t126.5 2.5t113.5 -35.5q83 -54 88 -152q7 -154 5 -282q-2 -104 -10 -164.5t-34 -90.5q-17 -21 -30 -33.5t-39 -27.5t-60 -25zM363 234q3 87 2.5 175.5
t-8.5 169.5q-6 55 -63 51q-53 -15 -58 -55q-4 -52 -0.5 -136t5 -102l10.5 -132q2 -28 22.5 -43t40.5 -9q25 2 37 28t12 53z" />
    <glyph glyph-name="P" unicode="P" horiz-adv-x="505" 
d="M223 279v-279l-184 1q2 125 4 388t5 411q290 0 320 -14q61 -28 86 -79q19 -52 18 -171.5t-22 -169.5q-7 -18 -15.5 -30.5t-15.5 -19.5t-19 -12.5t-18.5 -7t-23.5 -4.5t-25 -5q-19 -4 -46.5 -6t-45.5 -2h-18zM228 438q35 -3 51 4.5t27 23.5q12 16 14 82q1 16 0 30.5
t-3.5 26t-10.5 20.5t-21 14q-3 1 -67 5z" />
    <glyph glyph-name="Q" unicode="Q" horiz-adv-x="634" 
d="M50 209q-9 99 -11 193q-3 152 5 209q8 63 26 102t59 58q34 15 91.5 23t126 -0.5t111.5 -36.5q83 -54 86 -153q12 -236 12 -266q0 -171 -35 -259l97 -124q-30 -31 -51 -47q-12 -10 -31.5 -22t-33.5 -19l-13 -7q-81 97 -107 123q-124 -13 -191 4t-99 68.5t-42 153.5z
M371 235q3 186 -13 338q-7 60 -62 56q-21 3 -39 -12.5t-21 -38.5q-2 -127 0 -183t13 -187q2 -28 23.5 -46t41.5 -12q27 -2 42 28t15 57z" />
    <glyph glyph-name="R" unicode="R" horiz-adv-x="601" 
d="M593 51l-151 -87q-94 170 -147 306h-54q-3 -257 -3 -270q-145 0 -178 1q0 90 -2.5 268.5t-2.5 260.5t3 266q72 3 181 1q63 -2 119 -16t78 -40q47 -57 59 -117.5t8 -153.5q-3 -68 -19 -113l-39 -44zM242 414q32 -6 48 -1t20 15l4 10q26 119 -3 183q-4 8 -11 13t-14.5 6.5
t-16.5 2t-15.5 -0.5t-11.5 -2l-6 -1q-2 0 0.5 -77.5t5.5 -147.5z" />
    <glyph glyph-name="S" unicode="S" horiz-adv-x="474" 
d="M390 392q58 -85 55 -169t-82 -169q-12 -9 -24 -16l-22 -12.5t-25 -9t-24.5 -6.5t-30 -5l-31 -3t-37.5 -1.5t-40.5 -0.5h-48.5h-53l2 165q51 2 67 3q3 0 21 0.5t24 1t21 2t22 4.5t17.5 8t17.5 12.5t12 17.5q16 52 -21 107q-7 12 -66 73q-36 40 -54 69.5t-21 66.5
q-1 37 -1 76t25 84t74 75q68 41 249 53l29 -169q-21 -2 -47 -7l-31 -6q-42 -6 -56 -27q-14 -20 -16.5 -48.5t14.5 -54.5q34 -39 81 -114z" />
    <glyph glyph-name="T" unicode="T" horiz-adv-x="565" 
d="M390 0l-199 2q2 54 4 256q4 252 0 348q-31 -2 -166 -2q2 44 0.5 102t0.5 81q88 3 165 3.5t184.5 -0.5t168.5 -1q2 -26 2 -49.5t-1 -61.5t-1 -73q-31 -1 -78.5 -1h-77.5q1 -56 0 -146t-1 -115q0 -271 -1 -343z" />
    <glyph glyph-name="U" unicode="U" horiz-adv-x="574" 
d="M540 785q-2 -219 -1 -329q2 -106 -6.5 -213.5t-26.5 -138.5q-34 -58 -78.5 -78t-120.5 -27q-138 1 -193.5 45.5t-70.5 153.5q-4 29 -4.5 84.5t-0.5 60.5q-11 213 -1 448l185 -9l1 -443q0 -39 2 -65.5t8 -53.5t19.5 -40t34.5 -13q58 1 60 163l3 453z" />
    <glyph glyph-name="V" unicode="V" horiz-adv-x="684" 
d="M476 792l202 -49q-31 -114 -102.5 -356t-109.5 -385l-213 -5l-247 740l83 27q49 16 118 30q11 -31 151 -518q25 94 65.5 283.5t52.5 232.5z" />
    <glyph glyph-name="W" unicode="W" horiz-adv-x="960" 
d="M403 748l165 2q4 -7 11 -43.5t19 -106.5t22 -121q3 -18 15 -95t16 -95q6 77 40 224q50 205 77 284l182 -47l-217 -751q-31 -2 -86 -0.5t-82 1.5q-20 55 -49 236q-14 81 -31 221q-15 -153 -29 -220q-43 -205 -53 -237q-33 5 -85 1.5t-78 -1.5l-230 757l194 51
q33 -72 89 -308q6 -25 22 -116t18 -99q24 187 26 200q8 46 16.5 113t14.5 103t13 47z" />
    <glyph glyph-name="X" unicode="X" horiz-adv-x="723" 
d="M600 9q-15 -9 -42 -20.5t-44 -21.5q-21 37 -71.5 119l-78.5 130q-26 -37 -82.5 -125t-87.5 -130l-180 96l230 342q-27 40 -98.5 157t-95.5 161q18 13 49.5 28.5t41.5 21.5q16 9 45 23t47 24l143 -247q18 26 69.5 110t83.5 127l180 -83l-214 -327l60.5 -97.5l75.5 -123
l66 -113.5q-16 -13 -50 -28t-47 -23z" />
    <glyph glyph-name="Y" unicode="Y" horiz-adv-x="692" 
d="M389 1q-3 0 -23.5 -0.5t-49 -0.5h-53.5l-6 399l-246 279l51.5 49.5t86.5 73.5q36 -32 104 -108.5t100 -107.5q26 28 85 105t96 114l147 -103l-232 -302l8 -397l-26 -2q-17 0 -42 1z" />
    <glyph glyph-name="Z" unicode="Z" horiz-adv-x="572" 
d="M26 609q0 3 8 84q1 9 1.5 28.5t2.5 35t7 31.5q78 -3 228.5 -0.5t243.5 -3.5q-69 -266 -184 -604h96q96 -1 106 3q6 -27 8.5 -51t2 -39t-2 -44t-1.5 -50q-125 -2 -159 -2t-135.5 1.5t-171.5 1.5q26 101 103 320.5t100 292.5q-105 -3 -253 -4z" />
    <glyph glyph-name="bracketleft" unicode="[" horiz-adv-x="506" 
d="M440 966v-75q0 -3 -0.5 -6.5t-1 -9t-1 -24t-0.5 -47.5q-72 -4 -162 -7q7 -91 11.5 -359t4.5 -428q13 -1 62 -1t87 -5l3 -162l-324 1q-9 364 -12 1133q183 -3 333 -10z" />
    <glyph glyph-name="backslash" unicode="\" horiz-adv-x="571" 
d="M214 912l181 -620l79 -288l-185 -49q-37 112 -134 478.5t-118 424.5q39 15 62 22t54.5 15t60.5 17z" />
    <glyph glyph-name="bracketright" unicode="]" horiz-adv-x="490" 
d="M35 -147q-2 66 -2 98q0 2 -1 16t-1.5 27t1.5 36q25 0 135 -4q0 46 1 234.5t1 340t-2 211.5l-141 4l6 165l78.5 -3.5t116 -4.5t115.5 -2l4 -97q5 -55 3.5 -498t-0.5 -530z" />
    <glyph glyph-name="asciicircum" unicode="^" horiz-adv-x="607" 
d="M307 645l-107 -151q-25 14 -40.5 24l-35.5 24l-38 26q15 20 59.5 85l83 118t72.5 93q34 -33 79 -89.5l97.5 -128t69.5 -92.5l-38 -25l-34 -22.5t-39 -22.5z" />
    <glyph glyph-name="underscore" unicode="_" horiz-adv-x="925" 
d="M99 -24h712q8 -120 5 -183h-710q-3 146 -7 183z" />
    <glyph glyph-name="grave" unicode="`" horiz-adv-x="424" 
d="M133 818l130 84q25 -36 56.5 -108.5t47.5 -95.5l-94 -63l-61 79z" />
    <glyph glyph-name="a" unicode="a" horiz-adv-x="556" 
d="M335 407q-7 28 -22 41t-44 18q-35 8 -84 4q-64 -5 -73 -8q-3 36 -4 72t-3 64q282 26 337 -35q9 -10 16.5 -22.5t10 -19l7.5 -20.5l4 -14q11 -30 15 -182l11 -318q-34 -1 -88 -3.5t-75 -2.5q-3 57 -3 63q-49 -27 -81.5 -40t-75 -12.5t-75.5 25.5q-44 33 -55 92.5t2 107
t33 65.5q58 50 252 39q3 52 -5 86zM333 216q-88 0 -112 -19q-10 -8 -12 -32t13 -40q18 -10 48 -4t63 21q2 9 2 23t-1 30t-1 21z" />
    <glyph glyph-name="b" unicode="b" horiz-adv-x="533" 
d="M54 -10q-7 157 -8 406t-6 391q49 2 92.5 4.5t61.5 4.5l17 1l11 -256q47 40 91 46q34 4 69.5 -7.5t59.5 -29.5q20 -23 31.5 -53.5t15 -74t4.5 -67t-2 -78.5t-3 -63q-2 -60 -19 -112.5t-43 -74.5q-26 -17 -50.5 -22.5t-47 0.5t-38 13.5t-36.5 21t-30 18.5l-7 -66
q-42 -2 -77.5 -1.5t-85.5 -0.5zM232 416q-1 -1 -1.5 -59.5t1 -119.5t5.5 -67q12 -12 16.5 -13.5t26.5 0.5q42 4 42 83v137q-3 33 -13.5 44t-40.5 13q-13 1 -19.5 -2t-10.5 -9t-6 -7z" />
    <glyph glyph-name="c" unicode="c" horiz-adv-x="449" 
d="M218 299q7 -85 22 -114q21 -18 39.5 -24.5t45 -7t29.5 -0.5q7 -1 30.5 -0.5t28.5 0.5q-4 -142 -6 -158q-19 1 -64 0.5t-62 2.5q-13 1 -30.5 2.5t-25.5 2t-20 3t-25 7.5q-57 20 -89.5 55.5t-41.5 101.5q-11 78 -11 174q0 101 30 156t119.5 79.5t206.5 14.5l2 -79v-80h-50
t-45.5 -1t-40.5 -5.5t-34 -13.5q-6 -9 -9.5 -20t-3.5 -25.5t0.5 -23.5t2.5 -26t2 -21z" />
    <glyph glyph-name="d" unicode="d" horiz-adv-x="532" 
d="M79 42q-55 115 -42 366q2 44 8.5 73.5t22.5 56t46 40.5t76 18q47 -1 113 -32l-15 237l174 -2q4 -92 11.5 -251l14 -292.5t10.5 -255.5l-167 -9l-7 69q-44 -21 -91.5 -37t-61.5 -16q-42 0 -58 8q-15 8 -34 27zM304 412q-14 17 -26 23t-40 6q-11 0 -17.5 -3t-9 -11
t-3.5 -14.5t-1 -22.5t-1 -24t4 -79.5t6 -82.5q3 -19 8.5 -30t8.5 -13t11 -5q9 -4 37 9.5t36 29.5q-5 65 -7 113z" />
    <glyph glyph-name="e" unicode="e" horiz-adv-x="486" 
d="M230 160q11 -8 27.5 -13t41.5 -6.5t41 -2t48 0t42 0.5l5 -143q-285 -11 -348 61t-52 332q9 188 130 209q202 34 253 -50q26 -45 30 -95q1 -18 1.5 -34t1 -38t1.5 -42v-2t-0.5 -5t-0.5 -8t-0.5 -9.5l-1 -10.5l-1 -10t-0.5 -9t-0.5 -7.5t-0.5 -5.5v-1q-28 -1 -245 -1
q-3 -27 2 -56q6 -38 26 -54zM199 379l116 -2q0 12 -0.5 23.5t-1 20t-1 15.5t-0.5 11l-1 4q0 2 -0.5 4t-3.5 7t-8.5 8.5t-17 6.5t-27.5 3q-25 0 -38 -11.5t-14 -22.5l-1 -12q0 -1 -0.5 -8t-1 -19.5t-0.5 -27.5z" />
    <glyph glyph-name="f" unicode="f" horiz-adv-x="471" 
d="M288 1l-171 -1q-2 388 -7 405q-11 2 -27 2t-24.5 -0.5t-12.5 0.5t-5.5 54.5t0.5 93.5q70 3 76 3q-4 4 -3 39t1 36q5 53 20 82.5t33 41t56 23.5q36 12 106 17q3 2 50 1t51 -1q1 -23 -4 -63t-5 -66q-3 0 -27.5 -1.5t-36 -3t-30.5 -8t-31 -16.5q-7 -12 -9.5 -31.5
t-2.5 -36.5v-17q48 -1 88 -1l34 -1q3 -103 2 -138q-29 -3 -47 -4l-74 -4v-405z" />
    <glyph glyph-name="g" unicode="g" horiz-adv-x="537" 
d="M303 -103q16 0 24.5 8t8 17t-1.5 15q0 1 -1.5 7t-2.5 8t-4 6.5t-7.5 6.5l-11.5 5t-18 4t-26 1q-41 0 -69 19q-31 23 -38.5 49t-4.5 91q-48 8 -77.5 39t-33.5 65q-19 150 3 264q13 68 123 101q114 14 169 -10l88 68q28 -20 41 -36q8 -10 20.5 -27l22.5 -31l-46 -36.5
t-41 -32.5q15 -16 17 -117t-23 -166q-7 -16 -16.5 -27.5t-22.5 -19t-22.5 -11.5t-27.5 -10l-27 -9q0 -2 -0.5 -9t-0.5 -9.5v-8.5t1 -9t2.5 -7t4.5 -6t7 -3.5t9 -1.5q70 -4 76 -5q26 -5 40.5 -15t34.5 -37q20 -28 27.5 -74.5t-9 -96.5t-58.5 -72q-51 -26 -150 -29
q-105 -3 -204 0l-1 143q22 -1 226 -1zM194 385q0 -20 0.5 -36.5t0.5 -20v-11.5q-1 -7 1 -16.5t12 -19.5t27 -10q36 -1 39 51q1 6 2 35.5t1 36.5q4 60 -43 63q-24 1 -32 -20t-8 -52z" />
    <glyph glyph-name="h" unicode="h" horiz-adv-x="553" 
d="M513 457q2 -14 0.5 -58.5t-0.5 -59.5v-99l-1 -238q-46 0 -90 -0.5t-92 -0.5q1 284 -3 362q-1 38 -47 30q-18 -3 -31 -18.5t-13 -29.5q-1 -3 -1 -103q0 -17 -0.5 -111.5t-0.5 -129.5h-184q-2 481 2 778q31 3 60.5 7.5t51 6t62.5 2.5q2 -29 2 -271q48 38 107 56t115 1
q13 -4 23.5 -11.5t17 -18t11 -20t6.5 -22.5t3 -20.5t1.5 -18.5t0.5 -13z" />
    <glyph glyph-name="i" unicode="i" horiz-adv-x="342" 
d="M187 830q26 -7 43 -26.5t21 -53t-18 -77.5q-54 -37 -97 -31t-68 41t-16 75q9 39 32.5 59t50 19t52.5 -6zM247 578q6 -37 15.5 -270t10.5 -306q-53 -2 -94.5 -2t-101.5 -1q-16 278 -15 573q56 5 185 6z" />
    <glyph glyph-name="j" unicode="j" horiz-adv-x="426" 
d="M300 827q39 -11 52.5 -52.5t-11.5 -105.5q-29 -32 -66 -36.5t-65 11.5t-44 46t-8 61q15 58 54.5 74t87.5 2zM168 572q39 4 90 0.5t99 -3.5l3 -296q2 -129 -5 -194q-9 -90 -40 -136q-5 -7 -12.5 -15.5t-30.5 -24.5t-52.5 -28t-81.5 -22.5t-115 -11.5q0 64 4 161h35
q34 -1 63.5 14.5t38.5 55.5q7 105 7.5 180.5t-1.5 163.5t-2 156z" />
    <glyph glyph-name="k" unicode="k" horiz-adv-x="557" 
d="M223 -1l-181 -2l4 804q30 2 90 4t87 4q4 -37 4.5 -98t-1 -153t-1.5 -129q87 132 136 189q30 -19 48 -32.5t41 -34t39 -33.5l-64 -92.5t-62 -91.5q20 -42 75.5 -130t91.5 -156q-2 0 -33.5 -17l-68.5 -37t-49 -25l-91 164l-49 87l-16 -29v-192z" />
    <glyph glyph-name="l" unicode="l" horiz-adv-x="399" 
d="M362 151q6 -72 7 -81q3 -38 10 -75q-51 -6 -80 -5q-56 1 -87 4q-63 5 -98.5 46t-38.5 98t-5.5 147.5t-4 152.5t-3.5 71l-7 289q38 2 74.5 2t99.5 4q3 -116 8 -287l8 -279q1 -35 9 -55.5t22.5 -27t27 -7t31.5 1.5t27 1z" />
    <glyph glyph-name="m" unicode="m" horiz-adv-x="807" 
d="M492 4l-160 -3q-8 333 -8 335l-5 33q-7 25 -15.5 32.5t-35.5 6.5q-24 -1 -34.5 -20t-10.5 -42l4 -344h-175q1 121 -5.5 339l-7.5 250q46 3 82.5 2t78.5 0q0 -14 2 -23.5t5.5 -23t5.5 -27.5q48 44 90 62.5t75 11t57 -24t47 -45.5q77 71 148 71q109 -1 125 -92v-2
q1 -1 7 -255q0 -27 0.5 -77t1 -90.5t1.5 -75.5q-135 0 -173 2l-1 343q-2 20 -7 32t-15.5 17.5t-17.5 6.5t-24 2q-38 -3 -36 -64q3 -255 1 -337z" />
    <glyph glyph-name="n" unicode="n" horiz-adv-x="533" 
d="M427 572q11 -7 19 -13.5t14 -15.5t10.5 -14t7.5 -17t5 -17t3 -20.5t1.5 -20.5t1 -25.5t0.5 -26.5q3 -72 3 -102v-298l-161 1q-2 56 -1.5 164t-2.5 156v25t-8.5 42t-25.5 31q-13 3 -32.5 -6.5t-32.5 -20.5l-13 -11v-173q-1 -51 0 -207q-99 -3 -163 -3l-7 597
q49 1 75.5 -0.5t70.5 -1.5l10 -76q38 33 82.5 49.5t79.5 14.5t64 -11z" />
    <glyph glyph-name="o" unicode="o" horiz-adv-x="517" 
d="M263 -14q-37 0 -65.5 3t-61 11.5t-54 29t-27.5 51.5q-9 45 -14.5 155t-3.5 165q0 7 0.5 22t1 20t1.5 16.5t1.5 15.5t2.5 13t4.5 13.5t6 11.5t8.5 12.5l11 12.5q32 35 69 47.5t118 12.5q85 0 132.5 -20.5t59.5 -46.5t18.5 -69.5t7.5 -82.5t2 -119q1 -132 -20 -183
q-38 -91 -198 -91zM208 388v-11q1 -11 1.5 -30.5t1.5 -43t1.5 -55.5t1.5 -62q1 -47 48 -52q5 0 12.5 2t20 13.5t12.5 30.5q2 124 -5 212q-4 49 -40 54q-16 3 -35.5 -15t-18.5 -43z" />
    <glyph glyph-name="p" unicode="p" horiz-adv-x="518" 
d="M193 584l8 -66l20 19.5t19.5 18t17 11.5t24 10.5t29 3.5t41.5 1q20 -6 35.5 -13t24.5 -13t17.5 -14.5t12 -12.5t9 -13.5t7.5 -12.5q29 -44 26 -133q-4 -139 -23 -225q-18 -85 -60 -109q-22 -12 -51 -21.5t-71.5 -8t-72.5 24.5q3 -215 2 -227l-165 2q0 33 -1 107t-1 117
q0 187 -11 563q23 -1 70 -1.5t69.5 -2t23.5 -5.5zM213 400l6 -224q-1 -16 14.5 -29t28.5 -12q20 1 31 20t11 29q0 1 1.5 15l3.5 33.5t4 46.5t2 54.5t-2 56.5q2 21 -15 36t-41 12q-23 -3 -32.5 -11.5t-11.5 -26.5z" />
    <glyph glyph-name="q" unicode="q" horiz-adv-x="545" 
d="M309 390q-16 35 -47 37q-15 1 -24 -1.5t-13 -12.5t-5 -16t-3 -25l4 -154q2 -75 56 -75q21 0 34 32zM83 46q-24 40 -38 192.5t-3 241.5q5 36 31 62.5t63.5 36t86 -8t91.5 -63.5v78l167 -13q18 -624 24 -763q-27 -6 -84 -3t-83 3q-2 18 -7 97t-11 125q-43 -27 -117 -27.5
t-100 17.5q-9 5 -20 25z" />
    <glyph glyph-name="r" unicode="r" horiz-adv-x="428" 
d="M52 0l5 251l5 261t3 123l150 -4l7 -76q17 5 75 25.5t98 31.5q7 -30 12 -71.5t9 -62.5q-171 -88 -175 -99q-5 -15 -9 -137.5t-4 -241.5q-48 -2 -68 -2t-48.5 1t-59.5 1z" />
    <glyph glyph-name="s" unicode="s" horiz-adv-x="423" 
d="M127 266l-9 8q-10 9 -18.5 17.5t-19 21.5t-18 28.5t-9.5 31.5q-8 42 -4 70t30 68q20 30 62 55.5t76 33.5q97 24 107 18q6 -4 16.5 -36.5t17.5 -63.5l8 -31q-23 -6 -35.5 -9t-28.5 -8q-68 -21 -58 -72q4 -19 13.5 -32t29.5 -30.5t32 -30.5q31 -35 45.5 -65t13.5 -77
q0 -27 -9.5 -53.5t-30 -53.5t-59.5 -46.5t-93 -25.5q-10 -1 -32 -4.5t-46 -5t-62 -1.5l-11 152q78 5 82 6q46 6 57 18q10 9 11 25q1 17 -5 32t-12 22t-21 20t-20 18z" />
    <glyph glyph-name="t" unicode="t" horiz-adv-x="446" 
d="M86 443q-15 1 -42 2t-42 2q-1 36 0 67.5t0 70.5q87 1 87 7l-1 170l149 -4l9 -167q113 -5 120 -4q0 -68 6 -143h-21h-43.5h-53.5l12 -248q1 -17 4.5 -27t13.5 -14.5t15.5 -5.5t22.5 -3q33 -3 82 -1l8 -151q-111 -8 -166.5 -4.5t-77.5 12.5q-25 9 -43 43.5t-21 63.5
q-5 47 -8 130.5t-5.5 142t-4.5 61.5z" />
    <glyph glyph-name="u" unicode="u" horiz-adv-x="580" 
d="M514 593q1 -46 2 -282t6 -319l-163 -2l-8 66q-35 -18 -60 -29t-57.5 -21t-59 -6.5t-46.5 20.5q-26 22 -33.5 32.5t-21.5 41.5q-19 77 -23 242q-1 38 -4 127t-4 129l181 -6q9 -346 12 -363q3 -20 6 -29.5t14 -18.5t31 -9q31 0 40.5 16t11.5 57v349q10 1 26 2t65 3t85 0z
" />
    <glyph glyph-name="v" unicode="v" horiz-adv-x="595" 
d="M577 561q-21 -87 -72 -269.5t-77 -291.5q-88 0 -215 -5l-41 109.5l-43.5 118l-34 96t-41 121l-35.5 115.5q101 35 184 51q3 -15 14 -52.5l26.5 -87l22.5 -73.5q7 -23 18 -63l19.5 -71t12.5 -43q3 16 18 91t20 104q21 109 41 193z" />
    <glyph glyph-name="w" unicode="w" horiz-adv-x="788" 
d="M761 564q-28 -113 -62.5 -311t-46.5 -252q-150 0 -171 -2q-7 30 -22 108.5t-26 124.5q-23 110 -28 143q-23 -148 -34 -195l-43 -179h-166q-27 108 -70 297l-65 282q118 14 174 26q10 -49 24.5 -127l21.5 -114q2 -10 10 -69t10 -69q3 28 9.5 74t8.5 64q48 227 56 228h1
q5 0 23.5 1.5t30.5 1.5q46 0 70 -3q2 2 8 -17q7 -27 32 -135q13 -57 19 -100q2 -10 24 -104q1 4 4 54t7 73q45 234 46 238z" />
    <glyph glyph-name="x" unicode="x" horiz-adv-x="551" 
d="M386 602q40 -19 58 -29t39.5 -24t47.5 -29q-11 -23 -33.5 -56t-28.5 -44q-16 -27 -88 -136l140 -238q-17 -9 -40 -22.5t-38 -20.5q-13 -6 -32.5 -17.5t-40.5 -21.5q-4 7 -13.5 22.5l-19 32.5t-17.5 35q-4 8 -23 41.5t-22 40.5l-32.5 -60.5l-28.5 -53t-36 -60.5
q-43 15 -85 37t-73 34l146 244q-9 14 -65 117.5t-77 132.5q29 13 76.5 37t88.5 40q33 -58 51 -100q10 -23 24 -50l17 -33q30 57 105 181z" />
    <glyph glyph-name="y" unicode="y" horiz-adv-x="590" 
d="M148 -31q3 11 25.5 70.5t29.5 93.5q-20 69 -51.5 148t-48.5 128q-20 61 -66 157q21 6 73 24.5t98 27.5q20 -40 57 -167q10 -34 39 -113q19 45 51.5 148t49.5 140q16 -7 41 -15t37 -13q7 -3 15 -5t20.5 -7.5t40.5 -20.5l-148 -411l-128 -365q-41 10 -66 17.5t-53 17
l-53 17.5q2 19 8.5 41t15.5 48.5z" />
    <glyph glyph-name="z" unicode="z" horiz-adv-x="511" 
d="M28 427q3 22 6 79.5t9 90.5q46 1 96.5 3.5t82.5 3.5t60 0l165 -6q-1 -3 -3 -10l-4 -14.5t-2 -15.5q-22 -77 -77.5 -206.5t-72.5 -180.5l178 -1q7 0 11.5 -44.5t3.5 -69.5q0 -1 -1.5 -22t-1.5 -31q-192 -4 -418 -1v19q63 193 158 408q-30 0 -94 -1.5t-96 -0.5z" />
    <glyph glyph-name="braceleft" unicode="{" horiz-adv-x="557" 
d="M146 815q0 28 2.5 45t16 40.5t40.5 42.5q60 21 94 24q13 1 29 2q31 1 86.5 1.5t72.5 0.5v-165q-6 0 -47.5 1.5t-66 -1t-28.5 -12.5q-14 -8 -15.5 -75.5t1.5 -143.5t1 -88q-3 -18 -4.5 -25t-11 -19.5t-29.5 -27.5q-4 -2 -13 -11l-10 -8l40 -33q11 -22 16 -42
q6 -24 5.5 -71t-3.5 -93.5t-1.5 -85t11.5 -44.5q15 -10 38 -11.5t59 2t53 3.5q8 -36 10 -95.5t4 -80.5q-130 -6 -155 -6q-32 0 -52.5 2t-31.5 5.5t-37 12.5q-73 41 -73 133q0 26 2 90q5 151 -4 191q-18 21 -37.5 26.5t-50.5 5.5q0 26 -4 92t2 90q2 0 10.5 0.5t12.5 1t12.5 2
t15 4t14 6.5t14.5 10t14 14q1 43 0.5 93t-1.5 118.5t-1 78.5z" />
    <glyph glyph-name="bar" unicode="|" horiz-adv-x="477" 
d="M126 454q-4 114 -3.5 229t3.5 201l4 87q123 -2 218 2q8 -401 6 -1134h-228v151q0 33 2 116.5t2 170t-4 177.5z" />
    <glyph glyph-name="braceright" unicode="}" horiz-adv-x="535" 
d="M179 243q-1 23 -1 42t6 38.5t19 37.5q4 6 11.5 13.5t12.5 11.5l5 5l-4 9q-5 8 -9 10q-17 14 -23 22.5t-6.5 24.5t-1.5 22q-2 11 -2 219q0 1 1 17t-0.5 30.5t-7.5 37.5q-7 6 -21.5 9.5t-34 5t-34.5 2.5t-37 1h-27v169q20 0 83.5 -2l97.5 -3q28 0 92 -22q72 -52 69 -130
l-2 -54l-3 -124q1 -122 22 -130q33 -13 67 -16q6 -112 -1 -190q-30 0 -63 -14q-17 -7 -23.5 -77.5t-5.5 -116.5q1 -18 -0.5 -50t-1.5 -40q0 -92 -73 -133l-15.5 -6t-12.5 -4.5t-11.5 -3.5t-12 -2.5t-14 -1t-18 -0.5t-24.5 0q-25 0 -76.5 -1.5t-76.5 -0.5q4 35 5.5 93.5
t3.5 86.5q11 0 39.5 -0.5t42 -0.5t30.5 3t27 10q16 40 9 203z" />
    <glyph glyph-name="asciitilde" unicode="~" horiz-adv-x="696" 
d="M247 275q-9 -1 -28 -8t-24 -13q-1 -1 -23.5 -15.5t-26.5 -18.5q-30 48 -49 72l-47 66q43 35 68 52.5t59 31.5t65 12q16 -1 32.5 -6.5t31.5 -12t20 -8.5q6 -2 47.5 -19.5t49.5 -18.5q6 0 12 0.5t12.5 2.5t12 4.5t13.5 7t13 8t14.5 11t15 11.5l17 13l17.5 14q36 -47 55 -79
l27 -44q-102 -113 -182 -120q-29 -3 -65.5 8.5t-61.5 25.5q-32 18 -41.5 21t-33.5 2z" />
    <glyph glyph-name="nbspace" unicode="&#xa0;" horiz-adv-x="355" 
 />
    <glyph glyph-name="exclamdown" unicode="&#xa1;" horiz-adv-x="298" 
d="M77 394l181 -1q1 -45 9.5 -272t3.5 -323q-42 -2 -65 -2.5t-60 0.5t-78 1q0 28 4 251.5t5 345.5zM197 627q35 -11 49.5 -52.5t-11.5 -106.5q-52 -37 -94.5 -31t-67 41t-15.5 75q9 39 33.5 60t52 20.5t53.5 -6.5z" />
    <glyph glyph-name="cent" unicode="&#xa2;" horiz-adv-x="396" 
d="M216 395l-2 -97q-1 -36 9 -85t17 -58q10 -12 15.5 -17.5t15 -8.5t16.5 -3.5t29.5 -1.5t43.5 -3q-3 -107 -6 -136q-74 6 -99 10l-4 -73l-91 5l1 93q-33 3 -57 23t-36 48t-18 52.5t-6 44.5q-1 15 -3.5 73t-2.5 87q0 227 135 248l5 71l88 3l6 -72l71 -1l-2 -87v-71
q-4 0 -11 0.5t-25.5 -0.5t-34 -4.5t-31.5 -14t-23 -25.5z" />
    <glyph glyph-name="sterling" unicode="&#xa3;" horiz-adv-x="451" 
d="M185 796q55 16 115 2.5t124 -63.5l-52 -115q-46 32 -78 32t-43 -18t-12 -43.5t4.5 -46.5l12 -45.5t7.5 -37.5h37.5t62.5 1q2 -44 2 -83h-91q0 -133 -9 -201q48 0 159 3q2 -39 8 -92t9 -89q-259 1 -301 0q-104 -1 -96 2q14 33 31.5 174.5t15.5 204.5h-89l1 80l82 3
q-12 67 -13.5 135.5t27.5 126t86 70.5z" />
    <glyph glyph-name="currency" unicode="&#xa4;" horiz-adv-x="558" 
d="M433 515q4 -64 -2 -77l-136 -3v-20.5v-27.5v-22q22 0 59.5 -0.5t58 -0.5t20.5 -1q1 -9 0.5 -31t0.5 -42l-132 -6q-2 -7 5 -46t12 -50q5 -12 17.5 -20t27 -11.5t36 -4.5t38 -0.5t40 2t35.5 1.5q6 -55 0 -163h-27q-26 -1 -41 -0.5l-47 1.5t-54.5 4.5l-53 8.5t-52.5 14.5
t-43.5 21t-35 29t-18.5 38.5q-10 41 -22 175q-12 -1 -22 -1t-25 -0.5t-28 -0.5l-2 79q58 3 82 2l2 66q-16 0 -48.5 0.5t-37.5 -1.5v81q71 2 84 3q-5 48 7 133q12 49 45 86t67 52q48 21 129 33.5t141 4.5l-1 -154q-2 0 -24.5 -0.5t-34 -1t-35.5 -4t-38 -9t-33 -17
t-29.5 -26.5t-18 -38.5t-6.5 -52.5q126 -2 140 -3z" />
    <glyph glyph-name="yen" unicode="&#xa5;" horiz-adv-x="662" 
d="M651 730l-147 -251l104 -1q2 -34 2 -64h-143l-30 -58l-3 -51l173 3q0 -52 -1 -80q-148 0 -170 -1l6 -225q-10 -8 -82 -4t-84 2l-13 231q-23 0 -192 -4q0 5 -2.5 35t-1.5 41l184 -1l1 49l-34 56l-154 -4l-3 44v24h115l-165 253q112 82 140 106q176 -287 189 -307l28.5 55
l36 70.5l34.5 65t36.5 63t28.5 40.5z" />
    <glyph glyph-name="brokenbar" unicode="&#xa6;" horiz-adv-x="407" 
d="M301 793l4 -346h-201q-2 226 -2 352q40 -1 72.5 -2.5t58 -2t68.5 -1.5zM306 348l1 -347h-206q-1 113 -1 351q37 -1 94 -2z" />
    <glyph glyph-name="section" unicode="&#xa7;" horiz-adv-x="468" 
d="M432 396q13 -25 16.5 -64.5t0.5 -65.5l-3 -27q-28 -91 -68 -121q30 -46 40 -88q18 -81 -8 -129q-21 -39 -38.5 -54t-59.5 -26q-134 -34 -258 66l78 122q45 -33 71 -44.5t44 -1.5q22 11 18 31t-18 38.5t-35 35.5l-74 59q-18 13 -70 72q-34 36 -38.5 93t8 98.5t26.5 60.5
q8 10 14 18.5t7 10.5t4.5 5.5t5.5 5t12 8.5q-12 9 -22 23.5t-14 24.5t-9.5 25t-5.5 16q-13 25 -8 59.5t11.5 55t14.5 35.5q27 50 90 67q67 18 139 -1t120 -69l-78 -112q-39 29 -52.5 33.5t-35.5 -1.5q-16 -3 -20.5 -18.5t-0.5 -31.5t12 -26q10 -13 52 -47t66 -49
q8 -5 29.5 -31.5t36.5 -55.5zM295 293q-7 22 -18.5 40t-19 25.5t-22.5 19.5t-16 13q-11 -8 -20 -24.5t-8 -33.5q0 -24 19.5 -47t38.5 -34l19 -11q14 12 18.5 21t8.5 31z" />
    <glyph glyph-name="dieresis" unicode="&#xa8;" horiz-adv-x="437" 
d="M160 762q26 -16 27.5 -53.5t-17.5 -61.5q-35 -27 -68.5 -25.5t-55.5 28t-15 60.5q7 36 30.5 53t50 15t48.5 -16zM354 765q26 -16 27.5 -53.5t-17.5 -61.5q-35 -27 -67.5 -26t-53.5 26.5t-14 59.5q7 36 29.5 53.5t48 16.5t47.5 -15z" />
    <glyph glyph-name="copyright" unicode="&#xa9;" horiz-adv-x="731" 
d="M38 369q-3 140 34 218q40 83 148 124t197 28q104 -15 177 -83.5t83 -150.5q17 -131 16 -180q-1 -54 -10.5 -96t-10.5 -53q-24 -75 -112 -129.5t-165 -54.5q-94 0 -184 34t-122 105q-29 51 -38.5 90t-12.5 148zM512 191q33 100 8 303q-6 49 -40 82t-92 37q-127 9 -164 -79
q-14 -32 -19 -46t-9.5 -47t-2.5 -77q0 -5 10 -89q5 -35 28 -89q11 -26 53 -45.5t101 -18.5q48 0 85 23t42 46zM370 443q-14 -50 -1 -150q15 -32 36 -34q7 -1 24 -1t25 -1q0 -11 1 -45t0 -48q-10 1 -70 1q-61 0 -90 24q-32 25 -35 52q-7 66 -10 101t-0.5 88.5t15.5 84.5
q15 37 71 52.5t108 7.5q-1 -4 -0.5 -26t0.5 -47l1 -26h-15.5t-28.5 -2t-21 -8t-9 -10.5t-1 -8.5v-4z" />
    <glyph glyph-name="ordfeminine" unicode="&#xaa;" horiz-adv-x="427" 
d="M420 329q-131 0 -131 1l-8 48q-25 -14 -54 -24t-70.5 -16t-68.5 9q-40 28 -49 91t16 102q24 42 99 59t110 -9q-8 73 -29 87q-10 6 -35 8t-49 1t-49.5 -3t-28.5 -2q-4 82 -7 107q41 7 143 4.5t129 -16.5q17 -9 33 -32.5t22 -40.5q9 -28 14 -132q12 -233 13 -242zM48 287
q83 2 370 2q0 -9 1.5 -66t-0.5 -75l-371 -1v140zM251 505q-13 9 -31 8t-31 -7q-2 -1 -6.5 -2.5t-5.5 -2t-4 -2.5t-4 -4.5t-3 -7t-4 -11.5q1 -29 16 -38q10 -6 35.5 -0.5t34.5 15.5q1 1 2 3.5t3.5 9.5t3.5 13.5t0 13.5t-6 12z" />
    <glyph glyph-name="guillemotleft" unicode="&#xab;" horiz-adv-x="888" 
d="M373 363l126 116.5t158 141.5q27 -21 64.5 -54t63.5 -54q-53 -40 -168 -149l173 -143l-123 -105q-40 28 -89.5 71.5t-66.5 55.5q-23 16 -68.5 58t-69.5 62zM173 481q158 141 191 168q22 -17 43.5 -35.5l46 -40.5t41.5 -36q-30 -25 -104.5 -92l-91.5 -82q34 -27 106 -89
l78 -67l-105 -101q-130 94 -330 259z" />
    <glyph glyph-name="logicalnot" unicode="&#xac;" horiz-adv-x="579" 
d="M21 139l-2 183q27 2 156 1t165 -1q17 0 90.5 -2.5t115.5 -3.5q9 -55 10.5 -112.5t-0.5 -135t-2 -113.5q-41 -2 -85.5 -1.5t-100.5 -0.5q-1 38 -1 96.5t-1 88.5q-57 1 -345 1z" />
    <glyph glyph-name="registered" unicode="&#xae;" horiz-adv-x="690" 
d="M659 368q0 -125 -22 -205q-23 -82 -97 -127.5t-159 -46.5q-97 -2 -182 32t-119 113q-16 38 -31.5 95.5t-16.5 87.5q-9 152 37 259q33 77 124.5 113t190.5 29q91 -7 158 -51q39 -27 65.5 -68.5t34.5 -80.5q17 -76 17 -150zM497 189q14 31 18.5 60t3.5 80q-3 128 -26 186
q-13 32 -45.5 57.5t-70.5 28.5q-134 8 -165 -68q-2 -6 -8 -19.5l-8 -18t-7 -18.5t-5.5 -20.5t-4 -24t-2 -29.5t0.5 -36q1 -18 2.5 -40t1.5 -39q7 -56 24 -97q14 -32 58.5 -52.5t111.5 -19.5q42 1 75 21t46 49zM485 200l-73 -44q-3 4 -19.5 37l-32.5 63.5t-19 33.5
q-1 -7 -0.5 -63t0.5 -65q-62 0 -85 1q-2 302 0 397q8 0 31 -0.5t40 -1.5t38 -3t35 -6t21 -11l4 -3q4 -3 7.5 -6.5t8.5 -10t9 -14t8 -19t5 -24.5q3 -40 0 -60t-14 -56q-19 -30 -27 -33zM370 432q0 21 -9 35q-2 2 -11 3t-13 -1q1 -16 1 -47t1 -55q22 2 26 7.5t4 16.5z" />
    <glyph glyph-name="macron" unicode="&#xaf;" horiz-adv-x="538" 
d="M59 765q145 1 417 1q0 -10 2 -63t1 -69l-419 3z" />
    <glyph glyph-name="degree" unicode="&#xb0;" horiz-adv-x="350" 
d="M168 826q74 0 110 -40t36 -92q0 -64 -34.5 -101t-92.5 -39q-148 -5 -151 141q0 23 4 42.5t16 41t41 34.5t71 13zM203 691q0 15 -10 24.5t-24 9.5t-24 -9.5t-10 -24.5q0 -16 6.5 -25.5t27.5 -15.5q14 0 24 13t10 28z" />
    <glyph glyph-name="plusminus" unicode="&#xb1;" horiz-adv-x="591" 
d="M68 189q145 2 431 2q0 -18 2.5 -67t0.5 -84l-432 1zM516 375h-139q0 -115 1 -135q-9 0 -76 -1.5t-93 -0.5l-3 140h-138q-3 15 -2 80t0 79q18 2 143 2l-4 140l168 -2q-3 -45 -3 -135h144q2 -31 2.5 -86.5t-0.5 -80.5z" />
    <glyph glyph-name="twosuperior" unicode="&#xb2;" horiz-adv-x="460" 
d="M237 464l6 5q10 9 12 10l-13 -16l-24 -63q106 -4 172 0q13 0 15 -2v-20q0 -21 1 -56.5t5 -64.5h-353q-2 82 21 191q15 28 62 84q20 24 62 52q-2 1 10 14t25 29t8 35t-36 30q-17 6 -46 -14.5t-50 -43.5l-21 -24q-38 55 -56 95q2 2 21.5 19l35 29.5t37.5 28.5t43 24t37 7
q67 -5 90.5 -12.5t49.5 -38.5q55 -65 28 -148q-7 -21 -18 -35t-32.5 -31.5t-31.5 -27.5q-33 -33 -60 -56z" />
    <glyph glyph-name="threesuperior" unicode="&#xb3;" horiz-adv-x="437" 
d="M215 220q-66 3 -107 21q-54 24 -75 38l61 106q24 -22 78 -35q31 -7 52 10.5t23 46.5q1 16 -9.5 39t-31.5 29q-2 0 -23.5 3t-48.5 4v108l55 3q26 1 41 23t13 42q-5 49 -49 55q-25 3 -93 -35l-62 92q106 81 224 57q28 -6 53.5 -28t34.5 -43q14 -35 17.5 -73.5t-11.5 -78
t-52 -61.5q47 -26 59.5 -80t3 -98t-25.5 -72q-18 -31 -57 -53t-70 -20z" />
    <glyph glyph-name="acute" unicode="&#xb4;" horiz-adv-x="421" 
d="M318 826q-12 -17 -59 -90l-67 -102l-107 47q14 31 43.5 115t40.5 109z" />
    <glyph glyph-name="mu" unicode="&#xb5;" horiz-adv-x="587" 
d="M298 190q24 1 39.5 16t16.5 39q2 76 3 125l-1 222q58 3 74.5 3.5t39 -1.5t51.5 -3q3 -106 3.5 -298t4.5 -310q-7 -4 -25.5 -5t-42.5 -0.5t-29 0.5l-63 -2l-2 68q-31 -38 -70.5 -31t-60.5 55l-3 -256l-172 -2q9 237 8 402q-1 185 -6 381l174 1l10 -347q-2 1 -2 -2
q2 -15 22 -38q16 -17 31 -17z" />
    <glyph glyph-name="paragraph" unicode="&#xb6;" horiz-adv-x="543" 
d="M210 785h28.5h33h26.5l-5 -398q-130 25 -177.5 56t-58.5 100q-11 74 9.5 136t57.5 83q40 22 86 23zM486 784q1 -117 -5 -389t-4 -391l-144 -4l3 787z" />
    <glyph glyph-name="periodcentered" unicode="&#xb7;" horiz-adv-x="328" 
d="M216 497q35 -10 57.5 -36t27.5 -70t-24 -103q-72 -49 -129.5 -40.5t-91 55.5t-21.5 100q12 52 44 78t67 24.5t70 -8.5z" />
    <glyph glyph-name="cedilla" unicode="&#xb8;" horiz-adv-x="318" 
d="M280 -12q-72 -207 -84 -217q-8 1 -31 11.5t-44.5 21.5l-46 23.5t-25.5 13.5l89 168q10 -2 27 -4t51.5 -7t53 -8t10.5 -2z" />
    <glyph glyph-name="onesuperior" unicode="&#xb9;" horiz-adv-x="412" 
d="M265 258q-2 0 -20.5 0.5l-38 1t-44 0t-39.5 -1.5q0 81 2.5 180t4.5 156.5t1 63.5q-10 -6 -27 -15l-29.5 -15.5t-11.5 -5.5q-5 9 -11.5 24t-10.5 22.5l-10 18t-13 19.5l130 85l114 -1q8 -268 3 -532z" />
    <glyph glyph-name="ordmasculine" unicode="&#xba;" horiz-adv-x="424" 
d="M37 423q-11 64 -11 114q-2 90 4 123q9 49 46.5 82.5t75.5 36.5q113 11 168 -13q41 -18 60 -54q19 -42 19 -153t-16 -144q-22 -46 -60 -64.5t-110 -18.5q-31 0 -48.5 2t-42.5 9.5t-45.5 27.5t-39.5 52zM251 472q6 65 0 161q-1 18 -10 28t-21 10.5t-23.5 -3.5t-20 -12.5
t-8.5 -17.5q-4 -147 13 -177q7 -13 23 -18t30.5 2t16.5 27zM50 289q67 2 338 2q0 -11 1.5 -68t-0.5 -75l-339 -1v142z" />
    <glyph glyph-name="guillemotright" unicode="&#xbb;" horiz-adv-x="850" 
d="M401 529l42.5 36.5l42.5 36t45 34.5q31 -28 82 -79.5l111.5 -113l78.5 -79.5l-298 -264l-107 116q39 38 178 154q-27 23 -87.5 79.5t-87.5 79.5zM262 368l-162 147q21 17 59 50.5t65 54.5q81 -66 280 -252l-288 -248l-121 108z" />
    <glyph glyph-name="onequarter" unicode="&#xbc;" horiz-adv-x="882" 
d="M270 276q-122 0 -144 -2q0 79 1.5 180.5t2.5 139t0 63.5l-26.5 -18.5l-30 -21.5t-11.5 -8q-6 13 -14 32.5t-14.5 33t-15.5 25.5l148 107l100 4q8 -291 4 -535zM205 19l68 180q20 54 88 269.5t138 371.5l117 -61l-77 -206q-2 -5 -101.5 -302t-107.5 -318zM850 241l-1 -112
h-11.5t-18.5 0.5t-33 0.5v-130q-12 0 -51.5 1t-65.5 0q0 41 -1 128l-211 2q0 27 2 83q26 63 88 187.5t78 141.5h153l7 -301q14 0 27 -0.5t19 0t11 0t8 -0.5zM667 386q-13 -36 -34.5 -77t-33.5 -69q11 0 27 1t44 1q0 3 -3.5 70t0.5 74z" />
    <glyph glyph-name="onehalf" unicode="&#xbd;" horiz-adv-x="889" 
d="M268 274q-2 0 -21 0.5l-39 1t-44.5 0t-39.5 -1.5q0 80 2 175.5t3.5 148.5t0.5 59l-26.5 -18.5l-30 -21.5t-11.5 -8q-6 13 -14 32.5t-14.5 33t-15.5 25.5l148 107l108 4q2 -146 1.5 -207t-4 -187.5t-3.5 -142.5zM772 258q-45 -37 -62 -68l-18 -46q56 -2 100 -1t54 1
q3 -19 7.5 -72t6.5 -72q-285 0 -308 -2q-2 86 -1.5 96t7.5 46q7 39 31 80.5t49 61.5q8 7 35 34t33 32q13 11 13 36.5t-21 41.5q-11 6 -24 5t-26.5 -5.5t-25 -11l-18.5 -10.5l-6 -4l-54 86q37 37 70 54.5t84 17.5q81 0 114 -44q0 -1 5.5 -7t9.5 -11t10 -15.5t9.5 -19.5
t6.5 -22.5t3 -27t-4 -30t-12 -33.5q-9 -19 -26 -41.5t-30 -35.5zM217 15l60 184q20 62 54.5 184.5t71 229.5t90.5 227l123 -55q-19 -42 -33 -82.5t-24.5 -78t-15.5 -51.5l-98.5 -310.5t-102.5 -317.5z" />
    <glyph glyph-name="threequarters" unicode="&#xbe;" horiz-adv-x="849" 
d="M300 466q10 -99 -23 -164q-16 -30 -54.5 -50.5t-57.5 -16.5q-36 1 -57.5 9.5t-50.5 32.5t-42 33l60 99q53 -44 75 -47q23 -2 37.5 9t13.5 41q-2 18 -4.5 27t-9.5 18t-20 12.5t-35 3.5h-35l1 105q56 1 81.5 16t23.5 50q-3 51 -57 36q-2 -1 -8 -2t-9 -2t-9.5 -4t-14.5 -8
l-20 -13l-58 89q11 9 26 22.5l21.5 19t19.5 12.5t28.5 9.5t38.5 3.5q26 6 66.5 -12t60.5 -57q17 -33 20 -63.5t-8 -81.5q-8 -35 -61 -57q23 -10 41 -29t20 -41zM201 11l68 182l218 641l117 -57q-20 -42 -34 -78.5t-27.5 -78.5t-15.5 -49q-3 -8 -102.5 -307.5t-106.5 -316.5z
M832 249l-7 -126q-10 -1 -59 -1v-130q-79 0 -125 -1q0 41 -1 128l-211 -2q0 4 2.5 40l3.5 51q152 307 178 335q17 -1 68.5 0.5t72.5 1.5l9 -293q55 -1 69 -3zM643 380q-13 -35 -31 -68.5t-31 -63.5q11 0 22 -1t39 -1q-2 94 1 134z" />
    <glyph glyph-name="questiondown" unicode="&#xbf;" horiz-adv-x="441" 
d="M182 376h86t72 -1q-1 -1 1.5 -17t3.5 -41.5t-0.5 -55.5t-12 -64t-29.5 -61q-10 -15 -31 -38t-32.5 -38t-20 -33.5t-1 -34.5t31.5 -30q21 -12 87 -10.5t68 -0.5v-156q-22 0 -54 -0.5t-58 0t-56 3.5q-61 6 -93.5 17t-63.5 39q-33 30 -45.5 70.5t-7.5 75t20 63.5
q1 13 21 38.5l49 62.5t45 67q6 11 10 25t6 25t3 28t1 24.5v24.5v18zM290 607q35 -11 49.5 -52.5t-11.5 -106.5q-52 -37 -94.5 -31t-67 41t-15.5 75q9 39 33.5 60t52 20.5t53.5 -6.5z" />
    <glyph glyph-name="Agrave" unicode="&#xc0;" 
d="M330 714h92l179 -713l-206 -2q-4 19 -31 119q-20 0 -65.5 -0.5t-64.5 -1.5l-30 -116q-171 0 -203 1l177 712l67 1q5 -1 16.5 -1t32.5 0.5t36 0.5zM255 280l79 -1q10 0 17 1l-48 232q-9 -39 -21 -98t-19 -96.5t-8 -37.5zM374 812l-102 -64q-18 29 -38.5 57.5t-47 62
l-41.5 53.5l140 93q17 -33 45.5 -103.5t43.5 -98.5z" />
    <glyph glyph-name="Aacute" unicode="&#xc1;" 
d="M328 718h104l169 -717l-206 -2q-4 19 -31 119q-20 0 -65.5 -0.5t-64.5 -1.5l-30 -116q-171 0 -203 1l177 716l71 1h79zM255 280l79 -1q10 0 17 1l-48 232q-9 -39 -21 -98t-19 -96.5t-8 -37.5zM438 921q-12 -14 -40 -50.5l-51.5 -65.5t-41.5 -48l-90 56q16 30 43 101.5
t39 95.5z" />
    <glyph glyph-name="Acircumflex" unicode="&#xc2;" 
d="M332 704h96l173 -703l-206 -2q-4 19 -31 119q-20 0 -65.5 -0.5t-64.5 -1.5l-30 -116q-171 0 -203 1l173 702l71 -1q10 -1 18.5 -0.5t30 1.5t38.5 1zM255 280l79 -1q10 0 17 1l-48 232q-9 -39 -21 -98t-19 -96.5t-8 -37.5zM464 817l-80 -75l-82 76q-12 -10 -26 -20
t-28 -22l-41 -35q-3 3 -35 32.5t-43 43.5l175 139q7 -6 31 -23t40 -33q15 -16 47 -44t42 -39z" />
    <glyph glyph-name="Atilde" unicode="&#xc3;" 
d="M326 711l102 1l173 -711l-206 -2q-4 19 -31 119q-20 0 -65.5 -0.5t-64.5 -1.5l-30 -116q-171 0 -203 1l177 710l71 3q18 -3 77 -3zM255 280l79 -1q10 0 17 1l-48 232q-9 -39 -21 -98t-19 -96.5t-8 -37.5zM492 837q-24 -38 -65.5 -59t-76.5 -21q-26 0 -60 23.5t-49 23.5
q-36 -15 -56 -47l-84 84q21 33 61.5 62t69.5 29q26 0 57 -28.5t46 -28.5q14 0 37.5 15t43.5 37z" />
    <glyph glyph-name="Adieresis" unicode="&#xc4;" 
d="M326 716l104 -2l171 -713l-206 -2q-4 19 -31 119q-20 0 -65.5 -0.5t-64.5 -1.5l-30 -116q-171 0 -203 1l175 718l71 -1q1 0 79 -2zM255 280l79 -1q10 0 17 1l-48 232q-9 -39 -21 -98t-19 -96.5t-8 -37.5zM246 913q26 -16 27.5 -53.5t-17.5 -61.5q-35 -27 -68.5 -25.5
t-55.5 28t-15 60.5q7 36 30.5 53t50 15t48.5 -16zM446 914q26 -16 27.5 -53.5t-17.5 -61.5q-35 -27 -67.5 -26t-53.5 26.5t-14 59.5q7 36 29.5 53.5t48 16.5t47.5 -15z" />
    <glyph glyph-name="Aring" unicode="&#xc5;" 
d="M601 -2h-202l-34 123l-130 -1q-17 -50 -36 -121q-12 4 -96 1.5t-102 -0.5q6 35 84.5 306t86.5 307q-24 16 -45 59.5t-16 73.5q10 62 60 98.5t115 34.5q80 -2 130.5 -38t50.5 -102q0 -28 -18.5 -66.5t-39.5 -54.5l109 -336q61 -186 83 -284zM332 723q0 17 -10.5 29
t-25.5 12q-16 0 -27 -10.5t-11 -26.5q0 -36 30 -46q18 0 31 11t13 31zM339 283l-43 268l-53 -268h96z" />
    <glyph glyph-name="AE" unicode="&#xc6;" horiz-adv-x="822" 
d="M589 607v-125q25 -2 84.5 -0.5t92.5 -1.5q0 -6 1.5 -22.5t2 -21t1 -17t0.5 -18t-0.5 -17t-1.5 -20t-3 -20.5l-4 -25l-171 2q1 -18 1.5 -66.5t2.5 -71.5q19 0 82 1t116 0q-5 -33 -2 -90t1 -89q-268 -4 -376 -3l-5 103l-139 1l-39 -104q-24 0 -62 -1t-72.5 -1t-78.5 3
l42 111l260 650q349 15 467 12q0 -18 -2.5 -67.5t-0.5 -99.5zM400 546q-15 -40 -26 -76q-8 -25 -34 -100t-32 -95h98z" />
    <glyph glyph-name="Ccedilla" unicode="&#xc7;" horiz-adv-x="498" 
d="M94 -155l95 159q-46 9 -77.5 33t-40.5 59q-24 96 -26 242.5t25 318.5q14 85 121 116q76 32 267 24l-1 -182q-6 0 -31 0.5t-36.5 0t-34.5 -2t-36 -5.5t-29.5 -10.5t-26.5 -18t-16 -26.5q-11 -112 -12 -160.5t6 -151.5q2 -33 25 -52t59.5 -23t66 -4t59.5 3q5 1 7 1
q-1 -17 -0.5 -84t-1.5 -96q-5 0 -31.5 -1.5t-53 -1.5t-46.5 3q-66 -199 -78 -209q-10 3 -73 31t-80 37z" />
    <glyph glyph-name="Egrave" unicode="&#xc8;" horiz-adv-x="526" 
d="M328 830l-102 -64q-18 29 -38.5 57.5t-47 62l-41.5 53.5l140 93q17 -33 45.5 -103.5t43.5 -98.5zM243 559l-4 -102q23 -1 99 0.5t108 -1.5q2 -15 1 -43.5t-1.5 -37.5t-3.5 -39t-4 -48l-201 -5l5 -109q162 9 259 0q-4 -35 -4.5 -85.5t-5.5 -86.5q-79 -5 -435 -16
q-6 209 -5.5 267t4.5 198t5 267q90 4 213 3.5t220 1.5q0 -23 -2 -72t1 -88z" />
    <glyph glyph-name="Eacute" unicode="&#xc9;" horiz-adv-x="525" 
d="M241 557l-4 -104q23 -1 99 0.5t108 -1.5q2 -15 1 -43.5t-1.5 -37.5t-3.5 -39t-4 -48l-201 -5l5 -109q162 9 259 0q-4 -35 -4.5 -85.5t-5.5 -86.5q-79 -5 -435 -16q-4 168 -3.5 249.5t4 240.5t3.5 250q92 4 231 5t204 2q0 -23 -2 -76t1 -92zM406 940q-5 -8 -34.5 -52
l-49.5 -72.5t-37 -48.5l-97 49q14 31 39.5 103t36.5 96z" />
    <glyph glyph-name="Ecircumflex" unicode="&#xca;" horiz-adv-x="521" 
d="M237 569l-4 -104q23 -1 99 0.5t108 -1.5q2 -15 1 -43.5t-1.5 -37.5t-3.5 -39t-4 -48l-201 -5q1 -22 1.5 -57t1.5 -56q190 11 261 4q-4 -35 -4.5 -85.5t-5.5 -86.5q-79 -5 -435 -16q-4 164 -3 246.5t5 234.5t4 247q92 4 229 5t202 2q0 -20 -1 -70.5t2 -85.5zM447 836
l-86 -71q-16 15 -49 36t-47 34q-11 -10 -28.5 -21t-31.5 -23l-33 -29q-9 9 -44.5 34t-45.5 38l181 147q11 -9 42 -31t47 -35q9 -8 45.5 -36.5t49.5 -42.5z" />
    <glyph glyph-name="Edieresis" unicode="&#xcb;" horiz-adv-x="525" 
d="M241 573l-4 -104q23 -1 99 0.5t108 -1.5q3 -43 -8 -174l-201 -3l5 -105q162 9 259 0q-4 -35 -4.5 -85.5t-5.5 -86.5q-79 -5 -435 -16q-4 168 -3.5 249.5t4 240.5t3.5 250q92 4 231 5t204 2q0 -23 -2 -76t1 -92zM223 933q26 -16 27.5 -53.5t-17.5 -61.5
q-35 -27 -68.5 -25.5t-55.5 28t-15 60.5q7 36 30.5 53t50 15t48.5 -16zM423 934q26 -16 27.5 -53.5t-17.5 -61.5q-35 -27 -67.5 -26t-53.5 26.5t-14 59.5q7 36 29.5 53.5t48 16.5t47.5 -15z" />
    <glyph glyph-name="Igrave" unicode="&#xcc;" horiz-adv-x="345" 
d="M83 465q0 50 -1 87t-1.5 51t0 44t3.5 82q46 1 191 1q5 -171 7 -730l-203 1q4 365 4 464zM252 839l-84 -67q-41 57 -134 167l123 91l43 -89t52 -102z" />
    <glyph glyph-name="Iacute" unicode="&#xcd;" horiz-adv-x="333" 
d="M301 948q-5 -8 -34.5 -52l-49.5 -72.5t-37 -48.5l-95 49q14 31 41 103t37 96zM67 465q0 50 -1 87t-1.5 51t0 44t3.5 82q46 1 191 1q5 -171 7 -730l-203 1q4 365 4 464z" />
    <glyph glyph-name="Icircumflex" unicode="&#xce;" horiz-adv-x="295" 
d="M318 881l-72 -83q-17 16 -52.5 46l-47.5 40q-12 -10 -26 -20t-28 -22l-51 -43q-32 32 -70 80l177 145q10 -10 20 -17.5l24 -17.5t25 -19q79 -64 101 -89zM50 453q0 57 -1.5 111t-1.5 90.5t5 102.5q14 5 78.5 2.5t107.5 -0.5q13 -441 14 -761l-197 2q-5 354 -5 453z" />
    <glyph glyph-name="Idieresis" unicode="&#xcf;" horiz-adv-x="313" 
d="M46 461q0 62 -2.5 112.5t-3 69.5t3.5 104q21 1 87.5 0.5t116.5 1.5q11 -365 12 -749h-213q-1 362 -1 461zM112 935q26 -16 27.5 -53.5t-17.5 -61.5q-35 -27 -68.5 -25.5t-55.5 28t-15 60.5q7 36 30.5 53t50 15t48.5 -16zM291 936q26 -16 27.5 -53.5t-17.5 -61.5
q-35 -27 -67.5 -26t-53.5 26.5t-14 59.5q7 36 29.5 53.5t48 16.5t47.5 -15z" />
    <glyph glyph-name="Eth" unicode="&#xd0;" horiz-adv-x="560" 
d="M-15 315l-6 161q7 0 25 1.5t39 2.5v315q169 -3 285 -39t162 -125q25 -77 30.5 -162t0 -139.5t-18.5 -131.5q-13 -78 -147 -138t-306 -64q-2 32 -2 78t0.5 116.5t0.5 125.5zM225 593v-114h56l-1 -155h-55l-1 -131q4 1 18.5 4t19.5 4.5l16.5 5t17 7.5l13.5 10t13 14t9 19
q12 31 13.5 76t-1.5 93q-1 42 -2 59.5t-10.5 44t-28.5 40.5q-30 22 -77 23z" />
    <glyph glyph-name="Ntilde" unicode="&#xd1;" horiz-adv-x="676" 
d="M240 393q2 -70 -2.5 -215t-3.5 -178h-182l6 733h191q20 -34 84.5 -166.5t108.5 -211.5l3 378l175 2q8 -387 -5 -733q-19 -3 -97.5 -1.5t-83.5 1.5zM531 840q-24 -38 -65.5 -59t-76.5 -21q-26 0 -60 23.5t-49 23.5q-36 -15 -56 -47l-84 84q21 33 61.5 62t69.5 29
q26 0 57 -28.5t46 -28.5q14 0 37.5 15t43.5 37z" />
    <glyph glyph-name="Ograve" unicode="&#xd2;" horiz-adv-x="541" 
d="M503 507q6 -60 0.5 -240.5t-27.5 -221.5q-23 -43 -144 -62q-5 0 -29.5 -0.5t-35 -0.5t-34.5 0.5t-37.5 2.5t-33.5 6t-32.5 10t-25.5 15.5t-20 21.5q-10 16 -18 43.5t-12 51t-7.5 63.5t-4.5 58t-2.5 58.5t-1.5 41.5q-14 300 80 350q25 14 89 20.5t133.5 -2t96.5 -34.5
q26 -25 45 -85.5t21 -95.5zM326 191q0 29 0.5 91.5t0.5 94t-2 80.5t-7 93q-1 11 -5 18t-7.5 10.5t-12.5 5t-12 1.5t-16 -1t-15 -1q-10 -3 -15 -11t-6.5 -15.5t-2 -22.5t-1.5 -22q0 -53 1 -93.5t5 -114.5t6 -129q1 -19 13.5 -29.5t30.5 -4.5q26 2 35.5 14t9.5 36zM321 830
l-94 -64l-60.5 76.5l-74.5 96.5l136 93q18 -35 49 -105.5t44 -96.5z" />
    <glyph glyph-name="Oacute" unicode="&#xd3;" horiz-adv-x="543" 
d="M505 507q5 -101 -1 -261t-28 -201q-23 -43 -144 -62q-5 0 -29.5 -0.5t-35 -0.5t-34.5 0.5t-37.5 2.5t-33.5 6t-32.5 10t-25.5 15.5t-20 21.5q-10 16 -18 43.5t-12 51t-7.5 63.5t-4.5 58t-2.5 58.5t-1.5 41.5q-15 303 80 354q42 23 154 23t165 -35q23 -18 44.5 -79
t23.5 -110zM326 191q0 29 0.5 91.5t0.5 94t-2 80.5t-7 93q-2 20 -13 29t-25 7.5t-30 -1.5q-10 -3 -15 -11.5t-6.5 -16.5t-2 -23t-1.5 -22q0 -53 1 -93.5t5 -114.5t6 -129q1 -19 13.5 -29.5t30.5 -4.5q26 2 35.5 14t9.5 36zM395 943q-5 -8 -34.5 -52l-49.5 -72.5t-37 -48.5
l-97 49q14 31 42 103t38 96z" />
    <glyph glyph-name="Ocircumflex" unicode="&#xd4;" horiz-adv-x="547" 
d="M507 509q9 -59 0 -240t-31 -224q-23 -43 -144 -62q-5 0 -29.5 -0.5t-35 -0.5t-34.5 0.5t-37.5 2.5t-33.5 6t-32.5 10t-25.5 15.5t-20 21.5q-10 16 -18 43.5t-12 51t-7.5 63.5t-4.5 58t-2.5 58.5t-1.5 41.5q-1 68 -1.5 136t19.5 129.5t60 82.5q43 23 156.5 25.5
t166.5 -33.5q52 -46 68 -185zM326 191q0 30 0.5 89t0.5 87.5t-2 74.5t-7 90q-2 21 -12.5 31t-24 10h-29.5q-10 -3 -15.5 -10t-7 -11.5t-2.5 -19.5t-2 -20q0 -53 1 -93.5t5 -114.5t6 -129q1 -19 13.5 -29.5t30.5 -4.5q26 2 35.5 14t9.5 36zM441 850l-80 -81
q-17 16 -48.5 41.5t-43.5 36.5l-16 -14.5l-13.5 -12l-18.5 -15.5l-45 -37q-3 3 -37 34.5t-45 45.5l171 147l36.5 -28t42.5 -34q4 -4 43.5 -36.5t53.5 -46.5z" />
    <glyph glyph-name="Otilde" unicode="&#xd5;" horiz-adv-x="544" 
d="M506 507q5 -101 -1 -261t-28 -201q-23 -43 -144 -62q-5 0 -29.5 -0.5t-35 -0.5t-34.5 0.5t-37.5 2.5t-33.5 6t-32.5 10t-25.5 15.5t-20 21.5q-10 16 -18 43.5t-12 51t-7.5 63.5t-4.5 58t-2.5 58.5t-1.5 41.5l-2 137t18.5 132.5t59.5 84.5q43 23 157 26t168 -32
q22 -18 43 -81.5t23 -113.5zM327 191q0 29 0.5 91.5t0.5 94t-2 80.5t-7 93q-2 20 -13 29t-25 7.5t-30 -1.5q-10 -3 -15 -11.5t-6.5 -16.5t-2 -23t-1.5 -22q0 -53 1 -93.5t5 -114.5t6 -129q1 -19 13.5 -29.5t30.5 -4.5q26 2 35.5 14t9.5 36zM449 860q-24 -38 -65.5 -59
t-76.5 -21q-26 0 -60 23.5t-49 23.5q-36 -15 -56 -47l-84 84q21 33 61.5 62t69.5 29q26 0 57 -28.5t46 -28.5q14 0 37.5 15t43.5 37z" />
    <glyph glyph-name="Odieresis" unicode="&#xd6;" horiz-adv-x="542" 
d="M502 505q8 -61 2.5 -239.5t-27.5 -220.5q-23 -43 -144 -62q-5 0 -29.5 -0.5t-35 -0.5t-34.5 0.5t-37.5 2.5t-33.5 6t-32.5 10t-25.5 15.5t-20 21.5q-10 16 -18 43.5t-12 51t-7.5 63.5t-4.5 58t-2.5 58.5t-1.5 41.5l-2 137t18.5 132.5t59.5 84.5q26 14 92.5 23.5t138 3
t96.5 -34.5q49 -56 60 -195zM327 191q0 29 0.5 91.5t0.5 94t-2 80.5t-7 93q-2 20 -13 29t-25 7.5t-30 -1.5q-10 -3 -15 -11.5t-6.5 -16.5t-2 -23t-1.5 -22q0 -53 1 -93.5t5 -114.5t6 -129q1 -19 13.5 -29.5t30.5 -4.5q26 2 35.5 14t9.5 36zM220 917q26 -16 27.5 -53.5
t-17.5 -61.5q-35 -27 -68.5 -25.5t-55.5 28t-15 60.5q7 36 30.5 53t50 15t48.5 -16zM407 921q26 -17 29 -54t-15 -61q-35 -27 -67.5 -26t-53.5 26.5t-14 59.5q7 36 28.5 53.5t46 16.5t46.5 -15z" />
    <glyph glyph-name="multiply" unicode="&#xd7;" horiz-adv-x="557" 
d="M464 270q-28 -24 -106 -99l-89 82l-84 -84q-14 11 -60 56.5t-52 50.5q8 11 19.5 22l32 30.5l36.5 35.5l-94 86l110 108q5 -4 23.5 -22.5l42 -43l30.5 -31.5l49.5 53.5t36.5 39.5q39 -35 105 -104l-88 -93q17 -17 38.5 -36.5t31.5 -30t18 -20.5z" />
    <glyph glyph-name="Oslash" unicode="&#xd8;" horiz-adv-x="539" 
d="M546 803q-7 -14 -27.5 -48.5t-30.5 -54.5q24 -29 34 -77q15 -85 15 -257t-11 -227q-7 -36 -32.5 -74.5t-47.5 -52.5q-53 -33 -119 -40q-71 -1 -118 21.5t-65 54.5q-9 -10 -27.5 -40.5t-25.5 -46.5l-66 42l73 119q-47 87 -55 299q-4 124 10 213t66 130q60 46 137 47
q125 1 175 -58q4 10 26 51t23 44q45 -25 66 -45zM286 647q-49 1 -66 -46q-7 -20 -8 -99t9 -144q20 36 56 109.5t61 116.5q0 33 -11 45.5t-41 17.5zM364 175q6 92 -2 285q-24 -43 -61.5 -121.5t-58.5 -118.5q-1 -28 14.5 -58t40.5 -31q23 -1 39.5 10t21.5 23z" />
    <glyph glyph-name="Ugrave" unicode="&#xd9;" horiz-adv-x="573" 
d="M534 725q1 -114 2.5 -138t2.5 -133q2 -95 -8.5 -210.5t-24.5 -139.5q-24 -51 -75 -74t-124 -33q-94 0 -147.5 21.5t-78 62.5t-34.5 115q-3 22 -5 49.5t-2.5 57t-1.5 38.5q-9 184 -1 384l173 1l3 -383q1 -72 20 -125.5t56 -52.5q33 0 49.5 46t16.5 111l1 403h178zM359 826
l-102 -64q-24 36 -70 94.5l-61 78.5l144 93q17 -33 45.5 -103.5t43.5 -98.5z" />
    <glyph glyph-name="Uacute" unicode="&#xda;" horiz-adv-x="573" 
d="M539 735q1 -109 -1 -145t0 -150q2 -95 -8.5 -210.5t-24.5 -139.5q-24 -51 -75 -74t-124 -33q-94 0 -147.5 21.5t-78 62.5t-34.5 115q-3 22 -5 49.5t-2.5 57t-1.5 38.5q-9 174 1 412l177 -1l-3 -409q-1 -44 6.5 -83.5t25.5 -67t44 -27.5q64 1 66 157l3 429zM411 937
q-87 -128 -125 -173l-93 49l86 199z" />
    <glyph glyph-name="Ucircumflex" unicode="&#xdb;" horiz-adv-x="573" 
d="M473 852l-86 -83l-96 90l-54 -46l-51 -43q-2 2 -39.5 37t-48.5 49l189 155l39.5 -31t47.5 -39zM539 735q1 -109 -1 -145t0 -150q2 -95 -8.5 -210.5t-24.5 -139.5q-24 -51 -75 -74t-124 -33q-94 0 -147.5 21.5t-78 62.5t-34.5 115q-3 22 -5 49.5t-2.5 57t-1.5 38.5
q-9 174 1 412l177 -1l-3 -409q-1 -44 6.5 -83.5t25.5 -67t44 -27.5q64 1 66 157l3 429z" />
    <glyph glyph-name="Udieresis" unicode="&#xdc;" horiz-adv-x="573" 
d="M240 916q26 -16 27.5 -53.5t-17.5 -61.5q-35 -27 -68.5 -25.5t-55.5 28t-15 60.5q7 36 30.5 53t50 15t48.5 -16zM437 917q26 -16 27.5 -53.5t-17.5 -61.5q-35 -27 -67.5 -26t-53.5 26.5t-14 59.5q7 36 29.5 53.5t48 16.5t47.5 -15zM539 735q1 -109 -1 -145t0 -150
q2 -95 -8.5 -210.5t-24.5 -139.5q-24 -51 -75 -74t-124 -33q-94 0 -147.5 21.5t-78 62.5t-34.5 115q-3 22 -5 49.5t-2.5 57t-1.5 38.5q-9 174 1 412l177 -1l-3 -409q-1 -44 6.5 -83.5t25.5 -67t44 -27.5q64 1 66 157l3 429z" />
    <glyph glyph-name="Yacute" unicode="&#xdd;" horiz-adv-x="692" 
d="M389 1q-3 0 -23.5 -0.5t-49 -0.5h-53.5l-6 399l-246 279l51.5 49.5t86.5 73.5q36 -32 104 -108.5t100 -107.5q26 28 85 105t96 114l147 -103l-232 -302l8 -397l-26 -2q-17 0 -42 1zM504 926q-12 -17 -59 -90l-67 -102l-107 47q14 31 43.5 115t40.5 109z" />
    <glyph glyph-name="Thorn" unicode="&#xde;" horiz-adv-x="544" 
d="M225 414l14 -224q9 -14 21 -17t37 -1q14 1 22.5 10.5t11 18t2.5 13.5q0 84 -8 190q2 22 -8.5 39t-29.5 17q-20 0 -31 -1.5t-21.5 -12.5t-9.5 -32zM467 75q-21 -13 -49 -21.5t-74.5 -8t-92.5 18.5l4 -97l-212 -7q1 68 -5 295.5t-8 347.5q122 6 171 5v-51q51 23 102.5 32
t86 5.5t54.5 -15.5q19 -9 31.5 -31.5t19 -65t9 -65.5t5.5 -78q5 -81 -8 -165.5t-34 -98.5z" />
    <glyph glyph-name="germandbls" unicode="&#xdf;" horiz-adv-x="575" 
d="M520 608q0 -22 -3 -43.5t-6 -37t-10 -35t-11 -28.5l-12.5 -27t-10.5 -23q-7 -17 3 -58t23.5 -89t20.5 -100t-12 -103.5t-68 -85.5q-17 -12 -35.5 -21t-34 -15.5t-19.5 -8.5l-56 170q3 3 13 9t15.5 10.5t13.5 16t7.5 25t-3.5 37.5q-4 19 -19 71.5t-18 73.5t-1 63t17 87
q32 30 40 68t-8 58q-20 32 -52 32q-25 0 -39 -24t-15 -50q-3 -126 -3 -526q0 -66 2.5 -136t1.5 -95q-37 0 -169 -8q-11 298 -1 767q4 125 76 182q64 51 145 51q103 0 182 -78q46 -62 46 -129z" />
    <glyph glyph-name="agrave" unicode="&#xe0;" horiz-adv-x="556" 
d="M335 407q-7 28 -22 41t-44 18q-35 8 -84 4q-64 -5 -73 -8q-3 36 -4 72t-3 64q282 26 337 -35q9 -10 16.5 -22.5t10 -19l7.5 -20.5l4 -14q11 -30 15 -182l11 -318q-34 -1 -88 -3.5t-75 -2.5q-3 57 -3 63q-49 -27 -81.5 -40t-75 -12.5t-75.5 25.5q-44 33 -55 92.5t2 107
t33 65.5q58 50 252 39q3 52 -5 86zM333 216q-88 0 -112 -19q-10 -8 -12 -32t13 -40q18 -10 48 -4t63 21q2 9 2 23t-1 30t-1 21zM119 842l130 84q25 -36 56.5 -108.5t47.5 -95.5l-94 -63l-61 79z" />
    <glyph glyph-name="aacute" unicode="&#xe1;" horiz-adv-x="556" 
d="M335 407q-7 28 -22 41t-44 18q-35 8 -84 4q-64 -5 -73 -8q-3 36 -4 72t-3 64q282 26 337 -35q9 -10 16.5 -22.5t10 -19l7.5 -20.5l4 -14q11 -30 15 -182l11 -318q-34 -1 -88 -3.5t-75 -2.5q-3 57 -3 63q-49 -27 -81.5 -40t-75 -12.5t-75.5 25.5q-44 33 -55 92.5t2 107
t33 65.5q58 50 252 39q3 52 -5 86zM333 216q-88 0 -112 -19q-10 -8 -12 -32t13 -40q18 -10 48 -4t63 21q2 9 2 23t-1 30t-1 21zM419 843q-12 -17 -59 -90l-67 -102l-107 47q14 31 43.5 115t40.5 109z" />
    <glyph glyph-name="acircumflex" unicode="&#xe2;" horiz-adv-x="556" 
d="M335 407q-7 28 -22 41t-44 18q-35 8 -84 4q-64 -5 -73 -8q-3 36 -4 72t-3 64q282 26 337 -35q9 -10 16.5 -22.5t10 -19l7.5 -20.5l4 -14q11 -30 15 -182l11 -318q-34 -1 -88 -3.5t-75 -2.5q-3 57 -3 63q-49 -27 -81.5 -40t-75 -12.5t-75.5 25.5q-44 33 -55 92.5t2 107
t33 65.5q58 50 252 39q3 52 -5 86zM333 216q-88 0 -112 -19q-10 -8 -12 -32t13 -40q18 -10 48 -4t63 21q2 9 2 23t-1 30t-1 21zM164 659q-23 15 -53.5 43.5t-47.5 41.5l216 165l82 -71t115 -93l-101 -92q-23 19 -56 52.5t-48 45.5l-59 -51t-48 -41z" />
    <glyph glyph-name="atilde" unicode="&#xe3;" horiz-adv-x="532" 
d="M339 407q-6 27 -23 40t-47 19q-35 8 -84 4q-64 -5 -73 -8q-3 36 -4 72t-3 64q282 26 337 -35q9 -10 16.5 -22.5t10 -19l7.5 -20.5l4 -14q11 -30 15 -182l11 -302q-34 -1 -85 -3t-71 -2q-2 8 -3.5 26t-5.5 38q-29 -36 -98.5 -50.5t-134.5 5.5q-44 33 -53.5 97t4.5 115.5
t34 69.5q63 73 247 22q2 29 2 48zM311 213q-24 14 -49.5 9t-40.5 -17q-11 -9 -14.5 -36t15.5 -36q30 -9 58.5 3.5t34.5 38.5q6 30 -4 38zM484 751q-26 -41 -69.5 -72.5t-74.5 -31.5q-26 0 -67 19.5t-56 19.5q-3 -1 -12 -4.5l-14 -5.5t-13 -6.5t-14.5 -10.5t-12.5 -14l-96 80
q25 40 68 69.5t79 29.5q26 0 70 -21.5t59 -21.5q28 0 73 48z" />
    <glyph glyph-name="adieresis" unicode="&#xe4;" horiz-adv-x="556" 
d="M335 407q-7 28 -22 41t-44 18q-35 8 -84 4q-64 -5 -73 -8q-3 36 -4 72t-3 64q282 26 337 -35q9 -10 16.5 -22.5t10 -19l7.5 -20.5l4 -14q11 -30 15 -182l11 -318q-34 -1 -88 -3.5t-75 -2.5q-3 57 -3 63q-49 -27 -81.5 -40t-75 -12.5t-75.5 25.5q-44 33 -55 92.5t2 107
t33 65.5q58 50 252 39q3 52 -5 86zM333 216q-88 0 -112 -19q-10 -8 -12 -32t13 -40q18 -10 48 -4t63 21q2 9 2 23t-1 30t-1 21zM226 793q26 -16 27.5 -53.5t-17.5 -61.5q-35 -27 -68.5 -25.5t-55.5 28t-15 60.5q7 36 30.5 53t50 15t48.5 -16zM420 796q26 -16 27.5 -53.5
t-17.5 -61.5q-35 -27 -67.5 -26t-53.5 26.5t-14 59.5q7 36 29.5 53.5t48 16.5t47.5 -15z" />
    <glyph glyph-name="aring" unicode="&#xe5;" horiz-adv-x="556" 
d="M335 407q-7 28 -22 41t-44 18q-35 8 -84 4q-64 -5 -73 -8q-3 36 -4 72t-3 64q282 26 337 -35q9 -10 16.5 -22.5t10 -19l7.5 -20.5l4 -14q11 -30 15 -182l11 -318q-34 -1 -88 -3.5t-75 -2.5q-3 57 -3 63q-49 -27 -81.5 -40t-75 -12.5t-75.5 25.5q-44 33 -55 92.5t2 107
t33 65.5q58 50 252 39q3 52 -5 86zM333 216q-88 0 -112 -19q-10 -8 -12 -32t13 -40q18 -10 48 -4t63 21q2 9 2 23t-1 30t-1 21zM417 798q2 -33 -10 -68t-31 -48q-30 -27 -84.5 -30t-95.5 21q-24 15 -40.5 49t-11.5 79q6 59 46.5 95t92.5 32q55 -3 93 -35t41 -95zM318 788
q-1 18 -12 29t-26 11q-17 0 -29.5 -11t-10.5 -34q2 -20 9.5 -26t28.5 -9q14 0 27.5 12t12.5 28z" />
    <glyph glyph-name="ae" unicode="&#xe6;" horiz-adv-x="787" 
d="M111 304q28 18 82 29t121 5q3 11 -1 56t-12 52q-12 11 -53.5 12t-81.5 -3t-67 -10q-4 60 -12 148l60 6.5l68 7.5t64.5 3t62.5 -5.5t47.5 -20t33.5 -37.5q18 40 76 56t114 4.5t73 -41.5q28 -51 34 -106q8 -71 4 -121l-6 -76q-143 -4 -221 -5q-2 -52 10 -94q10 -33 191 -17
l-2 -142q-12 -1 -40.5 -3t-45 -3t-44 -2.5t-45 0t-41 4t-38 8.5t-29 14.5t-23 22t-11.5 30.5q-8 -45 -70.5 -67t-127.5 -17t-86 27q-27 27 -40 82.5t-0.5 115.5t56.5 87zM603 384v57q0 38 -48 38q-22 0 -35 -10t-16 -24.5t-4.5 -31.5t0.5 -32q19 1 51 1t52 2zM296 215
q-16 13 -37 10t-35 -9.5t-25 -15.5q-13 -11 -13.5 -36.5t19.5 -32.5q65 -14 93 40q6 38 -2 44z" />
    <glyph glyph-name="ccedilla" unicode="&#xe7;" horiz-adv-x="449" 
d="M218 299q7 -85 22 -114q21 -18 39.5 -24.5t45 -7t29.5 -0.5q7 -1 30.5 -0.5t28.5 0.5q-4 -142 -6 -158q-19 1 -64 0.5t-62 2.5q-13 1 -30.5 2.5t-25.5 2t-20 3t-25 7.5q-57 20 -89.5 55.5t-41.5 101.5q-11 78 -11 174q0 101 30 156t119.5 79.5t206.5 14.5l2 -79v-80h-50
t-45.5 -1t-40.5 -5.5t-34 -13.5q-6 -9 -9.5 -20t-3.5 -25.5t0.5 -23.5t2.5 -26t2 -21zM314 1q-72 -207 -84 -217q-8 1 -31 11.5t-44.5 21.5l-46 23.5t-25.5 13.5l89 168q10 -2 27 -4t51.5 -7t53 -8t10.5 -2z" />
    <glyph glyph-name="egrave" unicode="&#xe8;" horiz-adv-x="486" 
d="M230 160q11 -8 27.5 -13t41.5 -6.5t41 -2t48 0t42 0.5l5 -143q-285 -11 -348 61t-52 332q9 188 130 209q202 34 253 -50q26 -45 30 -95q1 -18 1.5 -34t1 -38t1.5 -42v-2t-0.5 -5t-0.5 -8t-0.5 -9.5l-1 -10.5l-1 -10t-0.5 -9t-0.5 -7.5t-0.5 -5.5v-1q-28 -1 -245 -1
q-3 -27 2 -56q6 -38 26 -54zM199 379l116 -2q0 12 -0.5 23.5t-1 20t-1 15.5t-0.5 11l-1 4q0 2 -0.5 4t-3.5 7t-8.5 8.5t-17 6.5t-27.5 3q-25 0 -38 -11.5t-14 -22.5l-1 -12q0 -1 -0.5 -8t-1 -19.5t-0.5 -27.5zM118 833l130 84q25 -36 56.5 -108.5t47.5 -95.5l-94 -63l-61 79
z" />
    <glyph glyph-name="eacute" unicode="&#xe9;" horiz-adv-x="486" 
d="M230 160q11 -8 27.5 -13t41.5 -6.5t41 -2t48 0t42 0.5l5 -143q-285 -11 -348 61t-52 332q9 188 130 209q202 34 253 -50q26 -45 30 -95q1 -18 1.5 -34t1 -38t1.5 -42v-2t-0.5 -5t-0.5 -8t-0.5 -9.5l-1 -10.5l-1 -10t-0.5 -9t-0.5 -7.5t-0.5 -5.5v-1q-28 -1 -245 -1
q-3 -27 2 -56q6 -38 26 -54zM199 379l116 -2q0 12 -0.5 23.5t-1 20t-1 15.5t-0.5 11l-1 4q0 2 -0.5 4t-3.5 7t-8.5 8.5t-17 6.5t-27.5 3q-25 0 -38 -11.5t-14 -22.5l-1 -12q0 -1 -0.5 -8t-1 -19.5t-0.5 -27.5zM407 840q-12 -17 -59 -90l-67 -102l-107 47q14 31 43.5 115
t40.5 109z" />
    <glyph glyph-name="ecircumflex" unicode="&#xea;" horiz-adv-x="486" 
d="M230 160q11 -8 27.5 -13t41.5 -6.5t41 -2t48 0t42 0.5l5 -143q-285 -11 -348 61t-52 332q9 188 130 209q202 34 253 -50q26 -45 30 -95q1 -18 1.5 -34t1 -38t1.5 -42v-2t-0.5 -5t-0.5 -8t-0.5 -9.5l-1 -10.5l-1 -10t-0.5 -9t-0.5 -7.5t-0.5 -5.5v-1q-28 -1 -245 -1
q-3 -27 2 -56q6 -38 26 -54zM199 379l116 -2q0 12 -0.5 23.5t-1 20t-1 15.5t-0.5 11l-1 4q0 2 -0.5 4t-3.5 7t-8.5 8.5t-17 6.5t-27.5 3q-25 0 -38 -11.5t-14 -22.5l-1 -12q0 -1 -0.5 -8t-1 -19.5t-0.5 -27.5zM147 662q-23 15 -53.5 43.5t-47.5 41.5l216 165l82 -71t115 -93
l-101 -92q-23 19 -56 52.5t-48 45.5l-59 -51t-48 -41z" />
    <glyph glyph-name="edieresis" unicode="&#xeb;" horiz-adv-x="486" 
d="M230 160q11 -8 27.5 -13t41.5 -6.5t41 -2t48 0t42 0.5l5 -143q-285 -11 -348 61t-52 332q9 188 130 209q202 34 253 -50q26 -45 30 -95q1 -18 1.5 -34t1 -38t1.5 -42v-2t-0.5 -5t-0.5 -8t-0.5 -9.5l-1 -10.5l-1 -10t-0.5 -9t-0.5 -7.5t-0.5 -5.5v-1q-28 -1 -245 -1
q-3 -27 2 -56q6 -38 26 -54zM199 379l116 -2q0 12 -0.5 23.5t-1 20t-1 15.5t-0.5 11l-1 4q0 2 -0.5 4t-3.5 7t-8.5 8.5t-17 6.5t-27.5 3q-25 0 -38 -11.5t-14 -22.5l-1 -12q0 -1 -0.5 -8t-1 -19.5t-0.5 -27.5zM192 793q26 -16 27.5 -53.5t-17.5 -61.5q-35 -27 -68.5 -25.5
t-55.5 28t-15 60.5q7 36 30.5 53t50 15t48.5 -16zM386 796q26 -16 27.5 -53.5t-17.5 -61.5q-35 -27 -67.5 -26t-53.5 26.5t-14 59.5q7 36 29.5 53.5t48 16.5t47.5 -15z" />
    <glyph glyph-name="igrave" unicode="&#xec;" horiz-adv-x="357" 
d="M269 585q6 -37 14 -266.5t9 -316.5q-53 -2 -94.5 -2t-101.5 -1q-19 327 -18 583q103 2 191 3zM12 846l164 55q17 -40 33.5 -117t27.5 -103l-106 -44q-18 22 -35 52t-22 37q-11 14 -62 120z" />
    <glyph glyph-name="iacute" unicode="&#xed;" horiz-adv-x="342" 
d="M255 581q6 -37 14 -265t9 -314q-53 -2 -94.5 -2t-101.5 -1q-19 326 -18 579q103 2 191 3zM321 843q-12 -17 -59 -90l-67 -102l-107 47q14 31 43.5 115t40.5 109z" />
    <glyph glyph-name="icircumflex" unicode="&#xee;" horiz-adv-x="380" 
d="M299 581q6 -37 14 -265t9 -314q-53 -2 -94.5 -2t-101.5 -1q-19 326 -18 579q103 2 191 3zM83 627q-23 15 -53.5 43.5t-47.5 41.5l216 165l82 -71t115 -93l-101 -92q-23 19 -56 52.5t-48 45.5l-59 -51t-48 -41z" />
    <glyph glyph-name="idieresis" unicode="&#xef;" horiz-adv-x="340" 
d="M266 581q6 -37 14 -265t9 -314q-53 -2 -94.5 -2t-101.5 -1q-19 326 -18 579q103 2 191 3zM130 776q26 -16 27.5 -53.5t-17.5 -61.5q-35 -27 -68.5 -25.5t-55.5 28t-15 60.5q7 36 30.5 53t50 15t48.5 -16zM316 779q26 -16 27.5 -53.5t-17.5 -61.5q-35 -27 -67.5 -26
t-53.5 26.5t-14 59.5q7 36 29.5 53.5t48 16.5t47.5 -15z" />
    <glyph glyph-name="eth" unicode="&#xf0;" horiz-adv-x="533" 
d="M292 215q-1 44 -14 70t-38 25q-28 -1 -38.5 -13t-13.5 -33q-5 -34 4 -82q2 -10 6.5 -17.5t9.5 -10.5t12 -5t11.5 -2t11 0.5t7.5 0.5q19 0 30.5 18t11.5 49zM276 579l-69 -63l-47 32q-39 33 -49 33l72 76q-44 41 -101 65l68 114q20 -9 41 -21l47 -27.5l39 -23.5l63 60
q67 -46 119 -90q-36 -30 -65 -64q36 -29 62 -82.5t28 -78.5q10 -151 4.5 -215.5t-30.5 -163.5q-59 -150 -289 -130q-32 10 -54.5 28t-34.5 36t-19.5 48t-10 50.5t-5.5 57.5q-7 89 17 149q9 23 35 43.5t62 33.5t83 2t90 -49q0 57 -9 90q-12 47 -47 90z" />
    <glyph glyph-name="ntilde" unicode="&#xf1;" horiz-adv-x="533" 
d="M427 572q11 -7 19 -13.5t14 -15.5t10.5 -14t7.5 -17t5 -17t3 -20.5t1.5 -20.5t1 -25.5t0.5 -26.5q3 -72 3 -102v-298l-161 1q-2 56 -1.5 164t-2.5 156v25t-8.5 42t-25.5 31q-13 3 -32.5 -6.5t-32.5 -20.5l-13 -11v-173q-1 -51 0 -207q-99 -3 -163 -3l-7 597
q49 1 75.5 -0.5t70.5 -1.5l10 -76q38 33 82.5 49.5t79.5 14.5t64 -11zM474 762q-26 -41 -69.5 -72.5t-74.5 -31.5q-26 0 -67 19.5t-56 19.5q-3 -1 -12 -4.5l-14 -5.5t-13 -6.5t-14.5 -10.5t-12.5 -14l-96 80q25 40 68 69.5t79 29.5q26 0 70 -21.5t59 -21.5q28 0 73 48z" />
    <glyph glyph-name="ograve" unicode="&#xf2;" horiz-adv-x="517" 
d="M263 -14q-37 0 -65.5 3t-61 11.5t-54 29t-27.5 51.5q-9 45 -14.5 155t-3.5 165q0 7 0.5 22t1 20t1.5 16.5t1.5 15.5t2.5 13t4.5 13.5t6 11.5t8.5 12.5l11 12.5q32 35 69 47.5t118 12.5q85 0 132.5 -20.5t59.5 -46.5t18.5 -69.5t7.5 -82.5t2 -119q1 -132 -20 -183
q-38 -91 -198 -91zM208 388v-11q1 -11 1.5 -30.5t1.5 -43t1.5 -55.5t1.5 -62q1 -47 48 -52q5 0 12.5 2t20 13.5t12.5 30.5q2 124 -5 212q-4 49 -40 54q-16 3 -35.5 -15t-18.5 -43zM127 842l130 84q25 -36 56.5 -108.5t47.5 -95.5l-94 -63l-61 79z" />
    <glyph glyph-name="oacute" unicode="&#xf3;" horiz-adv-x="517" 
d="M263 -14q-37 0 -65.5 3t-61 11.5t-54 29t-27.5 51.5q-9 45 -14.5 155t-3.5 165q0 7 0.5 22t1 20t1.5 16.5t1.5 15.5t2.5 13t4.5 13.5t6 11.5t8.5 12.5l11 12.5q32 35 69 47.5t118 12.5q85 0 132.5 -20.5t59.5 -46.5t18.5 -69.5t7.5 -82.5t2 -119q1 -132 -20 -183
q-38 -91 -198 -91zM208 388v-11q1 -11 1.5 -30.5t1.5 -43t1.5 -55.5t1.5 -62q1 -47 48 -52q5 0 12.5 2t20 13.5t12.5 30.5q2 124 -5 212q-4 49 -40 54q-16 3 -35.5 -15t-18.5 -43zM422 849q-12 -17 -59 -90l-67 -102l-107 47q14 31 43.5 115t40.5 109z" />
    <glyph glyph-name="ocircumflex" unicode="&#xf4;" horiz-adv-x="517" 
d="M263 -14q-37 0 -65.5 3t-61 11.5t-54 29t-27.5 51.5q-9 45 -14.5 155t-3.5 165q0 7 0.5 22t1 20t1.5 16.5t1.5 15.5t2.5 13t4.5 13.5t6 11.5t8.5 12.5l11 12.5q32 35 69 47.5t118 12.5q85 0 132.5 -20.5t59.5 -46.5t18.5 -69.5t7.5 -82.5t2 -119q1 -132 -20 -183
q-38 -91 -198 -91zM208 388v-11q1 -11 1.5 -30.5t1.5 -43t1.5 -55.5t1.5 -62q1 -47 48 -52q5 0 12.5 2t20 13.5t12.5 30.5q2 124 -5 212q-4 49 -40 54q-16 3 -35.5 -15t-18.5 -43zM161 647q-23 15 -53.5 43.5t-47.5 41.5l216 165l82 -71t115 -93l-101 -92q-23 19 -56 52.5
t-48 45.5l-59 -51t-48 -41z" />
    <glyph glyph-name="otilde" unicode="&#xf5;" horiz-adv-x="517" 
d="M263 -14q-37 0 -65.5 3t-61 11.5t-54 29t-27.5 51.5q-9 45 -14.5 155t-3.5 165q0 7 0.5 22t1 20t1.5 16.5t1.5 15.5t2.5 13t4.5 13.5t6 11.5t8.5 12.5l11 12.5q32 35 69 47.5t118 12.5q85 0 132.5 -20.5t59.5 -46.5t18.5 -69.5t7.5 -82.5t2 -119q1 -132 -20 -183
q-38 -91 -198 -91zM208 388v-11q1 -11 1.5 -30.5t1.5 -43t1.5 -55.5t1.5 -62q1 -47 48 -52q5 0 12.5 2t20 13.5t12.5 30.5q2 124 -5 212q-4 49 -40 54q-16 3 -35.5 -15t-18.5 -43zM466 767q-26 -41 -69.5 -72.5t-74.5 -31.5q-26 0 -67 19.5t-56 19.5q-3 -1 -12 -4.5
l-14 -5.5t-13 -6.5t-14.5 -10.5t-12.5 -14l-96 80q25 40 68 69.5t79 29.5q26 0 70 -21.5t59 -21.5q28 0 73 48z" />
    <glyph glyph-name="odieresis" unicode="&#xf6;" horiz-adv-x="517" 
d="M263 -14q-37 0 -65.5 3t-61 11.5t-54 29t-27.5 51.5q-9 45 -14.5 155t-3.5 165q0 7 0.5 22t1 20t1.5 16.5t1.5 15.5t2.5 13t4.5 13.5t6 11.5t8.5 12.5l11 12.5q32 35 69 47.5t118 12.5q85 0 132.5 -20.5t59.5 -46.5t18.5 -69.5t7.5 -82.5t2 -119q1 -132 -20 -183
q-38 -91 -198 -91zM208 388v-11q1 -11 1.5 -30.5t1.5 -43t1.5 -55.5t1.5 -62q1 -47 48 -52q5 0 12.5 2t20 13.5t12.5 30.5q2 124 -5 212q-4 49 -40 54q-16 3 -35.5 -15t-18.5 -43zM207 788q26 -16 27.5 -53.5t-17.5 -61.5q-35 -27 -68.5 -25.5t-55.5 28t-15 60.5
q7 36 30.5 53t50 15t48.5 -16zM401 791q26 -16 27.5 -53.5t-17.5 -61.5q-35 -27 -67.5 -26t-53.5 26.5t-14 59.5q7 36 29.5 53.5t48 16.5t47.5 -15z" />
    <glyph glyph-name="divide" unicode="&#xf7;" horiz-adv-x="651" 
d="M67 482q39 2 171 0t234 -2q0 -30 4.5 -77.5t2.5 -68.5l-416 -1zM301 274q40 -11 55 -54t-13 -111q-54 -37 -96 -29t-66 45t-15 77q9 39 32.5 59t50 19t52.5 -6zM301 712q26 -7 43 -26.5t21 -53t-18 -77.5q-54 -37 -97 -31t-68 41t-16 75q9 39 32.5 59t50 19t52.5 -6z" />
    <glyph glyph-name="oslash" unicode="&#xf8;" horiz-adv-x="491" 
d="M472 620q-13 -16 -45 -69q39 -52 54 -125q15 -62 13 -193.5t-23 -168.5q-29 -51 -77 -69t-143 -18q-21 0 -63.5 16t-58.5 40q-20 -23 -50 -72l-33 26l-21 16q21 26 63 90q-12 43 -20.5 112.5t-9.5 117.5q-3 110 9 163q4 20 16.5 38.5t23.5 28t24 19t15 11.5q8 8 49.5 18
t94.5 8t81 -25l52 80zM306 470q-28 21 -61.5 4.5t-36.5 -53.5q-9 -104 -7 -141q14 28 51.5 93t53.5 97zM336 380q-42 -68 -116 -203q0 -1 2 -8.5t4.5 -14.5t6.5 -16.5t8.5 -16.5t11.5 -12.5t14 -6.5q17 -2 38.5 5.5t25.5 25.5q6 27 9 91.5t-4 155.5z" />
    <glyph glyph-name="ugrave" unicode="&#xf9;" horiz-adv-x="580" 
d="M514 593q1 -46 2 -282t6 -319l-163 -2l-8 66q-35 -18 -60 -29t-57.5 -21t-59 -6.5t-46.5 20.5q-26 22 -33.5 32.5t-21.5 41.5q-19 77 -23 242q-1 38 -4 127t-4 129l181 -6q9 -346 12 -363q3 -20 6 -29.5t14 -18.5t31 -9q31 0 40.5 16t11.5 57v349q10 1 26 2t65 3t85 0z
M153 847l130 84q25 -36 56.5 -108.5t47.5 -95.5l-94 -63l-61 79z" />
    <glyph glyph-name="uacute" unicode="&#xfa;" horiz-adv-x="580" 
d="M514 593q1 -46 2 -282t6 -319l-163 -2l-8 66q-35 -18 -60 -29t-57.5 -21t-59 -6.5t-46.5 20.5q-26 22 -33.5 32.5t-21.5 41.5q-19 77 -23 242q-1 38 -4 127t-4 129l181 -6q9 -346 12 -363q3 -20 6 -29.5t14 -18.5t31 -9q31 0 40.5 16t11.5 57v349q10 1 26 2t65 3t85 0z
M441 854q-12 -17 -59 -90l-67 -102l-107 47q14 31 43.5 115t40.5 109z" />
    <glyph glyph-name="ucircumflex" unicode="&#xfb;" horiz-adv-x="580" 
d="M514 593q1 -46 2 -282t6 -319l-163 -2l-8 66q-35 -18 -60 -29t-57.5 -21t-59 -6.5t-46.5 20.5q-26 22 -33.5 32.5t-21.5 41.5q-19 77 -23 242q-1 38 -4 127t-4 129l181 -6q9 -346 12 -363q3 -20 6 -29.5t14 -18.5t31 -9q31 0 40.5 16t11.5 57v349q10 1 26 2t65 3t85 0z
M189 649q-23 15 -53.5 43.5t-47.5 41.5l216 165l82 -71t115 -93l-101 -92q-23 19 -56 52.5t-48 45.5l-59 -51t-48 -41z" />
    <glyph glyph-name="udieresis" unicode="&#xfc;" horiz-adv-x="580" 
d="M514 593q1 -46 2 -282t6 -319l-163 -2l-8 66q-35 -18 -60 -29t-57.5 -21t-59 -6.5t-46.5 20.5q-26 22 -33.5 32.5t-21.5 41.5q-19 77 -23 242q-1 38 -4 127t-4 129l181 -6q9 -346 12 -363q3 -20 6 -29.5t14 -18.5t31 -9q31 0 40.5 16t11.5 57v349q10 1 26 2t65 3t85 0z
M226 793q26 -16 27.5 -53.5t-17.5 -61.5q-35 -27 -68.5 -25.5t-55.5 28t-15 60.5q7 36 30.5 53t50 15t48.5 -16zM420 796q26 -16 27.5 -53.5t-17.5 -61.5q-35 -27 -67.5 -26t-53.5 26.5t-14 59.5q7 36 29.5 53.5t48 16.5t47.5 -15z" />
    <glyph glyph-name="yacute" unicode="&#xfd;" horiz-adv-x="590" 
d="M148 -31q3 11 25.5 70.5t29.5 93.5q-20 69 -51.5 148t-48.5 128q-20 61 -66 157q21 6 73 24.5t98 27.5q20 -40 57 -167q10 -34 39 -113q19 45 51.5 148t49.5 140q16 -7 41 -15t37 -13q7 -3 15 -5t20.5 -7.5t40.5 -20.5l-148 -411l-128 -365q-41 10 -66 17.5t-53 17
l-53 17.5q2 19 8.5 41t15.5 48.5zM454 822q-12 -17 -59 -90l-67 -102l-107 47q14 31 43.5 115t40.5 109z" />
    <glyph glyph-name="thorn" unicode="&#xfe;" horiz-adv-x="560" 
d="M427 604q23 -9 40 -27.5t26 -37t15 -44.5t7.5 -41t3 -38t1.5 -24q6 -78 6 -111q-2 -55 -11 -159q-2 -24 -6 -41.5t-11.5 -29t-11.5 -16t-15.5 -13t-13.5 -10.5q-19 -16 -46.5 -26.5t-73 -10t-91.5 22.5q3 -37 3.5 -74t0 -60t0.5 -53l-210 -5q-2 112 -4 423t-6 566
q46 -2 99 0.5t88 -0.5q1 -45 6.5 -115t5.5 -101q36 19 63 29t48.5 11t30.5 0.5t30 -7.5t26 -8zM328 404q-1 40 -20.5 50.5t-39.5 -1t-27 -28.5l6 -264q9 -23 28 -34q15 -9 25 -7.5t20 19.5q7 13 10.5 34t3.5 54t-0.5 54.5t-2.5 65t-3 57.5z" />
    <glyph glyph-name="ydieresis" unicode="&#xff;" horiz-adv-x="590" 
d="M148 -31q3 11 25.5 70.5t29.5 93.5q-20 69 -51.5 148t-48.5 128q-20 61 -66 157q21 6 73 24.5t98 27.5q20 -40 57 -167q10 -34 39 -113q19 45 51.5 148t49.5 140q16 -7 41 -15t37 -13q7 -3 15 -5t20.5 -7.5t40.5 -20.5l-148 -411l-128 -365q-41 10 -66 17.5t-53 17
l-53 17.5q2 19 8.5 41t15.5 48.5zM256 806q26 -16 27.5 -53.5t-17.5 -61.5q-35 -27 -68.5 -25.5t-55.5 28t-15 60.5q7 36 30.5 53t50 15t48.5 -16zM450 809q26 -16 27.5 -53.5t-17.5 -61.5q-35 -27 -67.5 -26t-53.5 26.5t-14 59.5q7 36 29.5 53.5t48 16.5t47.5 -15z" />
    <glyph glyph-name="dotlessi" unicode="&#x131;" horiz-adv-x="342" 
d="M255 581q6 -37 14 -265t9 -314q-53 -2 -94.5 -2t-101.5 -1q-19 326 -18 579q103 2 191 3z" />
    <glyph glyph-name="Lslash" unicode="&#x141;" horiz-adv-x="458" 
d="M72 276l-80 -27l2 182q24 5 76 18q1 56 -4 179.5t-6 163.5l106 -3l86 -3l21 -294q16 3 46 12.5t57 14.5q4 -43 8 -95.5t7 -77.5l-93 -28l8 -136q16 0 53.5 -1.5t73.5 0.5q6 -111 12 -177l-241 -4l-128 6z" />
    <glyph glyph-name="lslash" unicode="&#x142;" horiz-adv-x="418" 
d="M72 294q-12 -8 -45.5 -24.5t-40.5 -20.5q-3 38 -3.5 94.5t-2.5 89.5q97 33 97 39l-5 324l163 8v-284q103 45 115 37q9 -101 15 -176q-12 -2 -31.5 -9l-46.5 -17.5l-43 -16.5l8 -150q1 -22 9.5 -33t17.5 -12.5t29 -1.5q61 0 83 1l7 -156q-111 -8 -166.5 -4.5t-77.5 12.5
q-26 9 -47.5 39t-23.5 55q-3 46 -4.5 100t-2.5 78t-4 28z" />
    <glyph glyph-name="OE" unicode="&#x152;" horiz-adv-x="792" 
d="M726 480q6 -97 -11 -153h-150q2 -71 6 -132q117 6 204 -3q-4 -34 -5.5 -92.5t-5.5 -93.5l-148.5 3t-157.5 4q-6 -9 -16 -14t-26 -8.5t-22 -5.5q-8 0 -25.5 -2.5t-48.5 -0.5q-80 6 -128.5 20.5t-78 46t-41.5 72t-19 110.5q-1 11 -9 180l-5 97q-2 71 3 107q15 117 94 153
q28 12 78.5 22.5t115 9.5t103.5 -21q26 1 134 7.5t203 9.5q0 -22 6 -178l-200 -11l-6 -121q24 -2 72.5 -2.5t83.5 -3.5zM349 195q4 281 -8 398q-1 13 -4.5 21t-10.5 11.5t-11.5 5t-16.5 2t-17 1.5q-22 -6 -30 -14.5t-11 -30.5q-1 -33 -1 -61v-47.5t1 -45t1.5 -37t2.5 -41.5
t3 -39.5t4.5 -50.5t4.5 -56q2 -30 14 -46t30 -10q28 2 38.5 11t10.5 29z" />
    <glyph glyph-name="oe" unicode="&#x153;" horiz-adv-x="734" 
d="M584 432q0 17 -9 26t-19.5 11t-26.5 2q-15 0 -25 -5t-15 -11.5t-7.5 -18t-2.5 -20t0.5 -22.5t0.5 -20q15 -1 47.5 -1h57.5zM290 171q9 90 1 236q-2 35 -25 47t-46 -0.5t-24 -38.5q-4 -84 -2 -170.5t11 -93.5q19 -18 50.5 -13.5t34.5 33.5zM685 135v-140q-266 -18 -292 57
q-46 -60 -135 -60q-44 0 -88.5 9t-83 34.5t-42.5 63.5q-10 93 -10 190q0 9 -1 48.5t-1 55.5t3 44.5t10 51.5q10 33 29 57.5t39 36t39 19t32 8.5l12 1q16 3 44 5t77 -11.5t71 -49.5q35 43 101.5 53.5t122.5 -7.5t67 -49q20 -55 23 -106q3 -57 -1 -121l-4 -66
q-47 -1 -111.5 -1h-99.5v-51q0 -53 29 -63q26 -10 96 -9t74 0z" />
    <glyph glyph-name="Scaron" unicode="&#x160;" horiz-adv-x="467" 
d="M252 793l-190 146l24.5 24.5t21 20.5l18.5 16.5l28 23.5q17 -11 45.5 -36.5t54.5 -43.5q15 10 28.5 21l35 28.5l42.5 33.5l82 -64q-24 -20 -62 -57.5t-70 -61.5q-4 -3 -20 -19.5t-38 -31.5zM390 385q38 -61 50 -121.5t-6.5 -118t-70.5 -98.5q-13 -10 -25 -17.5
t-27.5 -13.5t-26 -9.5t-31.5 -6t-32 -4t-40 -2.5t-43 -1h-52.5h-58.5l4 167h31t34 1q3 0 21 0.5t24 1t21 2t22 4.5t17.5 8t17.5 12.5t12 17.5q3 10 4 18.5t-0.5 16.5l-2.5 13.5t-5.5 13.5t-6 11.5t-7.5 11.5t-7 10q-13 21 -86 97q-53 58 -57 158q-5 109 112 179
q33 20 88.5 30t160.5 17l25 -169q-22 -2 -51 -6.5t-33 -4.5q-31 -5 -54 -17q-18 -11 -16 -46.5t22 -58.5q46 -54 73 -96z" />
    <glyph glyph-name="scaron" unicode="&#x161;" horiz-adv-x="435" 
d="M169 268l-9 8q-10 9 -18.5 17.5t-19 21.5t-18 28.5t-9.5 31.5q-8 42 -4 70t30 68q19 29 61 51t79 30q95 23 111 22q7 0 16.5 -34.5t15.5 -68.5l6 -34q-24 -7 -37.5 -7.5t-28.5 -5.5q-34 -10 -49 -24t-9 -42q4 -19 13.5 -32t29.5 -30.5t32 -30.5q31 -35 45.5 -65t13.5 -77
q0 -27 -9.5 -53.5t-30 -53.5t-59.5 -46.5t-93 -25.5q-10 -1 -32 -4.5t-46 -5t-62 -1.5l-11 148q82 6 84 6q19 3 30.5 6t23 13.5t12.5 27.5t-5 32t-12 22t-21 20t-20 18zM250 627l-216 170q21 15 54.5 46t50.5 44q8 -3 25 -18l42 -38.5t42 -37.5q12 8 37.5 28.5l51.5 43
t27 23.5l96 -90l-53.5 -44l-69.5 -58q-58 -53 -87 -69z" />
    <glyph glyph-name="Ydieresis" unicode="&#x178;" horiz-adv-x="692" 
d="M389 1q-3 0 -23.5 -0.5t-49 -0.5h-53.5l-6 399l-246 279q16 12 59.5 55t78.5 68q36 -32 104 -108.5t100 -107.5q26 28 85 105t96 114l147 -103l-232 -302l8 -397l-26 -2q-17 0 -42 1zM307 931q26 -16 27.5 -53.5t-17.5 -61.5q-35 -27 -68.5 -25.5t-55.5 28t-15 60.5
q7 36 30.5 53t50 15t48.5 -16zM480 932q26 -17 29 -54t-15 -61q-35 -27 -67.5 -26t-53.5 26.5t-14 59.5q7 36 28.5 53.5t46 16.5t46.5 -15z" />
    <glyph glyph-name="Zcaron" unicode="&#x17d;" horiz-adv-x="580" 
d="M277 729l-228 177q28 28 108 95q18 -11 58.5 -47t63.5 -53q18 13 58 48.5t61 52.5l110 -94q-101 -88 -168 -135zM39 679q13 1 70 1q7 -1 71 1t165 3.5t178 1.5q-58 -177 -176 -486q26 1 90 -2t99 1l18 -196q-93 -1 -256.5 -1t-264.5 -2q64 227 175 507q-76 -1 -173 -1
q0 3 4 79.5t0 93.5z" />
    <glyph glyph-name="zcaron" unicode="&#x17e;" horiz-adv-x="511" 
d="M28 427q3 22 6 79.5t9 90.5q46 1 96.5 3.5t82.5 3.5t60 0l165 -6q-1 -3 -3 -10l-4 -14.5t-2 -15.5q-22 -77 -77.5 -206.5t-72.5 -180.5l178 -1q7 0 11.5 -44.5t3.5 -69.5q0 -1 -1.5 -22t-1.5 -31q-192 -4 -418 -1v19q63 193 158 408q-30 0 -94 -1.5t-96 -0.5zM303 633
l-248 198q17 13 61.5 56t67.5 58q8 -3 26 -22.5l43 -47t44 -42.5q11 7 36.5 30l49 45.5l26.5 25.5l118 -112l-135 -114l-13 -13l-21 -20.5t-25.5 -21.5t-29.5 -20z" />
    <glyph glyph-name="florin" unicode="&#x192;" horiz-adv-x="474" 
d="M428 709q-11 -2 -46.5 -1.5t-58 -5t-31.5 -22.5q-11 -23 -4 -63l112 2q1 -32 0.5 -65.5t-1.5 -59.5t-2 -28q-119 4 -119 -9l-10 -466q-1 -58 -21.5 -87t-74.5 -66q-28 -10 -91.5 -18t-94.5 -6q-2 8 0 73t1 79q12 2 25 2t20 0.5t18 5.5t24 17q4 11 8.5 21t5.5 12t3 7
t1 5.5t0 8t0 13.5l8 402h-28h-36h-32q-1 -1 -2.5 11.5t-1.5 32v40.5t1 40.5t2 28.5q5 0 105 4q0 4 2 35.5t6 54t12 52t25 49.5t41 26q26 7 109 11.5t131 4.5q2 -13 -2.5 -69.5t-3.5 -71.5z" />
    <glyph glyph-name="circumflex" unicode="&#x2c6;" horiz-adv-x="523" 
d="M156 650q-23 15 -53.5 43.5t-47.5 41.5l216 165l82 -71t115 -93l-101 -92q-23 19 -56 52.5t-48 45.5l-59 -51t-48 -41z" />
    <glyph glyph-name="caron" unicode="&#x2c7;" horiz-adv-x="582" 
d="M303 545l-248 198q17 13 61.5 56t67.5 58q8 -3 26 -22.5l43 -47t44 -42.5q11 7 36.5 30l49 45.5l26.5 25.5l118 -112l-135 -114l-13 -13l-21 -20.5t-25.5 -21.5t-29.5 -20z" />
    <glyph glyph-name="breve" unicode="&#x2d8;" horiz-adv-x="464" 
d="M415 802q-7 -39 -24 -83.5t-37 -64.5q-35 -36 -124 -36q-39 0 -71 17t-53 47t-34 57.5t-23 61.5q13 5 59.5 5.5t52.5 1.5q3 -6 6 -23.5t7 -25.5q13 -22 24 -29t40 -7q12 0 20 0.5t15 4.5t10.5 6.5t9.5 12t8 14l9 21l11 25.5z" />
    <glyph glyph-name="dotaccent" unicode="&#x2d9;" horiz-adv-x="433" 
d="M256 842q33 -8 54 -39.5t22 -64t-9 -58.5q-22 -34 -60.5 -52t-78.5 -2q-39 16 -63.5 54.5t-20.5 58.5q7 52 27 77q40 48 129 26z" />
    <glyph glyph-name="ring" unicode="&#x2da;" horiz-adv-x="474" 
d="M374 735q2 -33 -10 -68t-31 -48q-30 -27 -84.5 -30t-95.5 21q-24 15 -40.5 49t-11.5 79q6 59 46.5 95t92.5 32q55 -3 93 -35t41 -95zM275 725q-1 18 -12 29t-26 11q-17 0 -29.5 -11t-10.5 -34q2 -20 9.5 -26t28.5 -9q14 0 27.5 12t12.5 28z" />
    <glyph glyph-name="ogonek" unicode="&#x2db;" horiz-adv-x="296" 
d="M58 20l124 -1q-13 -82 -7 -114q2 -11 13.5 -17t23 -6.5t24.5 -0.5h13l-10 -115h-17q-16 -1 -36 0.5t-43.5 5t-44 13.5t-31.5 25q-23 35 -22 111.5t13 98.5z" />
    <glyph glyph-name="tilde" unicode="&#x2dc;" horiz-adv-x="495" 
d="M443 740q-26 -41 -69.5 -72.5t-74.5 -31.5q-26 0 -67 19.5t-56 19.5q-3 -1 -12 -4.5l-14 -5.5t-13 -6.5t-14.5 -10.5t-12.5 -14l-96 80q25 40 68 69.5t79 29.5q26 0 70 -21.5t59 -21.5q28 0 73 48z" />
    <glyph glyph-name="hungarumlaut" unicode="&#x2dd;" horiz-adv-x="653" 
d="M182 823l165 -51l-123 -213l-124 31q12 28 33 106t49 127zM388 799l165 -51l-123 -213l-124 31q12 28 33 106t49 127z" />
    <glyph glyph-name="endash" unicode="&#x2013;" horiz-adv-x="843" 
d="M125 478h597q2 -32 2.5 -100t-1.5 -98l-594 -1q-1 15 -1.5 95.5t-2.5 103.5z" />
    <glyph glyph-name="emdash" unicode="&#x2014;" horiz-adv-x="1036" 
d="M125 484l788 -1q7 -110 3 -201l-786 -1q-5 199 -5 203z" />
    <glyph glyph-name="quoteleft" unicode="&#x2018;" horiz-adv-x="282" 
d="M168 895l113 -43q-24 -52 -42 -103t-36 -112.5t-25 -82.5q-38 8 -58.5 13l-48.5 11.5l-63 14.5l50 116t45 86.5t65 99.5z" />
    <glyph glyph-name="quoteright" unicode="&#x2019;" horiz-adv-x="300" 
d="M109 909q44 -8 87 -20t93 -20l-36.5 -85t-39 -89t-38.5 -71.5t-52 -75.5l-115 55q79 187 101 306z" />
    <glyph glyph-name="quotesinglbase" unicode="&#x201a;" horiz-adv-x="296" 
d="M94 219q51 -9 94 -24t78 -24q-35 -78 -53.5 -116t-50.5 -92.5t-68 -98.5l-111 47q96 227 111 308z" />
    <glyph glyph-name="quotedblleft" unicode="&#x201c;" horiz-adv-x="457" 
d="M156 901l131 -53q-27 -48 -45 -94t-39.5 -118t-24.5 -80q-38 8 -58.5 13l-48.5 11.5l-63 14.5l33.5 83l33 81.5t34 69t47.5 72.5zM226 585q12 27 33 81t32.5 80.5t32.5 65.5t46 71l132 -52q-23 -43 -42 -94t-38 -114t-24 -78q-16 4 -26 6t-12 2.5t-4.5 1.5t-5 1t-12.5 2
q-14 1 -45.5 11.5t-66.5 15.5z" />
    <glyph glyph-name="quotedblright" unicode="&#x201d;" horiz-adv-x="463" 
d="M110 915q25 -6 44.5 -10l24.5 -5q72 -19 96 -23q-7 -18 -25 -70l-26 -73.5t-23.5 -59t-31 -66t-34.5 -56.5l-127 48q77 169 102 315zM328 899q44 -8 87 -20t93 -20l-25.5 -57l-27.5 -61.5t-24.5 -51.5t-30.5 -57l-30 -46.5t-36 -49.5l-113 51q88 207 107 312z" />
    <glyph glyph-name="quotedblbase" unicode="&#x201e;" horiz-adv-x="472" 
d="M77 237q24 -5 48.5 -13t42.5 -12q19 -5 45 -15t50 -16l-21.5 -56.5l-21.5 -56.5l-20 -48t-24.5 -52.5t-26.5 -46t-34 -50.5l-132 55q55 102 94 311zM314 220q20 -5 48 -13.5t49 -12.5t41 -10t40 -11l-25 -68.5t-27 -71l-25.5 -58.5t-33.5 -65t-38 -55l-128 57
q68 140 99 308z" />
    <glyph glyph-name="dagger" unicode="&#x2020;" horiz-adv-x="507" 
d="M313 -182l-185 -12l-9 633l-107 -1v186q94 3 105 3l-1 173q110 -2 191 3l4 -176h100q0 -26 2.5 -86.5t0.5 -99.5l-107 -1q0 -173 3 -363.5t3 -258.5z" />
    <glyph glyph-name="daggerdbl" unicode="&#x2021;" horiz-adv-x="507" 
d="M311 -184h-195v204h-106v161h112l-2 274l-110 -1v169q16 0 50 -1.5t59 -0.5l1 175q28 -1 95 -4t88 1v-172h114v-80.5t-1 -79.5l-109 -2q0 -40 1 -123t1 -153q34 1 112 1q0 -97 -3 -166l-108 -1q0 -119 1 -201z" />
    <glyph glyph-name="bullet" unicode="&#x2022;" horiz-adv-x="590" 
d="M473 479q35 -61 15.5 -158t-59.5 -118q-43 -22 -95.5 -24t-98 16t-78.5 54t-37.5 88t25.5 119q25 53 75.5 76t101 16.5t93.5 -26t58 -43.5z" />
    <glyph glyph-name="ellipsis" unicode="&#x2026;" horiz-adv-x="756" 
d="M169 180q26 -7 43 -26.5t21 -53t-18 -77.5q-54 -37 -97 -31t-68 41t-16 75q9 39 32.5 59t50 19t52.5 -6zM428 181q19 -8 34 -27t21 -53t-16 -77q-54 -37 -97 -31t-68 41t-16 75q9 39 35 60t53.5 20.5t53.5 -8.5zM673 178q26 -7 43 -26.5t21 -53t-18 -77.5
q-54 -37 -97 -31t-68 41t-16 75q9 39 32.5 59t50 19t52.5 -6z" />
    <glyph glyph-name="perthousand" unicode="&#x2030;" horiz-adv-x="1185" 
d="M332 452q-17 -36 -43 -47t-87 -11q-136 0 -160 75q-7 22 -7 210q1 93 114 110q40 6 105 -4t79 -47q6 -17 10 -30t5.5 -29t2 -23.5t0.5 -30v-30.5q2 -97 -19 -143zM647 769q-9 -15 -68.5 -171t-70.5 -187l-156 -427q-2 -4 -4.5 -9.5t-4 -10.5t-2.5 -9t-2.5 -6.5t-3.5 -2.5
q-13 2 -48.5 20.5t-64.5 35.5l-28 18l82 195q28 65 111 298.5t116 310.5zM1137 43q-16 -35 -46 -46t-93 -12q-28 -1 -46 0.5t-43.5 8t-41.5 23.5t-22 44l-7 73q0 10 0.5 27t1 48t0.5 62q1 91 127 110q29 4 80.5 -7t73.5 -40q13 -17 20 -39.5t8 -33.5t1 -45.5v-39.5
q3 -28 1 -68t-14 -65zM803 45q-17 -37 -43 -49t-85 -12h-16h-17.5t-16.5 0.5t-17.5 2t-16.5 4t-17.5 6.5l-16 10t-16 13.5t-14.5 18t-14 23.5q-9 41 -7 211q1 93 114 110q19 0 55 1.5t76.5 -12.5t48.5 -41q5 -17 7.5 -30.5t4 -29t2 -23.5t0.5 -29.5v-30.5q3 -28 1.5 -73.5
t-12.5 -69.5zM230 532q6 26 0 99q-2 23 -17.5 32t-30 -0.5t-15.5 -33.5q-3 -94 11 -111q8 -11 28 -7.5t24 21.5zM1025 124q6 21 0 99q-2 23 -17.5 32.5t-30.5 -0.5t-15 -34q-2 -88 11 -111q6 -11 26.5 -7t25.5 21zM691 119q8 27 2 104q-2 23 -17.5 32.5t-30.5 -0.5t-15 -34
q-3 -95 11 -111q8 -11 26.5 -9.5t23.5 18.5z" />
    <glyph glyph-name="guilsinglleft" unicode="&#x2039;" horiz-adv-x="555" 
d="M322 122l-274 246l134 116.5t138 118.5q31 -19 68 -57t70 -60q-32 -22 -77 -61.5t-70 -58.5l63.5 -52.5t76.5 -58.5z" />
    <glyph glyph-name="guilsinglright" unicode="&#x203a;" horiz-adv-x="568" 
d="M235 371q-29 22 -71.5 64t-68.5 64q25 20 62 57.5t67 59.5q16 -10 35.5 -27l44 -39.5l33.5 -30.5q19 -17 38 -37.5t35 -34.5q21 -18 81 -81l-271 -243l-116 139q16 12 57 50t74 59z" />
    <glyph glyph-name="fraction" unicode="&#x2044;" horiz-adv-x="443" 
d="M-67 30l51.5 130.5l55 139.5l49.5 120.5l58.5 136.5l56 121t67.5 136l196 -63q-59 -94 -91 -180q-97 -266 -244 -606z" />
    <glyph glyph-name="Euro" unicode="&#x20ac;" horiz-adv-x="558" 
d="M433 515q4 -64 -2 -77l-136 -3v-20.5v-27.5v-22q22 0 59.5 -0.5t58 -0.5t20.5 -1q1 -9 0.5 -31t0.5 -42l-132 -6q-2 -7 5 -46t12 -50q5 -12 17.5 -20t27 -11.5t36 -4.5t38 -0.5t40 2t35.5 1.5q6 -55 0 -163h-27q-26 -1 -41 -0.5l-47 1.5t-54.5 4.5l-53 8.5t-52.5 14.5
t-43.5 21t-35 29t-18.5 38.5q-10 41 -22 175q-12 -1 -22 -1t-25 -0.5t-28 -0.5l-2 79q58 3 82 2l2 66q-16 0 -48.5 0.5t-37.5 -1.5v81q71 2 84 3q-5 48 7 133q12 49 45 86t67 52q48 21 129 33.5t141 4.5l-1 -154q-2 0 -24.5 -0.5t-34 -1t-35.5 -4t-38 -9t-33 -17
t-29.5 -26.5t-18 -38.5t-6.5 -52.5q126 -2 140 -3z" />
    <glyph glyph-name="trademark" unicode="&#x2122;" horiz-adv-x="1054" 
d="M948 335q-4 -1 -141 -1q-2 31 -4 75t-3 75t-3 44q-7 -13 -30 -43t-43 -53l-19 -24q-66 75 -93 118q0 -162 -3 -198q-112 0 -134 2l6 460q2 0 28.5 0.5l55.5 1t42 0.5q5 -10 29 -47l45 -70.5t23 -39.5l97 158q35 5 133 5zM447 664q0 -5 -94 -5q0 -60 0.5 -160t-0.5 -161
l-145 -1v322q-60 4 -109 4q2 13 2 67.5v57.5q48 5 342 5q4 -80 4 -129z" />
    <glyph glyph-name="minus" unicode="&#x2212;" horiz-adv-x="575" 
d="M63 500q145 1 447 1q0 -160 -2 -197l-445 -1v197z" />
    <glyph glyph-name="fi" unicode="&#xfb01;" horiz-adv-x="624" 
d="M569 2q-18 -1 -87.5 0t-91.5 0q-4 93 -5 199.5t-6 203.5l-101 2l2 -401l-174 -4l-4 403h-77q-4 -2 -5.5 53t0.5 101q53 0 78 1q1 9 2 48.5t4 67t21 57.5t51 40q32 10 84.5 14t87.5 -3q2 -8 1 -61.5t0 -67.5q-9 -1 -23.5 -1t-22.5 -1t-16.5 -4t-12.5 -11t-4 -22
q0 -34 4 -56l279 -2q4 -42 7 -90t4.5 -84t2.5 -96.5t1 -88.5t0.5 -101t0.5 -96zM507 773q27 -5 40 -48t-8 -85q-39 -32 -73.5 -27.5t-56 33.5t-14.5 62q18 84 112 65z" />
    <glyph glyph-name="fl" unicode="&#xfb02;" horiz-adv-x="628" 
d="M644 -9q-236 0 -247 99q-6 52 -9.5 110.5t-4 98.5t-1 112t-1.5 111l-3 138q-14 2 -29 3t-37.5 0t-36.5 -10.5t-15 -27.5q-7 -44 -2 -69l85 -4l1 -147l-80 -4l4 -401h-172l-6 403h-69q-3 23 1 150q45 0 70 1q1 10 1 40t2 57.5t8.5 57.5t24.5 51.5t46 29.5q17 6 40.5 7
t53.5 -0.5t44 -0.5q196 -8 211 -16q8 -4 9 -99t3 -246.5t10 -248.5q1 -11 6 -18.5t10.5 -11.5t16.5 -6t17.5 -2.5t20.5 -1t20 -0.5q1 -18 3.5 -79.5t4.5 -75.5z" />
    </font>
</defs>
</svg>
